<?xml version="1.0" encoding="utf-8"?>
<svg id="master-artboard" viewBox="0 0 500 500" version="1.1" xmlns="http://www.w3.org/2000/svg" x="0px" y="0px" style="enable-background:new 0 0 1400 980;" width="500px" height="500px" xmlns:xlink="http://www.w3.org/1999/xlink"><rect id="ee-background" x="0" y="0" width="500" height="500" style="fill: white; fill-opacity: 0; pointer-events: none;"/><g transform="matrix(2.165572166442871, 0, 0, 2.165572166442871, -1292.1842976502442, -745.027272069792)"><g transform="matrix(1, 0, 0, 1, -422.2668151855468, -249.18218994140625)"><g transform="matrix(1, 0, 0, 1, 1.1368683772161603e-13, 0)">
	<path class="st1" d="M1153.7,806.8h-39.5c-4.6,0-8.6-1.6-11.6-4.7c-5.5-5.7-5.3-14.5-5.3-15.5l3.6-58.8h65.9l3.6,58.7&#10;&#9;&#9;c0,1.1,0.3,9.8-5.3,15.5C1162.3,805.2,1158.3,806.8,1153.7,806.8z M1111,738.6l-3,48.7c0,1.2,0.3,5.4,2.3,7.5&#10;&#9;&#9;c0.6,0.6,1.6,1.4,3.8,1.4h39.5c2.3,0,3.3-0.8,3.8-1.4c2.1-2.2,2.3-6.5,2.3-7.6l-3-48.6H1111z" style="fill: rgb(36, 60, 76); opacity: 1;"/>
</g><path class="st1" d="M1067.7,674.6c-4.1,18.7,13.7,25.6,13.7,25.6c-8-37.6,18.7-46.3,18.7-46.3&#10;&#9;C1069.9,656.8,1067.7,674.6,1067.7,674.6z" style="fill: rgb(36, 60, 76); opacity: 1;" transform="matrix(1, 0, 0, 1, 1.1368683772161603e-13, 0)"/><g transform="matrix(1, 0, 0, 1, 1.1368683772161603e-13, 0)">
	<path class="st1" d="M1165.4,720.1h-62.9c-19.3-0.2-32.5-3.5-33.1-3.7l-0.4-0.1c-26.5-9.1-26.8-34.1-23.3-46.1l0.3-0.7&#10;&#9;&#9;c18.5-39.5,68.2-42.6,83-42.6c2.5,0,4.2,0.1,4.9,0.1c0.7,0,2.5-0.1,4.9-0.1c14.8,0,64.5,3.1,83,42.6l0.3,0.7&#10;&#9;&#9;c3.6,12,3.3,37-23.3,46.1l-0.4,0.1C1197.9,716.6,1184.7,719.9,1165.4,720.1L1165.4,720.1z M1072.3,706.1c1.7,0.4,13.6,3.1,30.3,3.3&#10;&#9;&#9;h62.8c16.7-0.2,28.6-2.9,30.3-3.3c21.9-7.7,17.4-28.7,16.4-32.5c-15.9-33.4-59.9-36-73.1-36c-2.8,0-4.5,0.1-4.6,0.1l-0.4,0l-0.4,0&#10;&#9;&#9;c-0.1,0-1.8-0.1-4.6-0.1c-13.2,0-57.2,2.6-73.1,36C1054.9,677.3,1050.4,698.4,1072.3,706.1z" style="fill: rgb(36, 60, 76); opacity: 1;"/>
</g></g></g><g transform="matrix(0.8636711835861206, 0, 0, 0.8636711835861206, -625.1575157707035, 5.889686186605331)"><g transform="matrix(1, 0, 0, 1, 0, 0)"><g transform="matrix(1, 0, 0, 1, 0, 0)">
	<path class="st1" d="M928,158.9c8.8-4.3,17.7-8.7,27.4-11c7.1-1.7,14.2-0.9,17.2,6.6c1.5,3.8,4.9,6.4,9.2,5.2&#10;&#9;&#9;c3.6-1,6.8-5.4,5.2-9.2c-5.1-12.6-15.3-19.4-29-18.1c-13.3,1.3-25.8,7.7-37.6,13.5C911.7,150.2,919.3,163.1,928,158.9L928,158.9z" style="fill: rgb(36, 60, 76); opacity: 1;"/>
</g><g transform="matrix(1, 0, 0, 1, 0, 0)">
	<path class="st1" d="M1117.1,145.9c-20.6-11-55.8-24.7-67.9,4.6c-1.6,3.8,1.7,8.2,5.2,9.2c4.3,1.2,7.7-1.5,9.2-5.2&#10;&#9;&#9;c3.3-7.9,12.6-7.4,19.6-5.9c9.2,1.9,17.9,5.9,26.2,10.3C1118.1,163.4,1125.7,150.4,1117.1,145.9L1117.1,145.9z" style="fill: rgb(36, 60, 76); opacity: 1;"/>
</g><g transform="matrix(1, 0, 0, 1, 0, 0)">
	<path class="st2" d="M1051.2,240.2c-13.7-23.9-55.6-23.1-68.9,0.9c-4.7,8.5,8.3,16,13,7.6c7.8-14.1,34.7-15.1,42.9-0.9&#10;&#9;&#9;C1043.1,256.1,1056,248.6,1051.2,240.2L1051.2,240.2z" style="fill: rgb(36, 60, 76); opacity: 1;"/>
</g><g transform="matrix(1, 0, 0, 1, 0, 0)">
	<path class="st3" d="M984,184.6c0.6,27.8,36.5,35.4,55.6,20.5c10.9-8.6,11.5-26.5,4.2-37.5c-6.7-10.2-19.9-12.3-20.2-25.7&#10;&#9;&#9;c-0.2-9.7-15.2-9.7-15,0c0.3,13,6.6,20.8,16.5,28.1c2.9,2.1,6.2,4.8,7.5,8.6c1.6,4.6,1.2,9.4-0.7,12.6c-6.7,11.7-32.6,7.7-32.9-6.6&#10;&#9;&#9;C998.8,175,983.8,175,984,184.6L984,184.6z" style="fill: rgb(36, 60, 76); opacity: 1;"/>
</g></g></g><g transform="matrix(0.3226023018360138, -0.3272137939929962, 0.3272137939929962, 0.3226023018360138, -71.8806169194009, 369.6195983886718)"><g transform="matrix(1, 0, 0, 1, 1.1368683772161603e-13, 0)"><g transform="matrix(1, 0, 0, 1, -68.63700866699213, -13.428979873657227)">
	<g>
		<g>
			<path class="st1" d="M636,765.7c-0.1-0.1-0.3-0.3-0.4-0.4c-1.9-2.3-1.5-5.7,0.8-7.5l27.6-21.7c2.3-1.9,5.7-1.5,7.6,0.8&#10;&#9;&#9;&#9;&#9;c1.9,2.3,1.5,5.7-0.8,7.6l-27.7,21.7C641,767.8,637.9,767.6,636,765.7z" style="fill: rgb(36, 60, 76); opacity: 1;"/>
		</g>
		<path class="st1" d="M722,762.5l-7.7-7.7l-45.1,64.7c-8.8,8.4-22.8,8.3-31.4-0.3l-23.6-23.6c-8.7-8.7-8.8-22.7-0.3-31.5l63-46.8&#10;&#9;&#9;&#9;l-7.7-7.7l-62,46.1c-0.2,0.2-0.4,0.3-0.6,0.5c-12.9,12.9-12.9,34,0,46.9l23.6,23.6c12.9,12.9,34,12.9,46.9,0&#10;&#9;&#9;&#9;c0.2-0.2,0.4-0.5,0.6-0.7L722,762.5z" style="fill: rgb(36, 60, 76); opacity: 1;"/>
		<g>
			<path class="st1" d="M736.5,682.8c-4,4-10.5,4-14.6,0c-4-4-4-10.5,0-14.6c4-4,10.5-4,14.6,0C740.5,672.2,740.5,678.8,736.5,682.8&#10;&#9;&#9;&#9;&#9;z" style="fill: rgb(36, 60, 76); opacity: 1;"/>
		</g>
		<g>
			<path class="st1" d="M766.4,712.7c-4.3,4.3-11.3,4.3-15.7,0c-4.3-4.3-4.3-11.3,0-15.7c4.3-4.3,11.3-4.3,15.7,0&#10;&#9;&#9;&#9;&#9;C770.7,701.4,770.7,708.4,766.4,712.7z" style="fill: rgb(36, 60, 76); opacity: 1;"/>
		</g>
		<g>
			<path class="st1" d="M727.1,721.3c-4.6,4.6-12,4.6-16.5,0c-4.6-4.6-4.6-12,0-16.5c4.6-4.6,12-4.6,16.5,0&#10;&#9;&#9;&#9;&#9;C731.7,709.3,731.7,716.7,727.1,721.3z" style="fill: rgb(36, 60, 76); opacity: 1;"/>
		</g>
		<g>
			<path class="st1" d="M760.1,754.2c-4.6,4.6-12,4.6-16.5,0c-4.6-4.6-4.6-12,0-16.5c4.6-4.6,12-4.6,16.5,0&#10;&#9;&#9;&#9;&#9;C764.6,742.2,764.6,749.6,760.1,754.2z" style="fill: rgb(36, 60, 76); opacity: 1;"/>
		</g>
		<g>
			<path class="st1" d="M695.3,689.5c-4.6,4.6-12,4.6-16.5,0c-4.6-4.6-4.6-12,0-16.5c4.6-4.6,12-4.6,16.5,0&#10;&#9;&#9;&#9;&#9;C699.9,677.5,699.9,684.9,695.3,689.5z" style="fill: rgb(36, 60, 76); opacity: 1;"/>
		</g>
		<path class="st1" d="M773.5,659.9c-39.6-39.6-104.1-39.6-143.7,0c-2,2-3.8,4-5.6,6.1c-1.8,2.1-1.7,5.3,0.3,7.3l3.9,3.9l12,12&#10;&#9;&#9;&#9;l0.3,0.3l14,14l72.7,72.7l18,18l1,1l13.6,13.6c2,2,5.1,2.1,7.3,0.3c2.1-1.8,4.1-3.6,6.1-5.6C813,764,813.1,699.5,773.5,659.9z&#10;&#9;&#9;&#9; M764.1,797.7l-10-10l-1.8-1.8L649.1,682.8l-1.1-1.1l-12.3-12.3c0.6-0.6,1.1-1.2,1.7-1.8c35.4-35.4,93.1-35.4,128.5,0&#10;&#9;&#9;&#9;c35.4,35.4,35.4,93.1,0,128.5C765.3,796.6,764.7,797.2,764.1,797.7z" style="fill: rgb(36, 60, 76); opacity: 1;"/>
	</g>
</g></g></g><g transform="matrix(0.22289076447486875, -0.22607693076133725, 0.22607693076133725, 0.22289076447486875, 134.67755126953125, 397.120147705078)"><g transform="matrix(1, 0, 0, 1, 1.1368683772161603e-13, 0)"><g transform="matrix(1, 0, 0, 1, -68.63700866699213, -13.428979873657227)">
	<g>
		<g>
			<path class="st1" d="M636,765.7c-0.1-0.1-0.3-0.3-0.4-0.4c-1.9-2.3-1.5-5.7,0.8-7.5l27.6-21.7c2.3-1.9,5.7-1.5,7.6,0.8&#10;&#9;&#9;&#9;&#9;c1.9,2.3,1.5,5.7-0.8,7.6l-27.7,21.7C641,767.8,637.9,767.6,636,765.7z" style="fill: rgb(36, 60, 76); opacity: 1;"/>
		</g>
		<path class="st1" d="M722,762.5l-7.7-7.7l-45.1,64.7c-8.8,8.4-22.8,8.3-31.4-0.3l-23.6-23.6c-8.7-8.7-8.8-22.7-0.3-31.5l63-46.8&#10;&#9;&#9;&#9;l-7.7-7.7l-62,46.1c-0.2,0.2-0.4,0.3-0.6,0.5c-12.9,12.9-12.9,34,0,46.9l23.6,23.6c12.9,12.9,34,12.9,46.9,0&#10;&#9;&#9;&#9;c0.2-0.2,0.4-0.5,0.6-0.7L722,762.5z" style="fill: rgb(36, 60, 76); opacity: 1;"/>
		<g>
			<path class="st1" d="M736.5,682.8c-4,4-10.5,4-14.6,0c-4-4-4-10.5,0-14.6c4-4,10.5-4,14.6,0C740.5,672.2,740.5,678.8,736.5,682.8&#10;&#9;&#9;&#9;&#9;z" style="fill: rgb(36, 60, 76); opacity: 1;"/>
		</g>
		<g>
			<path class="st1" d="M766.4,712.7c-4.3,4.3-11.3,4.3-15.7,0c-4.3-4.3-4.3-11.3,0-15.7c4.3-4.3,11.3-4.3,15.7,0&#10;&#9;&#9;&#9;&#9;C770.7,701.4,770.7,708.4,766.4,712.7z" style="fill: rgb(36, 60, 76); opacity: 1;"/>
		</g>
		<g>
			<path class="st1" d="M727.1,721.3c-4.6,4.6-12,4.6-16.5,0c-4.6-4.6-4.6-12,0-16.5c4.6-4.6,12-4.6,16.5,0&#10;&#9;&#9;&#9;&#9;C731.7,709.3,731.7,716.7,727.1,721.3z" style="fill: rgb(36, 60, 76); opacity: 1;"/>
		</g>
		<g>
			<path class="st1" d="M760.1,754.2c-4.6,4.6-12,4.6-16.5,0c-4.6-4.6-4.6-12,0-16.5c4.6-4.6,12-4.6,16.5,0&#10;&#9;&#9;&#9;&#9;C764.6,742.2,764.6,749.6,760.1,754.2z" style="fill: rgb(36, 60, 76); opacity: 1;"/>
		</g>
		<g>
			<path class="st1" d="M695.3,689.5c-4.6,4.6-12,4.6-16.5,0c-4.6-4.6-4.6-12,0-16.5c4.6-4.6,12-4.6,16.5,0&#10;&#9;&#9;&#9;&#9;C699.9,677.5,699.9,684.9,695.3,689.5z" style="fill: rgb(36, 60, 76); opacity: 1;"/>
		</g>
		<path class="st1" d="M773.5,659.9c-39.6-39.6-104.1-39.6-143.7,0c-2,2-3.8,4-5.6,6.1c-1.8,2.1-1.7,5.3,0.3,7.3l3.9,3.9l12,12&#10;&#9;&#9;&#9;l0.3,0.3l14,14l72.7,72.7l18,18l1,1l13.6,13.6c2,2,5.1,2.1,7.3,0.3c2.1-1.8,4.1-3.6,6.1-5.6C813,764,813.1,699.5,773.5,659.9z&#10;&#9;&#9;&#9; M764.1,797.7l-10-10l-1.8-1.8L649.1,682.8l-1.1-1.1l-12.3-12.3c0.6-0.6,1.1-1.2,1.7-1.8c35.4-35.4,93.1-35.4,128.5,0&#10;&#9;&#9;&#9;c35.4,35.4,35.4,93.1,0,128.5C765.3,796.6,764.7,797.2,764.1,797.7z" style="fill: rgb(36, 60, 76); opacity: 1;"/>
	</g>
</g></g></g><g transform="matrix(0.43226054310798645, 0, 0, 0.43226054310798645, -27.49341019907223, 196.23315496219072)"><g transform="matrix(1, 0, 0, 1, 1.1368683772161603e-13, 0)">
		<path d="M 270.79998779296875 628.7999877929688 L 238.60000610351562 563.2999877929688 L 254.5 563.2999877929688 L 226.3000030517578 505.79998779296875 L 244.10000610351562 505.79998779296875 L 203.39999389648438 423 L 162.8000030517578 505.79998779296875 L 180.60000610351562 505.79998779296875 L 152.3000030517578 563.2999877929688 L 168.3000030517578 563.2999877929688 L 136.10000610351562 628.7999877929688 L 196.3000030517578 628.7999877929688 L 196.3000030517578 656.2000122070312 L 214 656.2000122070312 L 214 628.7999877929688 Z" class="st1" style="fill: rgb(36, 60, 76); opacity: 1;"/>
		<g>
			<path d="M 234.3000030517578 508.70001220703125 L 232.6999969482422 512 L 233.89999389648438 514.5999755859375 L 242.5 514.5999755859375 L 238.1999969482422 523.2999877929688 L 259.29998779296875 566.2000122070312 L 243.39999389648438 566.2000122070312 L 263.29998779296875 608.0999755859375 L 263.29998779296875 591.2000122070312 L 298.70001220703125 591.2000122070312 L 278.6000061035156 550.4000244140625 L 288.5 550.4000244140625 L 270.8999938964844 514.5999755859375 L 282 514.5999755859375 L 256.70001220703125 463.1000061035156 L 241.60000610351562 493.8999938964844 L 248.89999389648438 508.70001220703125 Z" class="st1" style="fill: rgb(36, 60, 76); opacity: 1;"/>
			<path d="M 147.60000610351562 566.2000122070312 L 167.5 525.5999755859375 L 162.10000610351562 514.5999755859375 L 172.89999389648438 514.5999755859375 L 173.10000610351562 514.2999877929688 L 170.3000030517578 508.70001220703125 L 158 508.70001220703125 L 164.1999969482422 496.20001220703125 L 147.89999389648438 463.1000061035156 L 122.5999984741211 514.5999755859375 L 133.6999969482422 514.5999755859375 L 116.0999984741211 550.4000244140625 L 126 550.4000244140625 L 105.9000015258789 591.2000122070312 L 143.5 591.2000122070312 L 143.5 608.2999877929688 L 143.5 608.2999877929688 L 163.5 566.2000122070312 Z" class="st1" style="fill: rgb(36, 60, 76); opacity: 1;"/>
		</g>
	</g></g><g transform="matrix(0.32526713609695435, 0, 0, 0.32526713609695435, 18.909031180102545, 254.86040927107754)"><g transform="matrix(1, 0, 0, 1, 5.684341886080802e-14, 0)"><g transform="matrix(1, 0, 0, 1, 0, 0)">
		<path class="st1" d="M410.6,286.5c0,0-12.1-0.7-25.4-8.6c0,0,9.9,33,43.1,63.9c0,0-15.5-0.4-31.5-9.4c0,0,12.5,39.9,47.4,66.8&#10;&#9;&#9;&#9;c0,0-31,1.8-58.2-12.9h-12.9c-27.1,14.7-58.2,12.9-58.2,12.9c34.9-26.9,47.4-66.8,47.4-66.8c-15.9,9-31.4,9.4-31.4,9.4&#10;&#9;&#9;&#9;c33.2-30.9,43.1-63.9,43.1-63.9c-13.3,7.9-25.4,8.6-25.4,8.6c19.4-17.6,31-52.1,31-52.1S391.2,268.9,410.6,286.5z" style="fill: rgb(36, 60, 76); opacity: 1;"/>
		<path d="M 379 337 L 379 474" class="st2" style="fill: rgb(36, 60, 76); opacity: 1;"/>
		<path class="st3" d="M335.3,246.9c0,0-18-1.1-37.8-12.8c0,0,14.7,49.1,64.1,95c0,0-23.1-0.5-46.8-13.9c0,0,18.6,59.3,70.5,99.3&#10;&#9;&#9;&#9;c0,0-46.1,2.7-86.5-19.2h-19.2c-40.4,21.9-86.5,19.2-86.5,19.2c51.9-40.1,70.5-99.3,70.5-99.3c-23.7,13.4-46.8,13.9-46.8,13.9&#10;&#9;&#9;&#9;c49.3-45.9,64.1-95,64.1-95C261,245.8,243,246.9,243,246.9c28.8-26.2,46.1-77.4,46.1-77.4S306.5,220.7,335.3,246.9z" style="fill: rgb(36, 60, 76); opacity: 1;"/>
		<path d="M 289 316 L 289 474" class="st2" style="fill: rgb(36, 60, 76); opacity: 1;"/>
		<path d="M 289 373.799988 L 260.100006 368.299988" class="st2" style="fill: rgb(36, 60, 76); opacity: 1;"/>
		<path d="M 289.200012 346.600006 L 302.600006 325.700012" class="st2" style="fill: rgb(36, 60, 76); opacity: 1;"/>
		<g>
			<path class="st4" d="M290,479.3c-3.1,0-5-2.5-5-5.6V314.8c0-3.1,1.9-5.6,5-5.6c3.1,0,5,2.5,5,5.6v158.8&#10;&#9;&#9;&#9;&#9;C295,476.7,293.1,479.3,290,479.3z" style="fill: rgb(36, 60, 76); opacity: 1;"/>
			<path class="st4" d="M289,378.6c-0.3,0-0.6,0-0.9-0.1l-28.9-5.5c-2.6-0.5-4.4-3-3.9-5.7c0.5-2.6,3-4.4,5.7-3.9l28.9,5.5&#10;&#9;&#9;&#9;&#9;c2.6,0.5,4.4,3,3.9,5.7C293.3,377,291.3,378.6,289,378.6z" style="fill: rgb(36, 60, 76); opacity: 1;"/>
			<path class="st4" d="M289.2,351.5c-0.9,0-1.8-0.2-2.6-0.8c-2.3-1.4-2.9-4.4-1.5-6.7l13.4-20.9c1.4-2.3,4.4-2.9,6.7-1.5&#10;&#9;&#9;&#9;&#9;c2.3,1.4,2.9,4.4,1.5,6.7l-13.4,20.9C292.3,350.7,290.8,351.5,289.2,351.5z" style="fill: rgb(36, 60, 76); opacity: 1;"/>
		</g>
		<path d="M 379.5 373.799988 L 367 359" class="st2" style="fill: rgb(36, 60, 76); opacity: 1;"/>
		<g>
			<path class="st4" d="M380,478.5c-2.7,0-4-2.2-4-4.8V336.5c0-2.7,1.3-4.8,4-4.8s4,2.2,4,4.8v137.2&#10;&#9;&#9;&#9;&#9;C384,476.3,382.7,478.5,380,478.5z" style="fill: rgb(36, 60, 76); opacity: 1;"/>
			<path class="st4" d="M379.5,378.6c-1.4,0-2.7-0.6-3.7-1.7l-12.5-14.8c-1.7-2-1.5-5.1,0.6-6.8c2-1.7,5.1-1.5,6.8,0.6l12.5,14.8&#10;&#9;&#9;&#9;&#9;c1.7,2,1.5,5.1-0.6,6.8C381.7,378.2,380.6,378.6,379.5,378.6z" style="fill: rgb(36, 60, 76); opacity: 1;"/>
		</g>
	</g></g></g><g transform="matrix(1.067122459411621, 0, 0, 1.067122459411621, -149.5102764835122, -398.9716730343426)"><g transform="matrix(1, 0, 0, 1, 0, 0)">
		<path d="M262.9,402.5c0,0-7.2-0.9-5.8-1.9c1.4-1,5.2-1.1,5.2-1.1s1.8-1.1,1.9-1.4c0.1-0.3,2.8-4.8,12.5-2.9c0,0,4.9,1.1,7.3,5.6&#10;&#9;&#9;&#9;c2.4,4.5,3.9,8.1,4.9,9.7c0.9,1.5,3.4,5.3,2.1,8.9c-1.2,3.6-3.7,5.8-3.7,5.8s-3.6,9.5-7.7,12.8c-4.1,3.3-5.8,4-7.9,4.7&#10;&#9;&#9;&#9;c-2.1,0.7-5,1.2-5,1.2s0.1,1,1.2,1.8c1.2,0.8,9.9,9.3,11.2,9.6c1.2,0.1,2.1,0.4,2.1,0.4s2.1,0.8,3.6,2.1c1.5,1.3,1.1,2.6,1.1,3&#10;&#9;&#9;&#9;c0,0.4-1.2,0.7-1.3,0.1c-0.2-0.6,0.2-0.3-0.7-1.5c-0.8-1.2-1.4-1.3-1.4-1.3s1.2,2.6,1.5,3.8c0.3,1.2-0.3,2.2-0.7,2.8&#10;&#9;&#9;&#9;c-0.5,0.6-1.4-0.1-1.4-0.1s0.9,1,0.7,2s-0.8,1.5-0.9,0.9c-0.1-0.7-0.3-2.5-1.1-2.9c-0.9-0.4-2.9-1.7-3-2.6c-0.1-0.9-0.4-2-0.4-2&#10;&#9;&#9;&#9;s-0.7-4-1.3-4.7c-0.6-0.7-5-5.2-6.9-6.6c-1.9-1.3-4.8-3.1-4.8-3.6c0.1-0.5-0.5-1.1-0.5-1.1l-8,0.4c0,0,1.8,5.2,2.7,8.2&#10;&#9;&#9;&#9;c0.9,3,2.4,5.6,3.2,5.9c2,0.1,1.9-0.1,2.5,1.3c0.6,1.4,1.2,2.8,0.6,3.3c-0.7,0.5-1.3,0.5-1.8,0.1c-0.5-0.4-1.2-0.8-1.2-0.8&#10;&#9;&#9;&#9;s0.5,0.5-0.2,1.4c-0.7,0.9-0.9,0.7-0.9,1.4c0.1,0.7-0.5,0.8,0.1,1.3c0.6,0.6,2,1.5,3,0.8c0.5,1-1.5,1.6-2.9,0.8&#10;&#9;&#9;&#9;c-1.4-0.8-1.6-1.9-1.6-1.9s-1.5,1.1-2.4,0.1c-0.9-1-1.1-2.2-1.1-2.2s1.1,1.1,1.8,1.1c0.7,0,0.6-0.6,0.6-0.6s-1.5-1.6-1.2-3.2&#10;&#9;&#9;&#9;c0.3-1.1,0.4-1.4,0.4-1.4s0.2,3.6,1.4,3.1c0.6-1.1,0.8-2.3,0-3.9c-0.8-1.7-1.8-6-2.6-8.3c-0.8-2.3-3.1-7.1-3.1-7.1&#10;&#9;&#9;&#9;s-1.4-0.6-2.1,0.2c-0.7,0.8-8.6,8.2-11,5.2c-1.4,0.7-5.4,1.1-3.4-0.8c2-1.9,6.5-5.4,6.5-5.4s0.5-1.3,1.9-2.5&#10;&#9;&#9;&#9;c0.4-1.9,1.5-3.7,2.7-4.9c0.4-2.5,3.8-7.9,4.8-9c1.8-2.9,4.3-5.7,4.3-5.7s0.8-2.4,5.5-6.7c4.1-3.9,4.2-4.4,4.2-4.4&#10;&#9;&#9;&#9;s1.1-2.4-1.6-6.4C264.2,402.8,262.9,402.5,262.9,402.5z" style="fill: rgb(36, 60, 76); opacity: 1;"/>
	</g></g><g transform="matrix(-0.5899810194969176, 0, 0, 0.5899810194969176, 643.5082994506186, 418.0679626464843)"><g transform="matrix(1, 0, 0, 1, 0, 0)">
		<g transform="matrix(0.3608374297618866, 0, 0, 0.3608374297618866, 202.36597103888636, -129.06812939880362)"><g transform="matrix(1, 0, 0, 1, 0, 0)"><path class="st17" d="M498.4,630.1c-44.4-10.3,10.9-60.9,23.9-73.4c22-21.3,38.4-52.7,35-84c-3.4-31.1-29.4-57.8-60.3-62.4&#10;&#9;&#9;&#9;c-34.1-5.1-77.6,19.1-73.6,58c2.2,21.5,22.6,37.3,43.6,25c-15.9-2.6-11.6-27.9,5.3-24.8c19.6,3.6,14.4,27.5,7.4,39.4&#10;&#9;&#9;&#9;c-17,28.9-47.4,57.6-49.8,93.3c-2.3,35,45.5,63.2,77,48.8" style="fill: rgb(36, 60, 76);" transform="matrix(1, 0, 0, 1, 0, 0)"/></g><g id="Wp73mb.tif" transform="matrix(1, 0, 0, 1, 0, 0)">
			<path class="st2" d="M565.2,663.9c0,0,45.7-5.6,59.4,15.6h-86.2v-11L565.2,663.9z" style="fill: rgb(36, 60, 76);"/>
			<path class="st18" d="M612.6,490.7c0,0,13.7-20.8,35.5-20.8l-13.3,27.5C634.8,497.3,619.2,502.5,612.6,490.7z" style="fill: rgb(36, 60, 76);"/>
			<g>
				
					
				<g><g transform="matrix(1, 0, 0, 1, 0, 0)">
					<path class="st2" d="M645.7,575.2c-14.5-4-32.4,5.8-32.4,5.8l-2.7-5.7l9.8-16.4c32.9,5.1,55-12.3,55-12.3s-10-58.4-57.4-53.5&#10;&#9;&#9;&#9;&#9;&#9;&#9;l10.4-27.8c0,0-36.7,0-40.6,54.5c-3.4,48-51,23.4-83.9,66.8c-9.8,9.9-15.8,23.4-15.8,38.4c0,30.1,24.4,54.6,54.6,54.6&#10;&#9;&#9;&#9;&#9;&#9;&#9;c30.1,0,54.6-24.4,54.6-54.6c0-4.2-0.5-8.2-1.3-12.1c6.3,0.9,14.4,1,22.6-2c17.7-6.5,28.7-21.1,28.7-21.1l8.7,5&#10;&#9;&#9;&#9;&#9;&#9;&#9;C656,594.8,660.3,579.2,645.7,575.2z" style="fill: rgb(36, 60, 76);"/>
				</g></g>
			</g>
		</g><g transform="matrix(1, 0, 0, 1, 0, 0)">
			<path class="st4" d="M649.3,520.8c0,7.6-6.2,13.8-13.8,13.8c-7.6,0-13.7-6.2-13.7-13.8c0-7.6,6.2-13.8,13.7-13.8&#10;&#9;&#9;&#9;&#9;C643.1,507,649.3,513.2,649.3,520.8z" style="fill: rgb(36, 60, 76);"/>
			<path class="st5" d="M646.4,520.8c0,6-4.9,10.9-10.9,10.9c-6,0-10.9-4.9-10.9-10.9c0-6,4.9-10.9,10.9-10.9&#10;&#9;&#9;&#9;&#9;C641.5,509.9,646.4,514.8,646.4,520.8z" style="fill: rgb(36, 60, 76);"/>
		</g><g transform="matrix(1, 0, 0, 1, 0, 0)">
			<defs>
				<path id="SVGID_3_" d="M645.7,575.2c-14.5-4-32.4,5.8-32.4,5.8l-2.7-5.7l9.8-16.4c32.9,5.1,55-12.3,55-12.3s-10-58.4-57.4-53.5&#10;&#9;&#9;&#9;&#9;&#9;l10.4-27.8c0,0-36.7,0-40.6,54.5c-3.4,48-51,23.4-83.9,66.8c-9.8,9.9-15.8,23.4-15.8,38.4c0,30.1,24.4,54.6,54.6,54.6&#10;&#9;&#9;&#9;&#9;&#9;c30.1,0,54.6-24.4,54.6-54.6c0-4.2-0.5-8.2-1.3-12.1c6.3,0.9,14.4,1,22.6-2c17.7-6.5,28.7-21.1,28.7-21.1l8.7,5&#10;&#9;&#9;&#9;&#9;&#9;C656,594.8,660.3,579.2,645.7,575.2z"/>
			</defs>
			<clipPath id="SVGID_4_">
				<use style="overflow:visible;" xlink:href="#SVGID_3_"/>
			</clipPath>
			<path class="st19" d="M620.4,558.9c0,0,23.9-22,55-12.3c31.1,9.7-36.1,19.6-36.1,19.6L620.4,558.9z" style="clip-path: url('#SVGID_4_'); fill: rgb(36, 60, 76);"/>
		</g><path class="st20" d="M675.7,549.5c2.7-1.3,0.3-7.3-1.3-7.3c0,0-10.9,2.7-9.3,10.3C665.2,552.6,672.9,550.9,675.7,549.5z" style="fill: rgb(36, 60, 76);" transform="matrix(1, 0, 0, 1, 0, 0)"/></g>
		
		
		
		
	</g></g><g transform="matrix(0.052307404577732086, -0.000793470477219671, 0.000793470477219671, 0.052307404577732086, 302.8738355248105, 400.0764465332031)"><g transform="matrix(1, 0, 0, 1, 0, 0)">
			<path fill="#CCCCCC" d="M1535.5,1361.4c-4.1-3.6-9.4-13.2-13.2-24.1c-2.9-8.3-7.3-24.1-4.1-36.9c1.2-4.7,3.3-8.5,6.3-11.2&#10;&#9;&#9;&#9;&#9;c3.2-2.9,7.5-4.7,12.7-5.3c0.1,0,0.3-0.1,0.4-0.1c0,0,0,0,0,0c0,0,0,0,0,0c0.2,0,0.3,0,0.5,0.1c5.1,0.7,9.2,2.6,12.4,5.6&#10;&#9;&#9;&#9;&#9;c2.9,2.8,5,6.7,6.1,11.4c3.1,12.8-1.3,28.5-4.1,36.8c-3.7,10.8-8.9,20.2-12.9,23.9c11.2-8.4,38.6-77.7-1.9-77.7&#10;&#9;&#9;&#9;&#9;C1495.9,1283.8,1523.8,1352.4,1535.5,1361.4z" style="fill: rgb(36, 60, 76);"/>
			<path fill="#CCCCCC" d="M1537.6,1360.2c3.3-2.9,7.3-10.8,10.3-20.3c3.7-12,5.1-24.2,3.8-33.4c-1.5-10.7-6.4-17.5-14.4-20.2&#10;&#9;&#9;&#9;&#9;c-8,2.6-12.8,9.4-14.3,20c-1.3,9.2,0.2,21.4,4,33.3C1530.1,1349.4,1534.3,1357.5,1537.6,1360.2z" style="fill: rgb(36, 60, 76);"/>
			<path fill="#CCCCCC" d="M1553.6,1306.2c1.2,8.5,0.2,19.2-2.7,30.1c3.9-11.5,6.2-24.7,3.8-34.9c-1.7-6.9-5.4-11.6-11-14&#10;&#9;&#9;&#9;&#9;C1549,1291.2,1552.4,1297.6,1553.6,1306.2z" style="fill: rgb(36, 60, 76);"/>
			<path fill="#CCCCCC" d="M1521,1306.1c1.2-8.4,4.5-14.7,9.7-18.6c-5.4,2.3-9,6.8-10.7,13.4c-2.2,8.6-0.8,21.1,3.6,34.3&#10;&#9;&#9;&#9;&#9;C1520.8,1324.6,1519.9,1314.3,1521,1306.1z" style="fill: rgb(36, 60, 76);"/>
			<path fill="#CCCCCC" d="M1526.8,1442.6c2.5,2.1,5.9,7.6,8.4,14c1.9,4.9,5,14.2,3.4,21.8c-0.6,2.8-1.7,5.1-3.5,6.8&#10;&#9;&#9;&#9;&#9;c-1.8,1.8-4.3,3-7.4,3.5c-0.1,0-0.2,0-0.3,0c0,0,0,0,0,0c0,0,0,0,0,0c-0.1,0-0.2,0-0.3,0c-3-0.3-5.6-1.3-7.5-3&#10;&#9;&#9;&#9;&#9;c-1.8-1.6-3.1-3.8-3.9-6.6c-2.1-7.5,0-17,1.5-21.9c1.9-6.5,4.7-12.2,7.1-14.5c-6.5,5.3-20.9,47.1,3.1,46.1&#10;&#9;&#9;&#9;&#9;C1552.2,1487.6,1534,1447.8,1526.8,1442.6z" style="fill: rgb(36, 60, 76);"/>
			<path fill="#CCCCCC" d="M1517.4,1475.8c-0.9-5-0.6-11.4,0.8-17.9c-2,6.9-3.1,14.8-1.4,20.8c1.2,4.1,3.5,6.8,6.9,8&#10;&#9;&#9;&#9;&#9;C1520.5,1484.5,1518.4,1480.8,1517.4,1475.8z" style="fill: rgb(36, 60, 76);"/>
			<path fill="#CCCCCC" d="M1525.6,1443.3c-1.9,1.8-4.1,6.6-5.6,12.3c-1.9,7.2-2.4,14.5-1.4,19.9c1.2,6.3,4.2,10.2,9.1,11.6&#10;&#9;&#9;&#9;&#9;c4.7-1.8,7.4-5.9,8-12.3c0.5-5.5-0.7-12.7-3.2-19.7C1530.3,1449.5,1527.6,1444.8,1525.6,1443.3z" style="fill: rgb(36, 60, 76);"/>
			<path fill="#CCCCCC" d="M1536.8,1475c-0.5,5-2.3,8.9-5.3,11.3c3.2-1.5,5.2-4.3,6-8.2c1.1-5.2,0-12.5-3-20.3&#10;&#9;&#9;&#9;&#9;C1536.4,1464,1537.3,1470.1,1536.8,1475z" style="fill: rgb(36, 60, 76);"/>
			<path fill="#CCCCCC" d="M1495.5,1454c-4.1-3-8.2-8-11.5-13.7c3.2,6.4,7.8,13,13.1,16.2c3.6,2.2,7.1,2.6,10.5,1.2&#10;&#9;&#9;&#9;&#9;C1503.7,1458.3,1499.6,1457.1,1495.5,1454z" style="fill: rgb(36, 60, 76);"/>
			<path fill="#CCCCCC" d="M1509.2,1440.3c3.1,4,4.3,8.1,3.8,11.9c1.3-3.3,0.9-6.6-1.2-10.1c-2.7-4.5-8.5-9.2-16-12.9&#10;&#9;&#9;&#9;&#9;C1501.5,1432.5,1506.2,1436.4,1509.2,1440.3z" style="fill: rgb(36, 60, 76);"/>
			<path fill="#CCCCCC" d="M1479.8,1423.2c3.2-0.2,9.5,1.5,15.8,4.5c4.7,2.3,13.2,7,17.3,13.7c1.5,2.5,2.2,4.9,2.1,7.4&#10;&#9;&#9;&#9;&#9;c-0.1,2.6-1.2,5.1-3.1,7.6c0,0.1-0.1,0.1-0.2,0.2c0,0,0,0,0,0c0,0,0,0,0,0c-0.1,0.1-0.1,0.1-0.2,0.2c-2.4,1.9-5,2.8-7.5,2.9&#10;&#9;&#9;&#9;&#9;c-2.4,0.1-4.9-0.7-7.4-2.2c-6.7-4.1-11.5-12.5-13.8-17.1c-3-6.1-4.8-12.3-4.6-15.5c-1.2,8.1,16.5,48.9,33.6,31.8&#10;&#9;&#9;&#9;&#9;C1529.2,1439,1488.4,1422,1479.8,1423.2z" style="fill: rgb(36, 60, 76);"/>
			<path fill="#CCCCCC" d="M1483.7,1437.5c3.5,6.6,8,12.3,12.5,15.6c5.2,3.9,10,4.7,14.5,2.4c2.3-4.5,1.4-9.3-2.4-14.4&#10;&#9;&#9;&#9;&#9;c-3.4-4.4-9.1-8.9-15.7-12.3c-5.4-2.8-10.6-4.4-13.1-4.1C1479.3,1427.2,1480.9,1432.2,1483.7,1437.5z" style="fill: rgb(36, 60, 76);"/>
			<path fill="#CCCCCC" d="M1461.4,1388.9c3.6-0.9,7-0.8,10,0.4c3.3,1.3,6.2,3.7,8.7,7.3c0.1,0.1,0.2,0.2,0.2,0.3c0,0,0,0,0,0&#10;&#9;&#9;&#9;&#9;c0,0,0,0,0,0c0.1,0.1,0.1,0.2,0.1,0.4c1.6,3.9,2.1,7.7,1.4,11.1c-0.7,3.2-2.4,6.1-5,8.7c-7.2,7-19.4,9.8-26,10.8&#10;&#9;&#9;&#9;&#9;c-8.7,1.3-17.1,1.1-21.1-0.5c10.2,5,67.4-1,50.7-30.5c-17.2-30.4-51.1,15.6-52.3,27.4c0.7-4.4,4.9-11.8,10.6-18.7&#10;&#9;&#9;&#9;&#9;C1443,1400.4,1451.7,1391.3,1461.4,1388.9z" style="fill: rgb(36, 60, 76);"/>
			<path fill="#CCCCCC" d="M1475.1,1393.2c-3.8-3.1-8.2-4-13.2-2.8c-6.6,1.7-14.3,7.3-21.3,15.4c5.8-6,12.3-10.5,18.2-12.8&#10;&#9;&#9;&#9;&#9;C1464.9,1390.8,1470.5,1390.8,1475.1,1393.2z" style="fill: rgb(36, 60, 76);"/>
			<path fill="#CCCCCC" d="M1447.5,1425.3c9.5-1.8,18.1-5.3,23.7-9.7c6.5-5.1,9-11.2,7.4-18c-5.1-4.9-11.5-5.8-19.2-2.9&#10;&#9;&#9;&#9;&#9;c-6.6,2.5-14.1,8.1-20.5,15.4c-5.2,5.9-8.8,12-9.2,15.4C1433.1,1426.7,1440,1426.7,1447.5,1425.3z" style="fill: rgb(36, 60, 76);"/>
			<path fill="#CCCCCC" d="M1472.2,1416.9c-5.1,4-12.7,7.3-21,9.3c9.2-1.5,18.9-4.7,24.7-10.3c3.9-3.8,5.5-8.3,4.7-13.3&#10;&#9;&#9;&#9;&#9;C1480.2,1407.9,1477.4,1412.8,1472.2,1416.9z" style="fill: rgb(36, 60, 76);"/>
			<path fill="#CCCCCC" d="M1502.9,1377.9c5.1-2.7,12.2-4.5,19.7-5.1c-8.2,0.1-17.1,1.6-23,5.5c-4,2.6-6.2,6-6.4,10.2&#10;&#9;&#9;&#9;&#9;C1494.4,1384.2,1497.7,1380.6,1502.9,1377.9z" style="fill: rgb(36, 60, 76);"/>
			<path fill="#CCCCCC" d="M1529.8,1390.8c-4.6,3.7-13.7,10.1-22.5,10.9c-3.3,0.3-6.1-0.2-8.6-1.5c-2.6-1.4-4.7-3.7-6.2-6.9&#10;&#9;&#9;&#9;&#9;c-0.1-0.1-0.1-0.2-0.1-0.3c0,0,0,0,0,0c0,0,0,0,0,0c0-0.1-0.1-0.2-0.1-0.3c-0.7-3.4-0.5-6.5,0.8-9.1c1.1-2.5,3.1-4.7,5.9-6.5&#10;&#9;&#9;&#9;&#9;c7.5-4.8,18.4-5.6,24.3-5.7c7.7-0.1,14.9,1.1,18.1,2.8c-7.9-5.2-58.1-7-49,18.8c9.4,26.6,46.7-6.7,49.8-16.1&#10;&#9;&#9;&#9;&#9;C1540.7,1380.4,1535.8,1385.9,1529.8,1390.8z" style="fill: rgb(36, 60, 76);"/>
			<path fill="#CCCCCC" d="M1525.6,1374c-8.5,0.3-16.5,2.2-22.1,5.1c-6.5,3.4-9.7,8-9.6,13.7c3.5,4.5,8.9,6.1,16,4.6&#10;&#9;&#9;&#9;&#9;c6.2-1.3,13.6-4.9,20.3-10.1c5.5-4.2,9.7-8.7,10.7-11.4C1538.3,1374.5,1532.4,1373.7,1525.6,1374z" style="fill: rgb(36, 60, 76);"/>
			<path fill="#CCCCCC" d="M1496.2,1396.7c2.7,2.9,6.4,4.2,10.9,3.8c6-0.6,13.6-4.2,21-10c-6.1,4.1-12.5,7.1-17.9,8.2&#10;&#9;&#9;&#9;&#9;C1504.6,1399.8,1499.8,1399.1,1496.2,1396.7z" style="fill: rgb(36, 60, 76);"/>
			<path fill="#CCCCCC" d="M1601.7,1370.8c-2.8,3-3.8,6.8-3,11.5c1.1,6.1,5.4,13.6,12,20.7c-4.7-5.9-8.3-12.2-9.9-17.7&#10;&#9;&#9;&#9;&#9;C1599.2,1379.6,1599.5,1374.7,1601.7,1370.8z" style="fill: rgb(36, 60, 76);"/>
			<path fill="#CCCCCC" d="M1605.1,1366.5c-26.4,11.8,10.6,47.3,20.5,49.7c-3.6-1.1-9.7-5.7-15.2-11.5c-4.2-4.4-11.5-13.2-13-22.2&#10;&#9;&#9;&#9;&#9;c-0.6-3.3-0.3-6.3,0.8-8.9c1.2-2.8,3.4-5.1,6.5-6.9C1604.8,1366.6,1604.9,1366.6,1605.1,1366.5&#10;&#9;&#9;&#9;&#9;C1605,1366.5,1605,1366.5,1605.1,1366.5C1605,1366.5,1605,1366.5,1605.1,1366.5c0.1,0,0.2-0.1,0.3-0.1c3.4-1,6.6-1,9.4,0&#10;&#9;&#9;&#9;&#9;c2.7,1,5.1,2.8,7.1,5.5c5.6,7.2,7.3,18.4,7.8,24.4c0.7,7.9,0.1,15.3-1.4,18.8C1633,1406.6,1630.7,1355,1605.1,1366.5z" style="fill: rgb(36, 60, 76);"/>
			<path fill="#CCCCCC" d="M1627.3,1399.1c-1-8.6-3.6-16.7-7-22.2c-4-6.4-9-9.3-14.8-8.7c-4.3,3.9-5.5,9.6-3.4,16.7&#10;&#9;&#9;&#9;&#9;c1.8,6.2,6.2,13.5,12,20c4.7,5.3,9.7,9.2,12.5,10C1627.8,1412.1,1628.2,1405.9,1627.3,1399.1z" style="fill: rgb(36, 60, 76);"/>
			<path fill="#CCCCCC" d="M1609.9,1367c4.5,0.9,8.4,4,11.6,9.1c3.1,5,5.6,12.1,6.8,19.8c-0.8-8.3-3.1-17.4-7.5-23.1&#10;&#9;&#9;&#9;&#9;C1617.8,1368.8,1614.1,1366.9,1609.9,1367z" style="fill: rgb(36, 60, 76);"/>
			<path fill="#CCCCCC" d="M1585.1,1339.4C1585.1,1339.4,1585.1,1339.4,1585.1,1339.4C1585.1,1339.4,1585.1,1339.4,1585.1,1339.4&#10;&#9;&#9;&#9;&#9;L1585.1,1339.4L1585.1,1339.4c0,0-0.7-0.1-1.7-1.8c-4.4-4.7-15.8-18.7-17.9-35.5c-2.5-20.8,3.3-35.8,19.2-37.5c0,0,0.1,0,0.1,0&#10;&#9;&#9;&#9;&#9;C1540.5,1265,1575.6,1339.4,1585.1,1339.4z" style="fill: rgb(36, 60, 76);"/>
			<path fill="#CCCCCC" d="M1588.7,1333.1c1.6-4.9,3.5-13.8,4.8-29.6c3-35.1-8.4-38.9-8.4-38.9c5.4,4.6,5,21,5.1,34.6&#10;&#9;&#9;&#9;&#9;c0.1,7.5-1.5,19-2.9,27.8c-0.9,8.6-1.8,11.5-2.1,12.2C1585.6,1338.7,1587,1336.6,1588.7,1333.1z" style="fill: rgb(36, 60, 76);"/>
			<path fill="#CCCCCC" d="M1604.2,1302.1c-2,16.6-13,30.5-17.3,35.4c-0.9,1.5-1.5,1.8-1.7,1.9c0,0,0,0,0,0c9.3,0,43-74.6,0.2-74.7&#10;&#9;&#9;&#9;&#9;c0,0,0,0,0.1,0C1601.3,1266.4,1606.7,1281.3,1604.2,1302.1z" style="fill: rgb(36, 60, 76);"/>
			<path fill="#CCCCCC" d="M1569.6,1305.9c2.9,14.8,9.6,25.6,13.1,30.5c-0.4-0.8-0.8-1.9-1.3-3.3c-2.8-5.8-6.4-15.8-7.6-29.8&#10;&#9;&#9;&#9;&#9;c-2-24.1,4-36.5,11.2-38.6c0,0-11.4,3.8-8.4,38.9c1.3,15.8,3.2,24.6,4.8,29.6c2,4.2,3.6,6.3,3.6,6.3l0,0c0,0,0,0,0,0&#10;&#9;&#9;&#9;&#9;c-0.1-0.3-0.7-2.4-1.5-9.2c-1.4-9-3.2-22.5-3.1-30.9c0.1-13.6-0.8-30,4.5-34.6c0,0-4.8,8.5-3.3,39.1c0.6,12.7,1.3,21,1.9,26.3&#10;&#9;&#9;&#9;&#9;c0.8,5,1.4,8.7,1.5,9.2c0,0,0,0,0,0c0.1-0.8,1.1-5.7,2.1-12.2c0.6-5.3,1.2-12.8,1.7-23.2c1.4-30.7-3.8-39.1-3.8-39.1&#10;&#9;&#9;&#9;&#9;c7.2,2.2,13.2,14.6,11.2,38.6c-1.2,14-4.8,23.9-7.6,29.8c-0.4,1.2-0.7,2.1-1.1,2.9c3.5-5.1,9.6-15.7,12.5-30.1&#10;&#9;&#9;&#9;&#9;c7.4-37.3-13.3-41-14.8-41.2c0,0,0,0-0.1,0c-0.1,0-0.1,0-0.2,0c-0.1,0-0.2,0-0.3,0c0,0,0,0-0.1,0&#10;&#9;&#9;&#9;&#9;C1583.2,1264.9,1562.2,1268.6,1569.6,1305.9z" style="fill: rgb(36, 60, 76);"/>
			<path fill="#CCCCCC" d="M1585.1,1339.4C1585.1,1339.4,1585.1,1339.4,1585.1,1339.4C1585.1,1339.4,1585.1,1339.4,1585.1,1339.4&#10;&#9;&#9;&#9;&#9;C1585.1,1339.4,1585.1,1339.4,1585.1,1339.4z" style="fill: rgb(36, 60, 76);"/>
			<path fill="#CCCCCC" d="M1592.5,1359.1C1592.5,1359.1,1592.5,1359.1,1592.5,1359.1C1592.5,1359.1,1592.5,1359.1,1592.5,1359.1&#10;&#9;&#9;&#9;&#9;C1592.5,1359.1,1592.5,1359.1,1592.5,1359.1z" style="fill: rgb(36, 60, 76);"/>
			<path fill="#CCCCCC" d="M1592.5,1359.1C1592.5,1359.1,1592.5,1359.1,1592.5,1359.1C1592.5,1359.1,1592.5,1359.1,1592.5,1359.1&#10;&#9;&#9;&#9;&#9;c0,0-0.4-0.6,0.2-2.5c0.7-6.4,3.7-24.2,15-36.8c14-15.6,29.2-21,40.9-10.1C1619.3,1276.6,1586.3,1352,1592.5,1359.1z" style="fill: rgb(36, 60, 76);"/>
			<path fill="#CCCCCC" d="M1607.6,1325.4c-9.2,12-13,24-14.4,29.9c0.4-0.8,0.9-1.9,1.6-3.1c2.6-6,7.7-15.2,17.5-25.3&#10;&#9;&#9;&#9;&#9;c16.8-17.3,30.1-21,36.5-17c0,0-10.4-6.1-34.8,19.2c-11,11.4-16.4,18.6-19.1,23.1c-1.8,4.3-2.3,6.9-2.3,6.9h0h0c0,0,0,0,0,0&#10;&#9;&#9;&#9;&#9;c0.2-0.3,1.3-2.1,5.9-7.1c5.9-6.9,14.8-17.1,21.3-22.6c10.3-8.8,22.1-20.3,29.1-19.3c0,0-9.5,2-31.7,23.2&#10;&#9;&#9;&#9;&#9;c-9.2,8.8-15,14.8-18.6,18.7c-3.3,3.9-5.6,6.8-5.9,7.1c0,0,0,0,0.1,0c0.7-0.4,5-2.9,10.6-6.4c4.4-3,10.4-7.5,18.6-14&#10;&#9;&#9;&#9;&#9;c24.1-19.1,27-28.6,27-28.6c3.1,6.9-2.3,19.5-21.8,33.8c-11.3,8.3-21.2,12.1-27.4,13.9c-1.1,0.5-2.1,0.8-2.9,1.1&#10;&#9;&#9;&#9;&#9;c6.1-0.7,18.2-3,30.9-10.4c33.6-19.4,21.7-37.7,21.3-38.2c0,0-0.1-0.1-0.1-0.1c-0.1-0.1-0.1-0.2-0.2-0.2&#10;&#9;&#9;&#9;&#9;C1648,1309.2,1631.3,1294.8,1607.6,1325.4z" style="fill: rgb(36, 60, 76);"/>
			<path fill="#CCCCCC" d="M1599.6,1357.7c4.8-2,12.7-6.4,25.4-15.8c28.4-20.8,23.8-31.9,23.8-31.9c0.1,7.1-12.6,17.6-22.7,26.6&#10;&#9;&#9;&#9;&#9;c-5.6,5-15.3,11.4-22.9,16.1c-7.1,5-9.9,6.2-10.5,6.4C1593.4,1359,1595.8,1358.7,1599.6,1357.7z" style="fill: rgb(36, 60, 76);"/>
			<path fill="#CCCCCC" d="M1633.1,1349c-13.9,9.4-31.5,10.2-38,10.2c-1.7,0.3-2.4,0.1-2.5,0c0,0,0,0,0,0c6.2,7,84.5-16.6,56.4-49&#10;&#9;&#9;&#9;&#9;C1658.2,1323.2,1650.5,1337.2,1633.1,1349z" style="fill: rgb(36, 60, 76);"/>
			<path fill="#CCCCCC" d="M1575.2,1422.8C1575.2,1422.8,1575.2,1422.8,1575.2,1422.8C1575.3,1422.8,1575.3,1422.8,1575.2,1422.8&#10;&#9;&#9;&#9;&#9;L1575.2,1422.8L1575.2,1422.8c0,0,0.3-0.5,1.7-0.7c4.6-1.7,17.6-5.8,30-2.5c15.3,4.1,24.2,12.5,20.9,24.1c0,0,0,0,0,0&#10;&#9;&#9;&#9;&#9;C1640.1,1412.6,1577.9,1416.1,1575.2,1422.8z" style="fill: rgb(36, 60, 76);"/>
			<path fill="#CCCCCC" d="M1603.2,1421.4c-11.2-2.2-20.7-0.5-25.2,0.6c0.7,0,1.6,0,2.7,0c4.9-0.3,12.9,0,23.1,3.1&#10;&#9;&#9;&#9;&#9;c17.5,5.4,24.5,13.2,24,18.8c0,0,0.6-9.1-24.9-17c-11.5-3.5-18.2-4.8-22.1-5c-3.5,0.2-5.4,0.8-5.4,0.8l0,0c0,0,0,0,0,0&#10;&#9;&#9;&#9;&#9;c0.3,0,1.9,0.2,6.9,1.6c6.7,1.6,16.7,4.2,22.6,6.6c9.5,3.9,21.3,7.9,23,13c0,0-4.6-5.8-26.5-13.5c-9.1-3.2-15.1-5.1-19-6.2&#10;&#9;&#9;&#9;&#9;c-3.8-0.9-6.5-1.5-6.9-1.6c0,0,0,0,0,0c0.5,0.3,3.7,2.4,8,5c3.6,1.9,8.6,4.5,15.9,7.8c21.1,9.7,28.6,8.4,28.6,8.4&#10;&#9;&#9;&#9;&#9;c-3.6,4.4-14,5.1-30.3-3.1c-9.5-4.8-15.5-10.2-18.8-13.8c-0.7-0.6-1.3-1.1-1.7-1.6c2.6,3.9,8.3,11.2,17.6,17.3&#10;&#9;&#9;&#9;&#9;c24.1,15.8,32.5,2.3,33.1,1.3c0,0,0,0,0,0c0,0,0-0.1,0-0.1c0-0.1,0.1-0.1,0.1-0.2c0,0,0,0,0,0&#10;&#9;&#9;&#9;&#9;C1628.1,1442.6,1631.5,1426.8,1603.2,1421.4z" style="fill: rgb(36, 60, 76);"/>
			<path fill="#CCCCCC" d="M1575.3,1422.8C1575.2,1422.8,1575.2,1422.8,1575.3,1422.8C1575.2,1422.8,1575.2,1422.8,1575.3,1422.8&#10;&#9;&#9;&#9;&#9;C1575.3,1422.8,1575.3,1422.8,1575.3,1422.8z" style="fill: rgb(36, 60, 76);"/>
			<path fill="#CCCCCC" d="M1578.6,1427.1c3,2.5,8.7,6.3,19.4,11.8c23.8,12.1,29.7,5.1,29.7,5.1c-4.8,2.5-16.2-2.5-25.7-6.3&#10;&#9;&#9;&#9;&#9;c-5.3-2.1-12.9-6.5-18.7-9.9c-5.8-3.1-7.5-4.5-7.9-4.9C1575.6,1423.3,1576.6,1424.9,1578.6,1427.1z" style="fill: rgb(36, 60, 76);"/>
			<path fill="#CCCCCC" d="M1596,1446.8c-11.1-6.1-17.7-17.8-19.9-22.2c-0.8-1-0.8-1.6-0.8-1.7c0,0,0,0,0,0&#10;&#9;&#9;&#9;&#9;c-2.6,6.6,40.1,51.4,52.4,21.3c0,0,0,0,0,0C1621.9,1454.9,1609.9,1454.4,1596,1446.8z" style="fill: rgb(36, 60, 76);"/>
			<path fill="#CCCCCC" d="M1466.5,1366.2c7.4,3.1,12.4,9.9,14.1,12.6c0.6,0.6,0.6,0.9,0.6,1c0,0,0,0,0,0&#10;&#9;&#9;&#9;&#9;c1.2-4.3-28.9-29.4-34.5-9.7c0,0,0,0,0,0C1449.6,1362.9,1457.3,1362.3,1466.5,1366.2z" style="fill: rgb(36, 60, 76);"/>
			<path fill="#CCCCCC" d="M1478.8,1377.3c-2.1-1.4-5.9-3.4-13-6c-15.8-5.9-19-1.1-19-1.1c2.8-1.9,10.4,0.4,16.6,2.1&#10;&#9;&#9;&#9;&#9;c3.5,0.9,8.6,3.1,12.5,4.9c3.9,1.5,5.1,2.3,5.3,2.5C1481,1379.5,1480.3,1378.6,1478.8,1377.3z" style="fill: rgb(36, 60, 76);"/>
			<path fill="#CCCCCC" d="M1463.8,1382.6c7.2,0.6,13-1.1,15.8-2.1c-0.4,0.1-1,0.1-1.7,0.2c-3.1,0.5-8.1,0.9-14.7-0.3&#10;&#9;&#9;&#9;&#9;c-11.4-2.2-16.3-6.5-16.4-10.1c0,0,0.3,5.8,16.9,8.9c7.5,1.4,11.8,1.7,14.3,1.6c2.2-0.4,3.4-0.9,3.4-0.9l0,0c0,0,0,0,0,0&#10;&#9;&#9;&#9;&#9;c-0.2,0-1.2,0-4.4-0.5c-4.3-0.5-10.8-1.4-14.7-2.5c-6.2-1.8-14-3.5-15.4-6.6c0,0,3.3,3.3,17.6,6.6c5.9,1.4,9.9,2.1,12.4,2.5&#10;&#9;&#9;&#9;&#9;c2.4,0.3,4.2,0.5,4.4,0.5c0,0,0,0,0,0c-0.3-0.2-2.5-1.2-5.4-2.6c-2.4-0.9-5.7-2.2-10.5-3.8c-14-4.6-18.6-3.3-18.6-3.3&#10;&#9;&#9;&#9;&#9;c1.9-3.1,8.4-4.2,19.3-0.2c6.3,2.3,10.4,5.3,12.8,7.3c0.5,0.3,0.9,0.6,1.2,0.9c-1.9-2.3-6-6.5-12.3-9.6&#10;&#9;&#9;&#9;&#9;c-16.3-8.2-20.6,0.9-20.9,1.5c0,0,0,0,0,0c0,0,0,0.1,0,0.1c0,0.1,0,0.1,0,0.2c0,0,0,0,0,0&#10;&#9;&#9;&#9;&#9;C1446.6,1371.1,1445.6,1381.2,1463.8,1382.6z" style="fill: rgb(36, 60, 76);"/>
			<path fill="#CCCCCC" d="M1481.3,1379.8C1481.3,1379.8,1481.3,1379.8,1481.3,1379.8C1481.3,1379.8,1481.3,1379.8,1481.3,1379.8&#10;&#9;&#9;&#9;&#9;C1481.3,1379.8,1481.3,1379.8,1481.3,1379.8z" style="fill: rgb(36, 60, 76);"/>
			<path fill="#CCCCCC" d="M1481.3,1379.8C1481.3,1379.8,1481.3,1379.8,1481.3,1379.8C1481.3,1379.8,1481.3,1379.8,1481.3,1379.8&#10;&#9;&#9;&#9;&#9;c0,0-0.1,0.3-1,0.6c-2.8,1.4-10.7,4.9-18.7,3.7c-9.9-1.5-16.1-6.1-14.8-13.7c0,0,0,0,0,0&#10;&#9;&#9;&#9;&#9;C1441.2,1390.8,1480.1,1384.2,1481.3,1379.8z" style="fill: rgb(36, 60, 76);"/>
			<path fill="#CCCCCC" d="M1636.5,1362c1.4,3.3,4.4,8.7,10.9,17.5c14.3,19.5,21.9,16.3,21.9,16.3c-4.9,0-12.1-8.7-18.3-15.6&#10;&#9;&#9;&#9;&#9;c-3.4-3.9-7.8-10.5-11.1-15.7c-3.4-4.9-4.2-6.8-4.4-7.2C1635.6,1357.7,1635.8,1359.4,1636.5,1362z" style="fill: rgb(36, 60, 76);"/>
			<path fill="#CCCCCC" d="M1642.5,1385.1c-6.5-9.5-7-21.7-7-26.2c-0.2-1.2,0-1.6,0-1.7c0,0,0,0,0,0c-4.8,4.2,11.4,58.1,33.7,38.8&#10;&#9;&#9;&#9;&#9;c0,0,0,0,0,0C1660.2,1402.3,1650.6,1397,1642.5,1385.1z" style="fill: rgb(36, 60, 76);"/>
			<path fill="#CCCCCC" d="M1635.6,1357.2C1635.6,1357.2,1635.6,1357.2,1635.6,1357.2C1635.6,1357.2,1635.6,1357.1,1635.6,1357.2&#10;&#9;&#9;&#9;&#9;c0,0,0.4-0.3,1.7,0.1c4.4,0.5,16.6,2.5,25.3,10.3c10.7,9.6,14.5,20,7,28.1c0,0,0,0,0,0&#10;&#9;&#9;&#9;&#9;C1692.3,1375.5,1640.5,1352.9,1635.6,1357.2z" style="fill: rgb(36, 60, 76);"/>
			<path fill="#CCCCCC" d="M1658.8,1367.5c-8.2-6.4-16.5-8.9-20.6-9.9c0.6,0.3,1.3,0.6,2.1,1.1c4.1,1.8,10.5,5.3,17.4,12&#10;&#9;&#9;&#9;&#9;c11.9,11.6,14.4,20.7,11.7,25.1c0,0,4.2-7.1-13.2-23.9c-7.8-7.6-12.8-11.3-15.9-13.1c-2.9-1.3-4.7-1.6-4.7-1.6s0,0,0,0&#10;&#9;&#9;&#9;&#9;c0,0,0,0,0,0c0,0,0,0,0,0c0.2,0.1,1.4,0.9,4.9,4.1c4.8,4,11.8,10.2,15.6,14.6c6.1,7.1,14,15.2,13.3,20c0,0-1.4-6.6-16-21.8&#10;&#9;&#9;&#9;&#9;c-6.1-6.3-10.2-10.3-12.9-12.8c-2.7-2.3-4.6-3.9-4.9-4.1c0,0,0,0,0,0c0.3,0.5,2,3.5,4.4,7.3c2.1,3,5.2,7.2,9.6,12.8&#10;&#9;&#9;&#9;&#9;c13.1,16.5,19.7,18.5,19.7,18.5c-4.7,2.1-13.4-1.6-23.3-15c-5.7-7.8-8.4-14.6-9.5-18.9c-0.3-0.8-0.6-1.4-0.7-2&#10;&#9;&#9;&#9;&#9;c0.5,4.2,2.1,12.5,7.1,21.3c13.1,22.7,25.4,15.2,26.3,14.7c0,0,0,0,0,0c0,0,0.1,0,0.1-0.1c0.1,0,0.1-0.1,0.2-0.1c0,0,0,0,0,0&#10;&#9;&#9;&#9;&#9;C1670.2,1394.9,1679.4,1383.5,1658.8,1367.5z" style="fill: rgb(36, 60, 76);"/>
			<path fill="#CCCCCC" d="M1635.6,1357.2C1635.6,1357.2,1635.6,1357.2,1635.6,1357.2C1635.6,1357.2,1635.6,1357.2,1635.6,1357.2&#10;&#9;&#9;&#9;&#9;C1635.6,1357.2,1635.6,1357.2,1635.6,1357.2z" style="fill: rgb(36, 60, 76);"/>
			<path fill="#CCCCCC" d="M1560.9,1388.2c8.3,12.6,18.5,20.1,23.6,23.3c-0.7-0.6-1.5-1.5-2.4-2.5c-4.8-4.4-11.9-12.2-18.2-24.7&#10;&#9;&#9;&#9;&#9;c-10.9-21.6-10-35.3-4.2-40c0,0-9.1,7.8,6.8,39.2c7.2,14.1,12.2,21.6,15.6,25.6c3.4,3.1,5.7,4.5,5.7,4.5l0,0h0l0,0l0,0l0,0l0,0&#10;&#9;&#9;&#9;&#9;c0,0,0,0,0,0c-0.2-0.3-1.6-1.9-4.8-7.9c-4.6-7.8-11.4-19.6-14.5-27.5c-5-12.6-12-27.5-8.8-33.8c0,0-1.2,9.7,11.6,37.5&#10;&#9;&#9;&#9;&#9;c5.3,11.6,9.1,19,11.6,23.7c2.6,4.4,4.6,7.5,4.8,7.9c0,0,0,0,0,0c-0.2-0.8-1.1-5.7-2.6-12.1c-1.5-5.1-3.7-12.3-7.2-22.2&#10;&#9;&#9;&#9;&#9;c-10.2-29-18.3-34.8-18.3-34.8c7.5-0.7,17.7,8.5,24.9,31.6c4.2,13.4,4.6,24,4.2,30.4c0.1,1.2,0.1,2.2,0.1,3.1&#10;&#9;&#9;&#9;&#9;c1.3-6,3-18.2,0.2-32.6c-7.3-38.1-28.6-32.7-29.2-32.6c0,0-0.1,0-0.1,0.1c-0.1,0-0.2,0.1-0.3,0.1c0,0,0,0-0.1,0&#10;&#9;&#9;&#9;&#9;C1558.1,1345.2,1540,1356.5,1560.9,1388.2z" style="fill: rgb(36, 60, 76);"/>
			<path fill="#CCCCCC" d="M1587.9,1413.5L1587.9,1413.5c0,0-0.7,0.2-2.2-1c-5.8-2.8-21.7-11.3-29.9-26.2&#10;&#9;&#9;&#9;&#9;c-10.2-18.3-10.4-34.4,3.7-41.9c0,0,0,0,0.1,0C1518.6,1361.4,1579.1,1417.1,1587.9,1413.5&#10;&#9;&#9;&#9;&#9;C1587.9,1413.5,1587.9,1413.5,1587.9,1413.5C1587.9,1413.5,1587.9,1413.5,1587.9,1413.5z" style="fill: rgb(36, 60, 76);"/>
			<path fill="#CCCCCC" d="M1587.9,1413.5C1587.9,1413.5,1587.9,1413.5,1587.9,1413.5C1587.9,1413.5,1587.9,1413.5,1587.9,1413.5&#10;&#9;&#9;&#9;&#9;C1587.9,1413.5,1587.9,1413.5,1587.9,1413.5z" style="fill: rgb(36, 60, 76);"/>
			<path fill="#CCCCCC" d="M1591.5,1371.8c4.4,16.2-0.6,33.1-2.8,39.3c-0.2,1.7-0.7,2.3-0.9,2.4c0,0,0,0,0,0&#10;&#9;&#9;&#9;&#9;c8.7-3.5,11.8-85.3-28-69.3C1575.3,1339.7,1586,1351.5,1591.5,1371.8z" style="fill: rgb(36, 60, 76);"/>
			<path fill="#CCCCCC" d="M1588.8,1406.3c-0.4-5.2-2-14.1-6.7-29.2c-10.4-33.6-22.4-32.8-22.4-32.8c6.7,2.2,12.5,17.6,17.7,30.1&#10;&#9;&#9;&#9;&#9;c2.9,6.9,5.8,18.2,7.8,26.8c2.4,8.4,2.6,11.3,2.6,12C1588.1,1412.6,1588.6,1410.2,1588.8,1406.3z" style="fill: rgb(36, 60, 76);"/>
			<path fill="#CCCCCC" d="M1476.4,1318.3C1476.4,1318.3,1476.4,1318.3,1476.4,1318.3C1476.4,1318.3,1476.4,1318.3,1476.4,1318.3&#10;&#9;&#9;&#9;&#9;C1476.4,1318.3,1476.4,1318.3,1476.4,1318.3z" style="fill: rgb(36, 60, 76);"/>
			<path fill="#CCCCCC" d="M1476.4,1318.3c0,0,0.5-0.1,1.7,0.8c4.4,2.1,16.6,8.7,22.8,20c7.8,14,7.9,26.3-2.8,32c0,0,0,0,0,0&#10;&#9;&#9;&#9;&#9;C1529.3,1358.1,1483.1,1315.6,1476.4,1318.3C1476.4,1318.3,1476.4,1318.3,1476.4,1318.3&#10;&#9;&#9;&#9;&#9;C1476.4,1318.3,1476.4,1318.3,1476.4,1318.3z" style="fill: rgb(36, 60, 76);"/>
			<path fill="#CCCCCC" d="M1497,1337.6c-6.3-9.6-14.1-15.3-18-17.8c0.5,0.5,1.1,1.1,1.8,1.9c3.7,3.3,9.1,9.3,13.9,18.9&#10;&#9;&#9;&#9;&#9;c8.3,16.5,7.7,26.9,3.2,30.5c0,0,7-6-5.2-29.9c-5.5-10.8-9.3-16.5-11.9-19.5c-2.6-2.4-4.4-3.4-4.4-3.4l0,0c0,0,0,0,0,0&#10;&#9;&#9;&#9;&#9;c0.2,0.2,1.2,1.5,3.7,6.1c3.5,6,8.7,15,11.1,21c3.8,9.6,9.2,21,6.7,25.8c0,0,0.9-7.4-8.9-28.6c-4.1-8.8-6.9-14.5-8.9-18.1&#10;&#9;&#9;&#9;&#9;c-2-3.3-3.5-5.7-3.7-6.1c0,0,0,0,0,0c0.1,0.6,0.9,4.4,2,9.3c1.1,3.9,2.8,9.4,5.5,16.9c7.8,22.1,14,26.6,14,26.6&#10;&#9;&#9;&#9;&#9;c-5.7,0.5-13.5-6.5-19-24.1c-3.2-10.3-3.5-18.3-3.2-23.2c-0.1-0.9-0.1-1.7-0.1-2.3c-1,4.6-2.3,13.9-0.2,24.9&#10;&#9;&#9;&#9;&#9;c5.5,28.5,21.2,25.1,22.3,24.9c0,0,0,0,0.1,0c0,0,0.1,0,0.1,0c0.1,0,0.1-0.1,0.2-0.1c0,0,0,0,0,0&#10;&#9;&#9;&#9;&#9;C1499.2,1370.4,1512.9,1361.8,1497,1337.6z" style="fill: rgb(36, 60, 76);"/>
			<path fill="#CCCCCC" d="M1497.9,1371.1c-5.1-1.7-9.5-13.5-13.5-23c-2.2-5.3-4.4-13.9-5.9-20.5c-1.8-6.4-2-8.6-2-9.2&#10;&#9;&#9;&#9;&#9;c-0.1,0.5-0.5,2.3-0.7,5.3c0.3,4,1.5,10.7,5.1,22.3C1488.7,1371.7,1497.9,1371.1,1497.9,1371.1z" style="fill: rgb(36, 60, 76);"/>
			<path fill="#CCCCCC" d="M1497.8,1371.2C1497.8,1371.2,1497.7,1371.2,1497.8,1371.2c-11.8,3.4-19.9-5.6-24.1-21.1&#10;&#9;&#9;&#9;&#9;c-3.3-12.3,0.4-25.3,2.1-30c0.2-1.3,0.6-1.7,0.7-1.8c0,0,0,0,0,0C1469.8,1321,1467.4,1383.4,1497.8,1371.2z" style="fill: rgb(36, 60, 76);"/>
			<path fill="#CCCCCC" d="M1502.3,1424.9C1502.3,1424.9,1502.3,1424.9,1502.3,1424.9C1502.3,1424.9,1502.3,1424.9,1502.3,1424.9&#10;&#9;&#9;&#9;&#9;C1502.3,1424.9,1502.3,1424.9,1502.3,1424.9z" style="fill: rgb(36, 60, 76);"/>
			<path fill="#CCCCCC" d="M1567.8,1415.9c0.5,14.1-12,20.8-30.5,21.1c-14.8,0.3-28.3-7.6-33.1-10.8c-1.4-0.6-1.8-1.1-1.9-1.3&#10;&#9;&#9;&#9;&#9;c0,0,0,0,0,0C1503.5,1433.1,1572.9,1453.4,1567.8,1415.9C1567.8,1415.8,1567.8,1415.9,1567.8,1415.9z" style="fill: rgb(36, 60, 76);"/>
			<path fill="#CCCCCC" d="M1502.3,1424.9L1502.3,1424.9L1502.3,1424.9c0,0,0-0.6,1.3-1.7c3.6-4.4,14.4-16.2,28.9-20&#10;&#9;&#9;&#9;&#9;c17.9-4.8,31.7-1.5,35.2,12.2c0,0,0,0,0,0.1C1562,1376.7,1501.1,1416.6,1502.3,1424.9C1502.3,1424.9,1502.3,1424.9,1502.3,1424.9&#10;&#9;&#9;&#9;&#9;C1502.3,1424.9,1502.3,1424.9,1502.3,1424.9z" style="fill: rgb(36, 60, 76);"/>
			<path fill="#CCCCCC" d="M1529.8,1407.2c-12.6,4.4-21.2,11.5-25.1,15.3c0.7-0.5,1.6-1,2.7-1.5c4.8-3.2,13-7.6,25.2-10.3&#10;&#9;&#9;&#9;&#9;c20.8-4.7,32.4-1,35.2,5c0,0-4.7-9.5-35.1-2.6c-13.7,3.1-21.2,5.8-25.3,7.9c-3.4,2.3-5.1,3.9-5.1,3.9l0,0c0,0,0,0,0,0&#10;&#9;&#9;&#9;&#9;c0.3-0.1,2-0.9,7.9-2.4c7.7-2.3,19.3-5.5,26.7-6.5c11.9-1.6,26.2-4.4,30.9-0.3c0,0-8-3.1-34.7,1.9c-11.1,2.1-18.2,3.7-22.9,4.9&#10;&#9;&#9;&#9;&#9;c-4.3,1.3-7.4,2.3-7.8,2.4c0,0,0,0,0,0c0.7,0,5.2,0.3,11,0.4c4.7-0.1,11.3-0.5,20.6-1.4c27-2.5,33.8-8.2,33.8-8.2&#10;&#9;&#9;&#9;&#9;c-1,6.6-11.1,13.3-32.5,14.6c-12.4,0.7-21.6-1.2-27-3c-1.1-0.2-1.9-0.4-2.6-0.6c4.9,2.4,14.9,6.5,27.9,7.2&#10;&#9;&#9;&#9;&#9;c33.6,1.9,34.2-16.7,34.2-18c0,0,0,0,0-0.1c0,0,0-0.1,0-0.1c0-0.1,0-0.2,0-0.3c0,0,0,0,0-0.1&#10;&#9;&#9;&#9;&#9;C1567.4,1414,1561.6,1396.1,1529.8,1407.2z" style="fill: rgb(36, 60, 76);"/>
			<path fill="#CCCCCC" d="M1534.8,1427.8c31.1-1.7,33-12.2,33-12.2c-3.4,5.3-17.8,6.9-29.7,8.7c-6.6,1-16.9,1-24.7,0.9&#10;&#9;&#9;&#9;&#9;c-7.7,0.2-10.3-0.2-10.9-0.3c0.5,0.3,2.5,1.3,5.8,2.3C1512.8,1428.1,1520.8,1428.6,1534.8,1427.8z" style="fill: rgb(36, 60, 76);"/>
			<path fill="#CCCCCC" d="M1438.3,1469.1c0,0-0.2-0.4,0.2-1.5c0.8-4,3.4-15.1,11.2-22.5c9.5-9.1,19.3-11.9,26.2-4.5c0,0,0,0,0,0&#10;&#9;&#9;&#9;&#9;C1459,1418.4,1434.7,1464.3,1438.3,1469.1C1438.3,1469.1,1438.3,1469.1,1438.3,1469.1C1438.3,1469.1,1438.3,1469.1,1438.3,1469.1&#10;&#9;&#9;&#9;&#9;z" style="fill: rgb(36, 60, 76);"/>
			<path fill="#CCCCCC" d="M1449.4,1448.6c-6.4,7.1-9.3,14.5-10.4,18.2c0.3-0.5,0.6-1.1,1.2-1.9c1.9-3.6,5.5-9.2,12.2-15.1&#10;&#9;&#9;&#9;&#9;c11.4-10.1,19.9-11.8,23.8-9c0,0-6.2-4.3-22.8,10.5c-7.5,6.7-11.2,10.9-13.1,13.6c-1.4,2.6-1.8,4.2-1.8,4.2h0h0c0,0,0,0,0,0&#10;&#9;&#9;&#9;&#9;c0.1-0.2,0.9-1.3,4.1-4.2c4-4.1,10.2-10.1,14.4-13.3c6.9-5.1,14.8-11.8,19.2-10.8c0,0-6.1,0.8-21,13.1&#10;&#9;&#9;&#9;&#9;c-6.2,5.1-10.1,8.6-12.6,10.9c-2.3,2.3-3.8,4-4.1,4.2c0,0,0,0,0,0c0.4-0.2,3.3-1.6,7-3.5c2.9-1.7,6.9-4.2,12.4-7.9&#10;&#9;&#9;&#9;&#9;c16-10.9,18.3-16.8,18.3-16.8c1.6,4.5-2.4,12.2-15.3,20.3c-7.5,4.7-13.9,6.6-17.9,7.4c-0.7,0.2-1.3,0.4-1.9,0.5&#10;&#9;&#9;&#9;&#9;c3.9-0.2,11.6-1.1,19.9-5.1c21.7-10.4,15.7-22.2,15.2-23c0,0,0,0,0,0c0,0,0-0.1-0.1-0.1c0-0.1-0.1-0.1-0.1-0.2c0,0,0,0,0,0&#10;&#9;&#9;&#9;&#9;C1475.2,1439.9,1465.5,1430.7,1449.4,1448.6z" style="fill: rgb(36, 60, 76);"/>
			<path fill="#CCCCCC" d="M1476.2,1440.9c5.2,8.7-0.3,17.1-11.8,23.7c-9.2,5.3-20.3,5-24.4,4.6c-1.1,0.1-1.5-0.1-1.6-0.2&#10;&#9;&#9;&#9;&#9;c0,0,0,0,0,0C1441.9,1473.8,1492.3,1462.6,1476.2,1440.9C1476.2,1440.9,1476.2,1440.9,1476.2,1440.9z" style="fill: rgb(36, 60, 76);"/>
			<path fill="#CCCCCC" d="M1476.1,1440.8c-0.3,4.5-8.8,10.5-15.6,15.6c-3.8,2.9-10.2,6.4-15.1,9.1c-4.7,2.8-6.5,3.4-6.9,3.5&#10;&#9;&#9;&#9;&#9;c0.4,0,2-0.1,4.4-0.5c3.1-1.1,8.3-3.5,16.8-8.8C1478.5,1448,1476.1,1440.8,1476.1,1440.8z" style="fill: rgb(36, 60, 76);"/>
			<path fill="#CCCCCC" d="M1438.3,1469.1C1438.3,1469.1,1438.3,1469.1,1438.3,1469.1C1438.3,1469.1,1438.3,1469.1,1438.3,1469.1&#10;&#9;&#9;&#9;&#9;C1438.3,1469.1,1438.3,1469.1,1438.3,1469.1z" style="fill: rgb(36, 60, 76);"/>
		</g></g></svg>