<?xml version="1.0" encoding="utf-8"?>
<svg id="master-artboard" viewBox="0 0 579.5485229492188 214.79898071289062" version="1.1" xmlns="http://www.w3.org/2000/svg" x="0px" y="0px" style="enable-background:new 0 0 336 235.2;" width="579.5485229492188px" height="214.79898071289062px"><defs><style id="ee-google-fonts">@import url(https://fonts.googleapis.com/css?family=Alfa+Slab+One:400);</style></defs><rect id="ee-background" x="0" y="0" width="579.5485229492188" height="214.79898071289062" style="fill: white; fill-opacity: 0; pointer-events: none;"/><g transform="matrix(0.618439318170789, 0, 0, 0.618439318170789, -405.4162945569151, -284.05006047029957)"><g transform="matrix(1, 0, 0, 1, 0, 0)">
		<g>
			<g>
				<path d="M 686.400024 555.599976 H 977.500031 V 762.999969 H 686.400024 V 555.599976 Z" class="st9" style="fill: rgb(241, 241, 241); stroke: rgb(36, 60, 76);"/>
			</g>
			<g>
				<path class="st10" d="M979.5,764.9H684.4V553.6h295.1V764.9z M688.4,760.9h287.1V557.5H688.4V760.9z" style="fill: rgb(241, 241, 241); stroke: rgb(36, 60, 76);"/>
			</g>
		</g>
		<g>
			<g>
				<path d="M 672 541.099976 H 992 V 555.599976 H 672 V 541.099976 Z" class="st14" style="fill: rgb(241, 241, 241); stroke: rgb(36, 60, 76);"/>
			</g>
			<g>
				<path class="st15" d="M993.9,557.5H670v-18.4h324V557.5z M674,553.6h316v-10.5H674V553.6z" style="fill: rgb(241, 241, 241); stroke: rgb(36, 60, 76);"/>
			</g>
		</g>
		<g>
			<g>
				<g>
					<path d="M 725.099976 471.899994 H 949.199982 V 522.299995 H 725.099976 V 471.899994 Z" class="st16" style="fill: rgb(241, 241, 241); stroke: rgb(36, 60, 76);"/>
				</g>
				<g>
					<path class="st17" d="M951.2,524.3H723.1v-54.4h228.1V524.3z M727.1,520.3h220.1v-46.4H727.1V520.3z" style="fill: rgb(241, 241, 241); stroke: rgb(36, 60, 76);"/>
				<path d="M 745.4182739257812 471.65997314453125 L 745.4182739257812 475.5899658203125 L 744.3382568359375 475.5899658203125 L 745.208251953125 480.53997802734375 L 745.4482421875 480.53997802734375 L 747.2982788085938 471.65997314453125 L 751.9482421875 471.65997314453125 L 753.8982543945312 480.53997802734375 L 754.1382446289062 480.53997802734375 L 754.9282836914062 475.5899658203125 L 753.8182373046875 475.5899658203125 L 753.8182373046875 471.65997314453125 L 760.8982543945312 471.65997314453125 L 760.8982543945312 475.5899658203125 L 759.8682861328125 475.5899658203125 L 757.5382690429688 484.9999694824219 L 750.3882446289062 484.9999694824219 L 749.5282592773438 480.969970703125 L 749.2882690429688 480.969970703125 L 748.46826171875 484.9999694824219 L 741.3882446289062 484.9999694824219 L 738.938232421875 475.5899658203125 L 737.938232421875 475.5899658203125 L 737.938232421875 471.65997314453125 L 745.4182739257812 471.65997314453125 ZM 768.5763549804688 471.65997314453125 L 768.5763549804688 475.5899658203125 L 767.496337890625 475.5899658203125 L 768.3663330078125 480.53997802734375 L 768.6063232421875 480.53997802734375 L 770.4563598632812 471.65997314453125 L 775.1063232421875 471.65997314453125 L 777.0563354492188 480.53997802734375 L 777.2963256835938 480.53997802734375 L 778.0863647460938 475.5899658203125 L 776.976318359375 475.5899658203125 L 776.976318359375 471.65997314453125 L 784.0563354492188 471.65997314453125 L 784.0563354492188 475.5899658203125 L 783.0263671875 475.5899658203125 L 780.6963500976562 484.9999694824219 L 773.5463256835938 484.9999694824219 L 772.6863403320312 480.969970703125 L 772.4463500976562 480.969970703125 L 771.6263427734375 484.9999694824219 L 764.5463256835938 484.9999694824219 L 762.0963134765625 475.5899658203125 L 761.0963134765625 475.5899658203125 L 761.0963134765625 471.65997314453125 L 768.5763549804688 471.65997314453125 ZM 791.7344360351562 471.65997314453125 L 791.7344360351562 475.5899658203125 L 790.6544189453125 475.5899658203125 L 791.5244140625 480.53997802734375 L 791.764404296875 480.53997802734375 L 793.6144409179688 471.65997314453125 L 798.264404296875 471.65997314453125 L 800.2144165039062 480.53997802734375 L 800.4544067382812 480.53997802734375 L 801.2444458007812 475.5899658203125 L 800.1343994140625 475.5899658203125 L 800.1343994140625 471.65997314453125 L 807.2144165039062 471.65997314453125 L 807.2144165039062 475.5899658203125 L 806.1844482421875 475.5899658203125 L 803.8544311523438 484.9999694824219 L 796.7044067382812 484.9999694824219 L 795.8444213867188 480.969970703125 L 795.6044311523438 480.969970703125 L 794.784423828125 484.9999694824219 L 787.7044067382812 484.9999694824219 L 785.25439453125 475.5899658203125 L 784.25439453125 475.5899658203125 L 784.25439453125 471.65997314453125 L 791.7344360351562 471.65997314453125 ZM 808.2725219726562 481.0599670410156 L 812.0125122070312 481.0599670410156 L 812.0125122070312 484.9999694824219 L 808.2725219726562 484.9999694824219 L 808.2725219726562 481.0599670410156 ZM 822.0980834960938 471.65997314453125 L 828.6680908203125 471.65997314453125 L 828.6680908203125 475.5899658203125 L 827.6181030273438 475.5899658203125 L 827.6181030273438 484.03997802734375 C 827.6181030273438 485.22662353515625 827.4680786132812 486.2399597167969 827.1680908203125 487.0799560546875 C 826.874755859375 487.91998291015625 826.431396484375 488.6033020019531 825.8380737304688 489.1299743652344 C 825.2447509765625 489.6566467285156 824.51806640625 490.0433044433594 823.6580810546875 490.28997802734375 C 822.7914428710938 490.53662109375 821.798095703125 490.65997314453125 820.6781005859375 490.65997314453125 C 819.624755859375 490.65997314453125 818.5547485351562 490.5799560546875 817.4680786132812 490.41998291015625 C 816.374755859375 490.2599792480469 815.5347290039062 490.0766296386719 814.9481201171875 489.8699645996094 L 814.9481201171875 485.9399719238281 C 815.61474609375 486.066650390625 816.3447875976562 486.1733093261719 817.1380615234375 486.2599792480469 C 817.931396484375 486.3466491699219 818.721435546875 486.3899841308594 819.5081176757812 486.3899841308594 C 820.4481201171875 486.3899841308594 821.11474609375 486.2433166503906 821.5081176757812 485.9499816894531 C 821.9014282226562 485.64996337890625 822.0980834960938 485.13330078125 822.0980834960938 484.39996337890625 L 822.0980834960938 483.3699645996094 C 821.951416015625 483.56329345703125 821.7581176757812 483.7733154296875 821.51806640625 483.9999694824219 C 821.278076171875 484.2333068847656 821.0014038085938 484.4466247558594 820.6881103515625 484.6399841308594 C 820.3814086914062 484.83331298828125 820.0314331054688 484.99664306640625 819.6380615234375 485.1299743652344 C 819.2447509765625 485.26995849609375 818.8247680664062 485.3399658203125 818.3781127929688 485.3399658203125 C 816.71142578125 485.3399658203125 815.4747314453125 484.72662353515625 814.6680908203125 483.4999694824219 C 813.8614501953125 482.2733154296875 813.4580688476562 480.5499572753906 813.4580688476562 478.3299560546875 C 813.4580688476562 476.1033020019531 813.8614501953125 474.3799743652344 814.6680908203125 473.15997314453125 C 815.4747314453125 471.93328857421875 816.71142578125 471.3199768066406 818.3781127929688 471.3199768066406 C 818.8247680664062 471.3199768066406 819.2447509765625 471.3866271972656 819.6380615234375 471.51995849609375 C 820.0314331054688 471.65997314453125 820.3814086914062 471.8266296386719 820.6881103515625 472.01995849609375 C 821.0014038085938 472.2066345214844 821.278076171875 472.4166259765625 821.51806640625 472.64996337890625 C 821.7581176757812 472.88330078125 821.951416015625 473.0966491699219 822.0980834960938 473.28997802734375 L 822.0980834960938 471.65997314453125 M 819.30810546875 479.52996826171875 C 819.30810546875 480.0699768066406 819.4247436523438 480.4599609375 819.6580810546875 480.6999816894531 C 819.8914184570312 480.9399719238281 820.2413940429688 481.0599670410156 820.7080688476562 481.0599670410156 C 821.1680908203125 481.0599670410156 821.5147705078125 480.9399719238281 821.7481079101562 480.6999816894531 C 821.9814453125 480.4599609375 822.0980834960938 480.0699768066406 822.0980834960938 479.52996826171875 L 822.0980834960938 477.1299743652344 C 822.0980834960938 476.58331298828125 821.9814453125 476.1899719238281 821.7481079101562 475.9499816894531 C 821.5147705078125 475.7099609375 821.1680908203125 475.5899658203125 820.7080688476562 475.5899658203125 C 820.2413940429688 475.5899658203125 819.8914184570312 475.7099609375 819.6580810546875 475.9499816894531 C 819.4247436523438 476.1899719238281 819.30810546875 476.58331298828125 819.30810546875 477.1299743652344 L 819.30810546875 479.52996826171875 ZM 829.3399047851562 471.65997314453125 L 835.919921875 471.65997314453125 L 835.919921875 473.2399597167969 L 836.159912109375 473.3099670410156 C 836.2732543945312 473.0899658203125 836.4165649414062 472.8599548339844 836.5899047851562 472.6199645996094 C 836.7632446289062 472.3799743652344 836.9799194335938 472.1632995605469 837.2399291992188 471.969970703125 C 837.4932250976562 471.7766418457031 837.7832641601562 471.6199645996094 838.1099243164062 471.4999694824219 C 838.4432373046875 471.3799743652344 838.8165893554688 471.3199768066406 839.2299194335938 471.3199768066406 C 839.563232421875 471.3199768066406 839.889892578125 471.3432922363281 840.2098999023438 471.3899841308594 C 840.5299072265625 471.4366455078125 840.8499145507812 471.5266418457031 841.169921875 471.65997314453125 L 841.169921875 475.8099670410156 C 840.6432495117188 475.7099609375 840.1998901367188 475.64996337890625 839.8399047851562 475.6299743652344 C 839.4799194335938 475.6033020019531 839.179931640625 475.5899658203125 838.93994140625 475.5899658203125 C 837.8865966796875 475.5899658203125 837.1199340820312 475.8266296386719 836.639892578125 476.2999572753906 C 836.159912109375 476.7733154296875 835.919921875 477.5866394042969 835.919921875 478.7399597167969 L 835.919921875 481.0599670410156 L 838.0999145507812 481.0599670410156 L 838.0999145507812 484.9999694824219 L 829.3399047851562 484.9999694824219 L 829.3399047851562 481.0599670410156 L 830.39990234375 481.0599670410156 L 830.39990234375 475.5899658203125 L 829.3399047851562 475.5899658203125 L 829.3399047851562 471.65997314453125 ZM 847.0343627929688 475.5899658203125 L 844.8944091796875 475.5899658203125 L 844.8944091796875 476.4599609375 L 841.3143920898438 476.4599609375 L 841.3143920898438 471.65997314453125 L 853.9143676757812 471.65997314453125 L 853.9143676757812 475.0899658203125 L 848.2044067382812 481.0599670410156 L 850.514404296875 481.0599670410156 L 850.514404296875 479.719970703125 L 854.1343994140625 479.719970703125 L 854.1343994140625 484.9999694824219 L 841.1743774414062 484.9999694824219 L 841.1743774414062 481.41998291015625 L 847.0343627929688 475.5899658203125 ZM 860.9490966796875 479.52996826171875 C 860.9490966796875 480.0699768066406 861.0657958984375 480.4599609375 861.299072265625 480.6999816894531 C 861.5324096679688 480.9399719238281 861.8824462890625 481.0599670410156 862.34912109375 481.0599670410156 C 862.80908203125 481.0599670410156 863.15576171875 480.9399719238281 863.3890991210938 480.6999816894531 C 863.6224365234375 480.4599609375 863.7390747070312 480.0699768066406 863.7390747070312 479.52996826171875 L 863.7390747070312 475.5899658203125 L 862.4390869140625 475.5899658203125 L 862.4390869140625 471.65997314453125 L 869.2590942382812 471.65997314453125 L 869.2590942382812 483.65997314453125 C 869.2590942382812 486.0599670410156 868.65576171875 487.8266296386719 867.4490966796875 488.9599609375 C 866.2357788085938 490.0932922363281 864.4290771484375 490.65997314453125 862.0291137695312 490.65997314453125 C 860.8824462890625 490.65997314453125 859.7691040039062 490.5866394042969 858.6890869140625 490.4399719238281 C 857.609130859375 490.28662109375 856.6924438476562 490.0966491699219 855.9390869140625 489.8699645996094 L 855.9390869140625 485.9399719238281 C 856.819091796875 486.0999755859375 857.65576171875 486.21331787109375 858.4490966796875 486.27996826171875 C 859.2357788085938 486.3533020019531 860.1357421875 486.3899841308594 861.1491088867188 486.3899841308594 C 862.0090942382812 486.3899841308594 862.65576171875 486.2599792480469 863.089111328125 485.9999694824219 C 863.5224609375 485.7333068847656 863.7390747070312 485.19329833984375 863.7390747070312 484.3799743652344 L 863.7390747070312 483.3699645996094 C 863.5457763671875 483.5766296386719 863.3257446289062 483.7933044433594 863.0791015625 484.01995849609375 C 862.8324584960938 484.2399597167969 862.549072265625 484.4466247558594 862.2291259765625 484.6399841308594 C 861.9091186523438 484.83331298828125 861.5391235351562 484.99664306640625 861.1190795898438 485.1299743652344 C 860.7057495117188 485.26995849609375 860.2257690429688 485.3399658203125 859.6790771484375 485.3399658203125 C 858.3657836914062 485.3399658203125 857.3291015625 484.8699645996094 856.569091796875 483.9299621582031 C 855.80908203125 482.99664306640625 855.4290771484375 481.52996826171875 855.4290771484375 479.52996826171875 L 855.4290771484375 475.5899658203125 L 854.3790893554688 475.5899658203125 L 854.3790893554688 471.65997314453125 L 860.9490966796875 471.65997314453125 L 860.9490966796875 479.52996826171875 ZM 876.8905029296875 473.28997802734375 C 877.030517578125 473.0966491699219 877.2171630859375 472.88330078125 877.4505004882812 472.64996337890625 C 877.683837890625 472.4166259765625 877.9605102539062 472.2066345214844 878.280517578125 472.01995849609375 C 878.6004638671875 471.8266296386719 878.953857421875 471.65997314453125 879.3405151367188 471.51995849609375 C 879.7205200195312 471.3866271972656 880.143798828125 471.3199768066406 880.6104736328125 471.3199768066406 C 882.2705078125 471.3199768066406 883.5071411132812 471.93328857421875 884.3204956054688 473.15997314453125 C 885.1271362304688 474.3799743652344 885.530517578125 476.1033020019531 885.530517578125 478.3299560546875 C 885.530517578125 480.5499572753906 885.1271362304688 482.2733154296875 884.3204956054688 483.4999694824219 C 883.5071411132812 484.72662353515625 882.2705078125 485.3399658203125 880.6104736328125 485.3399658203125 C 880.143798828125 485.3399658203125 879.7205200195312 485.26995849609375 879.3405151367188 485.1299743652344 C 878.953857421875 484.99664306640625 878.6004638671875 484.83331298828125 878.280517578125 484.6399841308594 C 877.9605102539062 484.4466247558594 877.683837890625 484.2333068847656 877.4505004882812 483.9999694824219 C 877.2171630859375 483.7733154296875 877.030517578125 483.56329345703125 876.8905029296875 483.3699645996094 L 876.8905029296875 484.9999694824219 L 870.3104858398438 484.9999694824219 L 870.3104858398438 481.0599670410156 L 871.3704833984375 481.0599670410156 L 871.3704833984375 470.2599792480469 L 870.3104858398438 470.2599792480469 L 870.3104858398438 466.3299560546875 L 876.8905029296875 466.3299560546875 L 876.8905029296875 473.28997802734375 M 879.6704711914062 477.1299743652344 C 879.6704711914062 476.58331298828125 879.5538330078125 476.1899719238281 879.3204956054688 475.9499816894531 C 879.0938110351562 475.7099609375 878.7471313476562 475.5899658203125 878.280517578125 475.5899658203125 C 877.8138427734375 475.5899658203125 877.4671630859375 475.7099609375 877.240478515625 475.9499816894531 C 877.0071411132812 476.1899719238281 876.8905029296875 476.58331298828125 876.8905029296875 477.1299743652344 L 876.8905029296875 479.52996826171875 C 876.8905029296875 480.0699768066406 877.0071411132812 480.4599609375 877.240478515625 480.6999816894531 C 877.4671630859375 480.9399719238281 877.8138427734375 481.0599670410156 878.280517578125 481.0599670410156 C 878.7471313476562 481.0599670410156 879.0938110351562 480.9399719238281 879.3204956054688 480.6999816894531 C 879.5538330078125 480.4599609375 879.6704711914062 480.0699768066406 879.6704711914062 479.52996826171875 L 879.6704711914062 477.1299743652344 ZM 900.5028076171875 478.3299560546875 C 900.5028076171875 479.5099792480469 900.3328247070312 480.53662109375 899.9927978515625 481.40997314453125 C 899.6594848632812 482.2832946777344 899.1761474609375 483.0133056640625 898.5427856445312 483.5999755859375 C 897.9094848632812 484.1799621582031 897.1461181640625 484.6133117675781 896.2528076171875 484.89996337890625 C 895.3594970703125 485.19329833984375 894.3594970703125 485.3399658203125 893.2528076171875 485.3399658203125 C 892.1461181640625 485.3399658203125 891.1461181640625 485.19329833984375 890.2528076171875 484.89996337890625 C 889.3594970703125 484.6133117675781 888.5961303710938 484.1799621582031 887.9628295898438 483.5999755859375 C 887.3294677734375 483.0133056640625 886.8461303710938 482.2832946777344 886.5128173828125 481.40997314453125 C 886.1727905273438 480.53662109375 886.0028076171875 479.5099792480469 886.0028076171875 478.3299560546875 C 886.0028076171875 477.1632995605469 886.1727905273438 476.1399841308594 886.5128173828125 475.2599792480469 C 886.8461303710938 474.3799743652344 887.3294677734375 473.6466369628906 887.9628295898438 473.0599670410156 C 888.5961303710938 472.4732971191406 889.3594970703125 472.03662109375 890.2528076171875 471.7499694824219 C 891.1461181640625 471.46331787109375 892.1461181640625 471.3199768066406 893.2528076171875 471.3199768066406 C 894.3594970703125 471.3199768066406 895.3594970703125 471.46331787109375 896.2528076171875 471.7499694824219 C 897.1461181640625 472.03662109375 897.9094848632812 472.4732971191406 898.5427856445312 473.0599670410156 C 899.1761474609375 473.6466369628906 899.6594848632812 474.3799743652344 899.9927978515625 475.2599792480469 C 900.3328247070312 476.1399841308594 900.5028076171875 477.1632995605469 900.5028076171875 478.3299560546875 M 893.2528076171875 481.0599670410156 C 893.719482421875 481.0599670410156 894.066162109375 480.9399719238281 894.2927856445312 480.6999816894531 C 894.526123046875 480.4599609375 894.642822265625 480.0699768066406 894.642822265625 479.52996826171875 L 894.642822265625 477.1299743652344 C 894.642822265625 476.58331298828125 894.526123046875 476.1899719238281 894.2927856445312 475.9499816894531 C 894.066162109375 475.7099609375 893.719482421875 475.5899658203125 893.2528076171875 475.5899658203125 C 892.7861328125 475.5899658203125 892.439453125 475.7099609375 892.2128295898438 475.9499816894531 C 891.9794921875 476.1899719238281 891.86279296875 476.58331298828125 891.86279296875 477.1299743652344 L 891.86279296875 479.52996826171875 C 891.86279296875 480.0699768066406 891.9794921875 480.4599609375 892.2128295898438 480.6999816894531 C 892.439453125 480.9399719238281 892.7861328125 481.0599670410156 893.2528076171875 481.0599670410156 ZM 901.1243896484375 466.3299560546875 L 907.7044067382812 466.3299560546875 L 907.7044067382812 481.0599670410156 L 908.75439453125 481.0599670410156 L 908.75439453125 484.9999694824219 L 901.1243896484375 484.9999694824219 L 901.1243896484375 481.0599670410156 L 902.1843872070312 481.0599670410156 L 902.1843872070312 470.2599792480469 L 901.1243896484375 470.2599792480469 L 901.1243896484375 466.3299560546875 ZM 916.4415893554688 471.3199768066406 C 917.6749267578125 471.3199768066406 918.6982421875 471.4999694824219 919.5115966796875 471.8599548339844 C 920.3316040039062 472.219970703125 920.98828125 472.6866455078125 921.4815673828125 473.2599792480469 C 921.9749145507812 473.8399658203125 922.3215942382812 474.49664306640625 922.5216064453125 475.22998046875 C 922.7215576171875 475.969970703125 922.8215942382812 476.71331787109375 922.8215942382812 477.4599609375 L 922.8215942382812 479.1899719238281 L 915.0515747070312 479.1899719238281 L 915.0515747070312 479.3399658203125 C 915.0515747070312 479.9132995605469 915.2149047851562 480.3432922363281 915.5415649414062 480.6299743652344 C 915.8682250976562 480.9166259765625 916.4649047851562 481.0599670410156 917.3316040039062 481.0599670410156 C 918.3849487304688 481.0599670410156 919.3515625 480.97998046875 920.2315673828125 480.8199768066406 C 921.111572265625 480.65997314453125 921.8416137695312 480.48663330078125 922.4215698242188 480.2999572753906 L 922.4215698242188 484.1399841308594 C 922.1282348632812 484.27996826171875 921.794921875 484.41998291015625 921.4215698242188 484.5599670410156 C 921.0482788085938 484.69329833984375 920.62158203125 484.8199768066406 920.1416015625 484.9399719238281 C 919.6615600585938 485.0599670410156 919.1149291992188 485.1566467285156 918.5015869140625 485.22998046875 C 917.8948974609375 485.3033142089844 917.208251953125 485.3399658203125 916.4415893554688 485.3399658203125 C 915.3348999023438 485.3399658203125 914.3348999023438 485.19329833984375 913.4415893554688 484.89996337890625 C 912.5482788085938 484.6133117675781 911.784912109375 484.1799621582031 911.151611328125 483.5999755859375 C 910.5182495117188 483.0133056640625 910.034912109375 482.2832946777344 909.7015991210938 481.40997314453125 C 909.361572265625 480.53662109375 909.1915893554688 479.5099792480469 909.1915893554688 478.3299560546875 C 909.1915893554688 477.1632995605469 909.361572265625 476.1399841308594 909.7015991210938 475.2599792480469 C 910.034912109375 474.3799743652344 910.5182495117188 473.6466369628906 911.151611328125 473.0599670410156 C 911.784912109375 472.4732971191406 912.5482788085938 472.03662109375 913.4415893554688 471.7499694824219 C 914.3348999023438 471.46331787109375 915.3348999023438 471.3199768066406 916.4415893554688 471.3199768066406 M 916.4415893554688 475.5899658203125 C 915.9749145507812 475.5899658203125 915.6282348632812 475.7099609375 915.401611328125 475.9499816894531 C 915.1682739257812 476.1899719238281 915.0515747070312 476.58331298828125 915.0515747070312 477.1299743652344 L 915.0515747070312 477.26995849609375 L 917.8316040039062 477.26995849609375 L 917.8316040039062 477.1299743652344 C 917.8316040039062 476.58331298828125 917.7149047851562 476.1899719238281 917.4815673828125 475.9499816894531 C 917.2549438476562 475.7099609375 916.9082641601562 475.5899658203125 916.4415893554688 475.5899658203125 ZM 924.0690307617188 481.0599670410156 L 927.8090209960938 481.0599670410156 L 927.8090209960938 484.9999694824219 L 924.0690307617188 484.9999694824219 L 924.0690307617188 481.0599670410156 ZM 937.2946166992188 490.3299560546875 L 929.0645751953125 490.3299560546875 L 929.0645751953125 486.3899841308594 L 930.1146240234375 486.3899841308594 L 930.1146240234375 475.5899658203125 L 929.0645751953125 475.5899658203125 L 929.0645751953125 471.65997314453125 L 935.6345825195312 471.65997314453125 L 935.6345825195312 473.28997802734375 C 935.78125 473.0966491699219 935.9712524414062 472.88330078125 936.20458984375 472.64996337890625 C 936.4312744140625 472.4166259765625 936.70458984375 472.2066345214844 937.0245971679688 472.01995849609375 C 937.3446044921875 471.8266296386719 937.6979370117188 471.65997314453125 938.0845947265625 471.51995849609375 C 938.4712524414062 471.3866271972656 938.8945922851562 471.3199768066406 939.3546142578125 471.3199768066406 C 941.021240234375 471.3199768066406 942.2579345703125 471.93328857421875 943.0645751953125 473.15997314453125 C 943.8712768554688 474.3799743652344 944.2745971679688 476.1033020019531 944.2745971679688 478.3299560546875 C 944.2745971679688 480.5499572753906 943.8712768554688 482.2733154296875 943.0645751953125 483.4999694824219 C 942.2579345703125 484.72662353515625 941.021240234375 485.3399658203125 939.3546142578125 485.3399658203125 C 938.8945922851562 485.3399658203125 938.4712524414062 485.26995849609375 938.0845947265625 485.1299743652344 C 937.6979370117188 484.99664306640625 937.3446044921875 484.83331298828125 937.0245971679688 484.6399841308594 C 936.70458984375 484.4466247558594 936.4312744140625 484.2333068847656 936.20458984375 483.9999694824219 C 935.9712524414062 483.7733154296875 935.78125 483.56329345703125 935.6345825195312 483.3699645996094 L 935.6345825195312 486.3899841308594 L 937.2946166992188 486.3899841308594 L 937.2946166992188 490.3299560546875 M 938.4246215820312 477.1299743652344 C 938.4246215820312 476.58331298828125 938.3079223632812 476.1899719238281 938.0745849609375 475.9499816894531 C 937.8412475585938 475.7099609375 937.4912719726562 475.5899658203125 937.0245971679688 475.5899658203125 C 936.5645751953125 475.5899658203125 936.2179565429688 475.7099609375 935.984619140625 475.9499816894531 C 935.7512817382812 476.1899719238281 935.6345825195312 476.58331298828125 935.6345825195312 477.1299743652344 L 935.6345825195312 479.52996826171875 C 935.6345825195312 480.0699768066406 935.7512817382812 480.4599609375 935.984619140625 480.6999816894531 C 936.2179565429688 480.9399719238281 936.5645751953125 481.0599670410156 937.0245971679688 481.0599670410156 C 937.4912719726562 481.0599670410156 937.8412475585938 480.9399719238281 938.0745849609375 480.6999816894531 C 938.3079223632812 480.4599609375 938.4246215820312 480.0699768066406 938.4246215820312 479.52996826171875 L 938.4246215820312 477.1299743652344 ZM 944.632568359375 466.3299560546875 L 951.2125854492188 466.3299560546875 L 951.2125854492188 481.0599670410156 L 952.2625732421875 481.0599670410156 L 952.2625732421875 484.9999694824219 L 944.632568359375 484.9999694824219 L 944.632568359375 481.0599670410156 L 945.6925659179688 481.0599670410156 L 945.6925659179688 470.2599792480469 L 944.632568359375 470.2599792480469 L 944.632568359375 466.3299560546875 Z" transform="matrix(0.9509974718093872, 0, 0, 0.9509974718093872, 32.36011505126953, 42.97177505493164)" style="fill: rgb(36, 60, 76); white-space: pre; color: rgb(36, 60, 76);"/></g>
			</g>
			<g>
				<path d="M 748.299988 522.299988 H 754.899988 V 541.099987 H 748.299988 V 522.299988 Z" class="st9" style="fill: rgb(241, 241, 241); stroke: rgb(36, 60, 76);"/>
			</g>
			<g>
				<path d="M 919.400024 522.299988 H 926.000024 V 541.099987 H 919.400024 V 522.299988 Z" class="st9" style="fill: rgb(241, 241, 241); stroke: rgb(36, 60, 76);"/>
			</g>
		</g>
		<g>
			<g>
				<g>
					<g>
						<path d="M 698.799988 565.400024 H 759.599987 V 650.200027 H 698.799988 V 565.400024 Z" class="st3" style="fill: rgb(241, 241, 241); stroke: rgb(36, 60, 76);"/>
					</g>
					<g>
						<path class="st4" d="M760.6,651.2h-62.8v-86.8h62.8V651.2z M699.8,649.2h58.8v-82.8h-58.8V649.2z" style="fill: rgb(241, 241, 241); stroke: rgb(36, 60, 76);"/>
					</g>
				</g>
				<g>
					<path d="M 727.5 565.400024 H 730.9 V 650.200027 H 727.5 V 565.400024 Z" class="st9" style="fill: rgb(241, 241, 241); stroke: rgb(36, 60, 76);"/>
				</g>
				<g>
					<path d="M 698.799988 606.099976 H 759.599987 V 609.499976 H 698.799988 V 606.099976 Z" class="st9" style="fill: rgb(241, 241, 241); stroke: rgb(36, 60, 76);"/>
				</g>
			</g>
			<g>
				<g>
					<g>
						<path d="M 767.299988 565.400024 H 828.099987 V 650.200027 H 767.299988 V 565.400024 Z" class="st3" style="fill: rgb(241, 241, 241); stroke: rgb(36, 60, 76);"/>
					</g>
					<g>
						<path class="st4" d="M829.1,651.2h-62.8v-86.8h62.8V651.2z M768.3,649.2h58.8v-82.8h-58.8V649.2z" style="fill: rgb(241, 241, 241); stroke: rgb(36, 60, 76);"/>
					</g>
				</g>
				<g>
					<path d="M 796 565.400024 H 799.4 V 650.200027 H 796 V 565.400024 Z" class="st9" style="fill: rgb(241, 241, 241); stroke: rgb(36, 60, 76);"/>
				</g>
				<g>
					<path d="M 767.299988 606.099976 H 828.099987 V 609.499976 H 767.299988 V 606.099976 Z" class="st9" style="fill: rgb(241, 241, 241); stroke: rgb(36, 60, 76);"/>
				</g>
			</g>
			<g>
				<g>
					<g>
						<path d="M 835.799988 565.400024 H 896.599987 V 650.200027 H 835.799988 V 565.400024 Z" class="st3" style="fill: rgb(241, 241, 241); stroke: rgb(36, 60, 76);"/>
					</g>
					<g>
						<path class="st4" d="M897.6,651.2h-62.8v-86.8h62.8V651.2z M836.8,649.2h58.8v-82.8h-58.8V649.2z" style="fill: rgb(241, 241, 241); stroke: rgb(36, 60, 76);"/>
					</g>
				</g>
				<g>
					<path d="M 864.5 565.400024 H 867.9 V 650.200027 H 864.5 V 565.400024 Z" class="st9" style="fill: rgb(241, 241, 241); stroke: rgb(36, 60, 76);"/>
				</g>
				<g>
					<path d="M 835.799988 606.099976 H 896.599987 V 609.499976 H 835.799988 V 606.099976 Z" class="st9" style="fill: rgb(241, 241, 241); stroke: rgb(36, 60, 76);"/>
				</g>
			</g>
			<g>
				<g>
					<g>
						<path d="M 904.299988 565.400024 H 965.099987 V 650.200027 H 904.299988 V 565.400024 Z" class="st3" style="fill: rgb(241, 241, 241); stroke: rgb(36, 60, 76);"/>
					</g>
					<g>
						<path class="st4" d="M966.1,651.2h-62.8v-86.8h62.8V651.2z M905.3,649.2h58.8v-82.8h-58.8V649.2z" style="fill: rgb(241, 241, 241); stroke: rgb(36, 60, 76);"/>
					</g>
				</g>
				<g>
					<path d="M 933 565.400024 H 936.4 V 650.200027 H 933 V 565.400024 Z" class="st9" style="fill: rgb(241, 241, 241); stroke: rgb(36, 60, 76);"/>
				</g>
				<g>
					<path d="M 904.299988 606.099976 H 965.099987 V 609.499976 H 904.299988 V 606.099976 Z" class="st9" style="fill: rgb(241, 241, 241); stroke: rgb(36, 60, 76);"/>
				</g>
			</g>
			<g>
				<g>
					<g>
						<path d="M 698.799988 660 H 759.599987 V 744.800003 H 698.799988 V 660 Z" class="st3" style="fill: rgb(241, 241, 241); stroke: rgb(36, 60, 76);"/>
					</g>
					<g>
						<path class="st4" d="M760.6,745.8h-62.8V659h62.8V745.8z M699.8,743.8h58.8V661h-58.8V743.8z" style="fill: rgb(241, 241, 241); stroke: rgb(36, 60, 76);"/>
					</g>
				</g>
				<g>
					<path d="M 727.5 660 H 730.9 V 744.800003 H 727.5 V 660 Z" class="st9" style="fill: rgb(241, 241, 241); stroke: rgb(36, 60, 76);"/>
				</g>
				<g>
					<path d="M 698.799988 700.700012 H 759.599987 V 704.100012 H 698.799988 V 700.700012 Z" class="st9" style="fill: rgb(241, 241, 241); stroke: rgb(36, 60, 76);"/>
				</g>
			</g>
			<g>
				<g>
					<g>
						<path d="M 769 660 H 894.400002 V 744.800003 H 769 V 660 Z" class="st3" style="fill: rgb(241, 241, 241); stroke: rgb(36, 60, 76);"/>
					</g>
					<g>
						<path class="st4" d="M895.4,745.8H768V659h127.4V745.8z M770,743.8h123.4V661H770V743.8z" style="fill: rgb(241, 241, 241); stroke: rgb(36, 60, 76);"/>
					</g>
				</g>
				<g>
					<path d="M 815.599976 702.400024 H 825.899976 V 704.100024 H 815.599976 V 702.400024 Z" class="st9" style="fill: rgb(241, 241, 241); stroke: rgb(36, 60, 76);"/>
				</g>
				<g>
					<path d="M 837.099976 702.400024 H 847.399976 V 704.100024 H 837.099976 V 702.400024 Z" class="st9" style="fill: rgb(241, 241, 241); stroke: rgb(36, 60, 76);"/>
				</g>
				<g>
					<path d="M 829.700012 660 H 833.800012 V 744.800003 H 829.700012 V 660 Z" class="st9" style="fill: rgb(241, 241, 241); stroke: rgb(36, 60, 76);"/>
				</g>
			</g>
			<g>
				<g>
					<g>
						<path d="M 904.299988 660 H 965.099987 V 744.800003 H 904.299988 V 660 Z" class="st3" style="fill: rgb(241, 241, 241); stroke: rgb(36, 60, 76);"/>
					</g>
					<g>
						<path class="st4" d="M966.1,745.8h-62.8V659h62.8V745.8z M905.3,743.8h58.8V661h-58.8V743.8z" style="fill: rgb(241, 241, 241); stroke: rgb(36, 60, 76);"/>
					</g>
				</g>
				<g>
					<path d="M 933 660 H 936.4 V 744.800003 H 933 V 660 Z" class="st9" style="fill: rgb(241, 241, 241); stroke: rgb(36, 60, 76);"/>
				</g>
				<g>
					<path d="M 904.299988 700.700012 H 965.099987 V 704.100012 H 904.299988 V 700.700012 Z" class="st9" style="fill: rgb(241, 241, 241); stroke: rgb(36, 60, 76);"/>
				</g>
			</g>
		</g>
	</g></g><g transform="matrix(0.28198426961898804, 0, 0, 0.28198426961898804, 79.09774902576623, 69.08769264988868)"><g transform="matrix(1, 0, 0, 1, 0, 0)"><path d="M 632.0999755859375 151.60000610351562 L 635.7000122070312 140.39999389648438 L 644.0999755859375 140.39999389648438 L 646.4000244140625 135.6999969482422 L 647.2999877929688 127.5 L 651.4000244140625 124.5999984741211 L 647.7999877929688 118 L 648.5999755859375 114.4000015258789 L 646.5999755859375 103.4000015258789 L 649.5999755859375 97 L 647.5999755859375 97 L 647.5999755859375 94.9000015258789 L 640.2000122070312 93.4000015258789 L 641.2999877929688 91.5999984741211 L 624.2999877929688 90 L 623.5999755859375 87.4000015258789 L 616.2000122070312 91.30000305175781 L 608 93 L 609.7999877929688 95.80000305175781 L 604.7000122070312 103.19999694824219 L 606 105.19999694824219 L 604.2000122070312 113.30000305175781 L 612.0999755859375 129.6999969482422 L 613 135.89999389648438 Z" class="st8" style="fill: rgb(36, 60, 76); opacity: 1;" transform="matrix(1, 0, 0, 1, 0, 0)"/><path d="M 632.0999755859375 151.60000610351562 L 643.2999877929688 171.60000610351562 L 637.7000122070312 208.89999389648438 L 627.7999877929688 266.79998779296875 L 575.4000244140625 262.5 L 578.4000244140625 205.1999969482422 L 588.7000122070312 159.3000030517578 L 610.7000122070312 133.6999969482422 L 613 135.89999389648438 Z" class="st8" style="fill: rgb(36, 60, 76); opacity: 1;" transform="matrix(1, 0, 0, 1, 0, 0)"/><path d="M 592 158.8000030517578 L 559.7000122070312 207.1999969482422 L 566.5999755859375 270.29998779296875 L 570.5 272.3999938964844 L 567.2999877929688 288.8999938964844 L 567 293.79998779296875 L 575.7999877929688 300.79998779296875 L 580 304.70001220703125 L 582.9000244140625 302.8999938964844 L 584.2999877929688 296.20001220703125 L 588.2000122070312 294.8999938964844 L 586 291.20001220703125 L 583.7000122070312 274.1000061035156 L 582.5999755859375 214.8000030517578 L 608.4000244140625 167.8000030517578 Z" class="st8" style="fill: rgb(36, 60, 76); opacity: 1;" transform="matrix(1, 0, 0, 1, 0, 0)"/><path d="M 674 272.29998779296875 L 676.9000244140625 272.29998779296875 L 679.2999877929688 270.29998779296875 L 665.5999755859375 262.70001220703125 L 665.5999755859375 262.70001220703125 L 641.7999877929688 236.3000030517578 L 639.5 187.1999969482422 L 623.2000122070312 192.5 L 626.2000122070312 253.5 L 654.9000244140625 274.20001220703125 L 664.7000122070312 284.5 L 666.5999755859375 290.70001220703125 L 673.7999877929688 289 L 680.7000122070312 289 L 680.7000122070312 279.8999938964844 Z" class="st8" style="fill: rgb(36, 60, 76); opacity: 1;" transform="matrix(1, 0, 0, 1, 0, 0)"/><path d="M 617.5999755859375 311.29998779296875 L 593.5 376.29998779296875 L 555.2000122070312 448.1000061035156 L 541.5 452 L 531.5 450.79998779296875 L 543.4000244140625 410.70001220703125 L 560.5 374.79998779296875 L 575.9000244140625 258.29998779296875 L 600.4000244140625 237.10000610351562 Z" class="st8" style="fill: rgb(36, 60, 76); opacity: 1;" transform="matrix(1, 0, 0, 1, 0, 0)"/><path d="M 552.599976 434.700012 L 563.900024 450.799988 L 582.599976 461.399994 L 584.099976 469.100006 L 545.900024 458.299988 L 526.900024 450.899994 L 539.099976 425.299988" class="st8" style="fill: rgb(36, 60, 76); opacity: 1;" transform="matrix(1, 0, 0, 1, 0, 0)"/><path d="M 649.7000122070312 302.29998779296875 L 644.2999877929688 371.29998779296875 L 627 450.8999938964844 L 614.9000244140625 458.3999938964844 L 605 459.8999938964844 L 605.5 418.1000061035156 L 612.0999755859375 378.8999938964844 L 595.0999755859375 262.70001220703125 L 612.7999877929688 235.60000610351562 Z" class="st8" style="fill: rgb(36, 60, 76); opacity: 1;" transform="matrix(1, 0, 0, 1, 0, 0)"/><path d="M 620.900024 438.799988 L 636.099976 451.100006 L 657.099976 456.200012 L 660.5 463.200012 L 620.900024 463.200012 L 600.599976 461.299988 L 605.299988 433.399994" class="st8" style="fill: rgb(36, 60, 76); opacity: 1;" transform="matrix(1, 0, 0, 1, 0, 0)"/></g></g><g transform="matrix(0.13423757255077362, 0, 0, 0.13423757255077362, 220.8231213402193, 145.5599140244004)"><g transform="matrix(1, 0, 0, 1, -66.18340301513672, -582.4139404296875)"><g transform="matrix(1, 0, 0, 1, 0, 0)">
	<path d="M 495.899994 604.599976 H 849.100006 V 945.599976 H 495.899994 V 604.599976 Z" fill="none" transform="matrix(1.1259670804283037, 0, 0, 1.1259670804283037, -134.06085635093885, -76.1559110487296)"/>
	<path fill="#173852" d="M587.2,909c10.1,0,18.3,8.2,18.3,18.3c0,10.1-8.2,18.3-18.3,18.3c-10.1,0-18.3-8.2-18.3-18.3&#10;&#9;&#9;C568.9,917.2,577.1,909,587.2,909L587.2,909z" transform="matrix(1.1259670804283037, 0, 0, 1.1259670804283037, -134.06085635093885, -76.1559110487296)"/>
	<path fill="#173852" d="M806.4,909c10.1,0,18.3,8.2,18.3,18.3c0,10.1-8.2,18.3-18.3,18.3c-10.1,0-18.3-8.2-18.3-18.3&#10;&#9;&#9;C788.2,917.2,796.3,909,806.4,909L806.4,909z" transform="matrix(1.1259670804283037, 0, 0, 1.1259670804283037, -134.06085635093885, -76.1559110487296)"/>
	<path fill="#C8CFE2" d="M587.2,933.4L587.2,933.4c-3.5,0-6.6-2.5-7.3-6L575,903h24.4l-4.9,24.5&#10;&#9;&#9;C593.8,930.9,590.8,933.4,587.2,933.4L587.2,933.4z" transform="matrix(1.1259670804283037, 0, 0, 1.1259670804283037, -134.06085635093885, -76.1559110487296)" style="fill: rgb(36, 60, 76);"/>
	<path fill="#C8CFE2" d="M806.4,933.4L806.4,933.4c-3.5,0-6.6-2.5-7.3-6l-4.9-24.5h24.4l-4.9,24.5C813,930.9,810,933.4,806.4,933.4&#10;&#9;&#9;L806.4,933.4z" transform="matrix(1.1259670804283037, 0, 0, 1.1259670804283037, -134.06085635093885, -76.1559110487296)" style="fill: rgb(36, 60, 76);"/>
	<path fill="#C97F20" d="M843.7,677.7l-297.5-36.4l-5.8-19.3c-2-6.5-7.3-11.3-13.9-12.6l-23.3-4.7c-3.3-0.7-6.5,1.5-7.2,4.8&#10;&#9;&#9;c-0.7,3.3,1.5,6.5,4.8,7.2l23.3,4.7c2.2,0.4,4,2.1,4.6,4.2l58,191.5L555,876c-3.1,5.7-2.9,12.5,0.4,18c3.3,5.6,9.2,8.9,15.7,8.9&#10;&#9;&#9;h253.6c3.4,0,6.1-2.7,6.1-6.1c0-3.4-2.7-6.1-6.1-6.1H571.1c-3.1,0-4.7-2.1-5.2-3c-0.5-0.9-1.6-3.3-0.1-6l31.4-58.3l229-17.2&#10;&#9;&#9;c9.5-0.7,16.9-8.7,16.9-18.2v-98.3c0,0,0,0,0,0c3,0,5.7-2.3,6-5.4C849.4,681.1,847,678.1,843.7,677.7z M643.3,732.5h-28.5&#10;&#9;&#9;L599.2,660l35.5,4.3L643.3,732.5z M550.1,654l36.4,4.5l16,74h-28.5L550.1,654z M597.7,811.3l-20.2-66.6H605l14,65L597.7,811.3z&#10;&#9;&#9; M631.3,808.7l-13.8-64.1h27.4l7.9,62.5L631.3,808.7z M647.2,665.9l31.5,3.9l2.6,62.7h-25.7L647.2,665.9z M665,806.2l-7.8-61.6&#10;&#9;&#9;h24.6l2.5,60.1L665,806.2z M718.1,802.2l-21.7,1.6l-2.5-59.2h24.1V802.2z M693.5,732.5l-2.5-61.2l27.2,3.3v57.9H693.5z&#10;&#9;&#9; M756.3,799.4l-26,2v-56.7h26V799.4z M730.3,732.5v-56.4l26,3.2v53.2H730.3z M794.2,796.5l-25.8,1.9v-53.8h25.8V796.5z&#10;&#9;&#9; M768.5,732.5v-51.7l25.8,3.2v48.5H768.5z M830.8,788.1c0,3.2-2.5,5.8-5.6,6.1l-18.7,1.4v-51h24.4V788.1z M806.4,732.5v-47.1&#10;&#9;&#9;l24.4,3v44.1H806.4z" transform="matrix(1.1259670804283037, 0, 0, 1.1259670804283037, -134.06085635093885, -76.1559110487296)" style="fill: rgb(36, 60, 76);"/>
</g></g></g><g transform="matrix(0.17335336132816906, -0.047833593571885685, 0.047833593571885685, 0.17335336132816906, 229.82773538086485, 79.50401060772413)"><g transform="matrix(1, 0, 0, 1, -422.2668151855468, -249.18218994140625)"><g transform="matrix(1, 0, 0, 1, 1.1368683772161603e-13, 0)">
	<path class="st1" d="M1153.7,806.8h-39.5c-4.6,0-8.6-1.6-11.6-4.7c-5.5-5.7-5.3-14.5-5.3-15.5l3.6-58.8h65.9l3.6,58.7&#10;&#9;&#9;c0,1.1,0.3,9.8-5.3,15.5C1162.3,805.2,1158.3,806.8,1153.7,806.8z M1111,738.6l-3,48.7c0,1.2,0.3,5.4,2.3,7.5&#10;&#9;&#9;c0.6,0.6,1.6,1.4,3.8,1.4h39.5c2.3,0,3.3-0.8,3.8-1.4c2.1-2.2,2.3-6.5,2.3-7.6l-3-48.6H1111z" style="fill: rgb(36, 60, 76); opacity: 1;"/>
</g><path class="st1" d="M1067.7,674.6c-4.1,18.7,13.7,25.6,13.7,25.6c-8-37.6,18.7-46.3,18.7-46.3&#10;&#9;C1069.9,656.8,1067.7,674.6,1067.7,674.6z" style="fill: rgb(36, 60, 76); opacity: 1;" transform="matrix(1, 0, 0, 1, 1.1368683772161603e-13, 0)"/><g transform="matrix(1, 0, 0, 1, 1.1368683772161603e-13, 0)">
	<path class="st1" d="M1165.4,720.1h-62.9c-19.3-0.2-32.5-3.5-33.1-3.7l-0.4-0.1c-26.5-9.1-26.8-34.1-23.3-46.1l0.3-0.7&#10;&#9;&#9;c18.5-39.5,68.2-42.6,83-42.6c2.5,0,4.2,0.1,4.9,0.1c0.7,0,2.5-0.1,4.9-0.1c14.8,0,64.5,3.1,83,42.6l0.3,0.7&#10;&#9;&#9;c3.6,12,3.3,37-23.3,46.1l-0.4,0.1C1197.9,716.6,1184.7,719.9,1165.4,720.1L1165.4,720.1z M1072.3,706.1c1.7,0.4,13.6,3.1,30.3,3.3&#10;&#9;&#9;h62.8c16.7-0.2,28.6-2.9,30.3-3.3c21.9-7.7,17.4-28.7,16.4-32.5c-15.9-33.4-59.9-36-73.1-36c-2.8,0-4.5,0.1-4.6,0.1l-0.4,0l-0.4,0&#10;&#9;&#9;c-0.1,0-1.8-0.1-4.6-0.1c-13.2,0-57.2,2.6-73.1,36C1054.9,677.3,1050.4,698.4,1072.3,706.1z" style="fill: rgb(36, 60, 76); opacity: 1;"/>
</g></g></g><g transform="matrix(0.1392518142051428, 0.03497501131054767, -0.03497501131054767, 0.1392518142051428, 328.09805995298825, 39.35576905569923)"><g transform="matrix(1, 0, 0, 1, -422.2668151855468, -249.18218994140625)"><g transform="matrix(1, 0, 0, 1, 1.1368683772161603e-13, 0)">
	<path class="st1" d="M1153.7,806.8h-39.5c-4.6,0-8.6-1.6-11.6-4.7c-5.5-5.7-5.3-14.5-5.3-15.5l3.6-58.8h65.9l3.6,58.7&#10;&#9;&#9;c0,1.1,0.3,9.8-5.3,15.5C1162.3,805.2,1158.3,806.8,1153.7,806.8z M1111,738.6l-3,48.7c0,1.2,0.3,5.4,2.3,7.5&#10;&#9;&#9;c0.6,0.6,1.6,1.4,3.8,1.4h39.5c2.3,0,3.3-0.8,3.8-1.4c2.1-2.2,2.3-6.5,2.3-7.6l-3-48.6H1111z" style="fill: rgb(36, 60, 76); opacity: 1;"/>
</g><path class="st1" d="M1067.7,674.6c-4.1,18.7,13.7,25.6,13.7,25.6c-8-37.6,18.7-46.3,18.7-46.3&#10;&#9;C1069.9,656.8,1067.7,674.6,1067.7,674.6z" style="fill: rgb(36, 60, 76); opacity: 1;" transform="matrix(1, 0, 0, 1, 1.1368683772161603e-13, 0)"/><g transform="matrix(1, 0, 0, 1, 1.1368683772161603e-13, 0)">
	<path class="st1" d="M1165.4,720.1h-62.9c-19.3-0.2-32.5-3.5-33.1-3.7l-0.4-0.1c-26.5-9.1-26.8-34.1-23.3-46.1l0.3-0.7&#10;&#9;&#9;c18.5-39.5,68.2-42.6,83-42.6c2.5,0,4.2,0.1,4.9,0.1c0.7,0,2.5-0.1,4.9-0.1c14.8,0,64.5,3.1,83,42.6l0.3,0.7&#10;&#9;&#9;c3.6,12,3.3,37-23.3,46.1l-0.4,0.1C1197.9,716.6,1184.7,719.9,1165.4,720.1L1165.4,720.1z M1072.3,706.1c1.7,0.4,13.6,3.1,30.3,3.3&#10;&#9;&#9;h62.8c16.7-0.2,28.6-2.9,30.3-3.3c21.9-7.7,17.4-28.7,16.4-32.5c-15.9-33.4-59.9-36-73.1-36c-2.8,0-4.5,0.1-4.6,0.1l-0.4,0l-0.4,0&#10;&#9;&#9;c-0.1,0-1.8-0.1-4.6-0.1c-13.2,0-57.2,2.6-73.1,36C1054.9,677.3,1050.4,698.4,1072.3,706.1z" style="fill: rgb(36, 60, 76); opacity: 1;"/>
</g></g></g><g transform="matrix(0.20057666301727295, 0, 0, 0.20057666301727295, 253.31587319304523, 21.175446741288624)"><g transform="matrix(1, 0, 0, 1, -422.2668151855468, -249.18218994140625)"><g transform="matrix(1, 0, 0, 1, 1.1368683772161603e-13, 0)">
	<path class="st1" d="M1153.7,806.8h-39.5c-4.6,0-8.6-1.6-11.6-4.7c-5.5-5.7-5.3-14.5-5.3-15.5l3.6-58.8h65.9l3.6,58.7&#10;&#9;&#9;c0,1.1,0.3,9.8-5.3,15.5C1162.3,805.2,1158.3,806.8,1153.7,806.8z M1111,738.6l-3,48.7c0,1.2,0.3,5.4,2.3,7.5&#10;&#9;&#9;c0.6,0.6,1.6,1.4,3.8,1.4h39.5c2.3,0,3.3-0.8,3.8-1.4c2.1-2.2,2.3-6.5,2.3-7.6l-3-48.6H1111z" style="fill: rgb(36, 60, 76); opacity: 1;"/>
</g><path class="st1" d="M1067.7,674.6c-4.1,18.7,13.7,25.6,13.7,25.6c-8-37.6,18.7-46.3,18.7-46.3&#10;&#9;C1069.9,656.8,1067.7,674.6,1067.7,674.6z" style="fill: rgb(36, 60, 76); opacity: 1;" transform="matrix(1, 0, 0, 1, 1.1368683772161603e-13, 0)"/><g transform="matrix(1, 0, 0, 1, 1.1368683772161603e-13, 0)">
	<path class="st1" d="M1165.4,720.1h-62.9c-19.3-0.2-32.5-3.5-33.1-3.7l-0.4-0.1c-26.5-9.1-26.8-34.1-23.3-46.1l0.3-0.7&#10;&#9;&#9;c18.5-39.5,68.2-42.6,83-42.6c2.5,0,4.2,0.1,4.9,0.1c0.7,0,2.5-0.1,4.9-0.1c14.8,0,64.5,3.1,83,42.6l0.3,0.7&#10;&#9;&#9;c3.6,12,3.3,37-23.3,46.1l-0.4,0.1C1197.9,716.6,1184.7,719.9,1165.4,720.1L1165.4,720.1z M1072.3,706.1c1.7,0.4,13.6,3.1,30.3,3.3&#10;&#9;&#9;h62.8c16.7-0.2,28.6-2.9,30.3-3.3c21.9-7.7,17.4-28.7,16.4-32.5c-15.9-33.4-59.9-36-73.1-36c-2.8,0-4.5,0.1-4.6,0.1l-0.4,0l-0.4,0&#10;&#9;&#9;c-0.1,0-1.8-0.1-4.6-0.1c-13.2,0-57.2,2.6-73.1,36C1054.9,677.3,1050.4,698.4,1072.3,706.1z" style="fill: rgb(36, 60, 76); opacity: 1;"/>
</g></g></g><g transform="matrix(-0.6619969010353088, 0, 0, 0.6619969010353088, 599.8176728406768, -237.08607482910156)"><g transform="matrix(1, 0, 0, 1, 10.521013259887809, -113.97884368896484)"><path class="st7" d="M456,623.5c-0.5-3-5-2.5-7-2c-0.7,0.2-1,1.6-1.3,3.4c-0.6,3.6-1,8.6-3.7,8.6c-0.5,0-3.9,0-9.5,0&#10;&#9;&#9;&#9;c-2.9,0-6.5,0-10.5,0c-1.3,0-2.6,0-4,0c-3.3,0-6.8,0-10.5,0c-29.1,0-71.3,0-106,0c-3.6,0-7.1,0-10.5,0c-19.7,0-35.9,0-44.2,0&#10;&#9;&#9;&#9;l0.4,13.5h200c1,0,1.9,0.2,2.8,0.5c0.2-3.7,0.6-7.2,0.8-8.5c0.4-2.1,0.9-3.9,2.5-4.8c0.4-4,0.7-7.6,0.8-9.6&#10;&#9;&#9;&#9;C456.1,624.2,456,623.8,456,623.5z" style="fill: rgb(36, 60, 76); opacity: 1;" transform="matrix(1, 0, 0, 0.9999999999999999, -111.4706420898438, 39.454212188720646)"/><path class="st5" d="M145.5,635c1,2.4,1.8,7.3,2.2,12h101.6l-0.4-13.5l-0.3-9.4c9.2,0.1,25.2,0.2,44.4,0.4v9.1c3.4,0,6.9,0,10.5,0&#10;&#9;&#9;&#9;v-9c33.8,0.2,74.7,0.5,106,0.5v8.4c3.7,0,7.2,0,10.5,0v-8.4c1.4,0,2.7,0,4,0v8.4c4,0,7.6,0,10.5,0v-8.5c5.1,0,9.6-0.1,13.2-0.1&#10;&#9;&#9;&#9;c0.3-1.8,0.6-3.2,1.3-3.4c2-0.5,6.5-1,7,2c0,0.2,0.1,0.7,0,1.2c1.3-0.1,2.2-0.1,2.5-0.2c5-1.5,3-8.5-1.5-8.5&#10;&#9;&#9;&#9;c-4.2,0-185.9,0-208.7,0l-1.8-62c0,0-78.5-2.5-81.5,3c-2.2,4-13.8,51.4-20,77.3C145.2,634.6,145.4,634.8,145.5,635z M193,564&#10;&#9;&#9;&#9;c3,0,44.4-4.6,47.7,0c2.1,3,0,51-2.5,53.5c-2.5,2.5-46.5,2.5-45.6-0.5S190,564,193,564z M169,566c2-2,13.7-3.4,15.5-1&#10;&#9;&#9;&#9;c1.5,2,2,51-1.5,52s-23,1-23.5-0.5S167,568,169,566z" style="fill: rgb(36, 60, 76); opacity: 1;" transform="matrix(1, 0, 0, 0.9999999999999999, -110.4706420898438, 40.4542121887207)"/><g transform="matrix(1, 0, 0, 0.9999999999999999, -31.56304550170904, 4.38380241394043)"><path class="st4" d="M147.7,212.9c0.4,5.1,0.1,9.9-1.2,11.5c-0.8,1-1.7,1.7-2.6,2.1h89.5v-2.9c0-4.7,3.8-8.5,8.5-8.5H291&#10;&#9;&#9;&#9;c4.7,0,8.5,3.8,8.5,8.5v2.9H453c0.6,0,1.2,0.1,1.8,0.1c-0.8-0.3-1.5-0.7-2-1.2c-1.2-1.2-1.1-6.9-0.8-12c-0.9-0.4-1.8-0.5-2.8-0.5&#10;&#9;&#9;&#9;h-200H147.7z" style="fill: rgb(36, 60, 76); opacity: 1;" transform="matrix(1, 0, 0, 0.9999999999999999, -78.77020263671875, 465.6970214843749)"/><path class="st4" d="M204.6,231.4c-16.2,0-29.8,11-33.9,25.9c-0.7,2.7-1.2,5.5-1.2,8.5c0,0.3,0,0.5,0,0.8&#10;&#9;&#9;&#9;c0,19.4,15.7,35.1,35.1,35.1c19.4,0,35.1-15.7,35.1-35.1c0-0.3,0-0.5,0-0.8c-0.1-2.9-0.5-5.8-1.2-8.5&#10;&#9;&#9;&#9;C234.4,242.3,220.8,231.4,204.6,231.4z M224.5,266.5c0,11-8.9,19.9-19.9,19.9c-11,0-19.9-8.9-19.9-19.9c0-11,8.9-19.9,19.9-19.9&#10;&#9;&#9;&#9;C215.6,246.6,224.5,255.5,224.5,266.5z" style="fill: rgb(36, 60, 76); opacity: 1;" transform="matrix(0.9000853896141052, 0, 0, 0.9000853896141051, 64.27233886718756, 496.3292541503905)"/><path class="st3" d="M454.8,226.7c-0.6-0.1-1.2-0.1-1.8-0.1H299.5v9.3c0,4.7-3.8,8.5-8.5,8.5h-49.1c-4.7,0-8.5-3.8-8.5-8.5v-9.3&#10;&#9;&#9;&#9;h-89.5c-1.4,0.7-3,0.7-4.9,0.2c-0.5,0.1-1,0.2-1.5,0.3c-5.5,1.5-9.5,6.5-9.5,12.5v4.7c0,7.2,5.8,13,13,13h29.7&#10;&#9;&#9;&#9;c4.1-14.9,17.7-25.9,33.9-25.9c16.2,0,29.8,11,33.9,25.9h54.9c4.1-14.9,17.7-25.9,33.9-25.9c16.2,0,29.8,11,33.9,25.9H376&#10;&#9;&#9;&#9;c4.1-14.9,17.7-25.9,33.9-25.9c16.2,0,29.8,11,33.9,25.9h9.2c7.2,0,13-5.8,13-13v-4.7c0-5.8-3.7-10.6-8.9-12.3&#10;&#9;&#9;&#9;C456.3,227.1,455.5,226.9,454.8,226.7z" style="fill: rgb(36, 60, 76); opacity: 1;" transform="matrix(1, 0, 0, 0.9999999999999999, -78.77020263671875, 469.6970214843749)"/><path class="st4" d="M204.6,231.4c-16.2,0-29.8,11-33.9,25.9c-0.7,2.7-1.2,5.5-1.2,8.5c0,0.3,0,0.5,0,0.8&#10;&#9;&#9;&#9;c0,19.4,15.7,35.1,35.1,35.1c19.4,0,35.1-15.7,35.1-35.1c0-0.3,0-0.5,0-0.8c-0.1-2.9-0.5-5.8-1.2-8.5&#10;&#9;&#9;&#9;C234.4,242.3,220.8,231.4,204.6,231.4z M224.5,266.5c0,11-8.9,19.9-19.9,19.9c-11,0-19.9-8.9-19.9-19.9c0-11,8.9-19.9,19.9-19.9&#10;&#9;&#9;&#9;C215.6,246.6,224.5,255.5,224.5,266.5z" style="fill: rgb(36, 60, 76); opacity: 1;" transform="matrix(0.9000853896141052, 0, 0, 0.9000853896141051, -58.32769775390625, 496.3292541503905)"/><path d="M 209.300006 266.5 A 4.7 4.7 0 0 1 204.600006 271.2 A 4.7 4.7 0 0 1 199.900006 266.5 A 4.7 4.7 0 0 1 204.600006 261.8 A 4.7 4.7 0 0 1 209.300006 266.5 Z" class="st4" style="fill: rgb(36, 60, 76); opacity: 1;" transform="matrix(1, 0, 0, 0.9999999999999999, -78.77020263671875, 469.6970214843749)"/><path class="st4" d="M204.6,231.4c-16.2,0-29.8,11-33.9,25.9c-0.7,2.7-1.2,5.5-1.2,8.5c0,0.3,0,0.5,0,0.8&#10;&#9;&#9;&#9;c0,19.4,15.7,35.1,35.1,35.1c19.4,0,35.1-15.7,35.1-35.1c0-0.3,0-0.5,0-0.8c-0.1-2.9-0.5-5.8-1.2-8.5&#10;&#9;&#9;&#9;C234.4,242.3,220.8,231.4,204.6,231.4z M224.5,266.5c0,11-8.9,19.9-19.9,19.9c-11,0-19.9-8.9-19.9-19.9c0-11,8.9-19.9,19.9-19.9&#10;&#9;&#9;&#9;C215.6,246.6,224.5,255.5,224.5,266.5z" style="fill: rgb(36, 60, 76); opacity: 1;" transform="matrix(0.9000853896141052, 0, 0, 0.9000853896141051, 146.97235107421886, 496.3292541503905)"/><path class="st0" d="M143.9,226.5c0.9-0.4,1.8-1.2,2.6-2.1c1.3-1.6,1.5-6.4,1.2-11.5c-0.3-4.7-1.2-9.6-2.2-12&#10;&#9;&#9;&#9;c-0.1-0.3-0.3-0.5-0.5-0.7c-1.9-1.6-7.6,1-9,3.7c-1.5,3-3,20,1,22c0.2,0.1,0.3,0.2,0.5,0.2c0.5,0.2,1,0.4,1.5,0.6&#10;&#9;&#9;&#9;C140.8,227.3,142.4,227.2,143.9,226.5z" style="fill: rgb(36, 60, 76); opacity: 1;" transform="matrix(0.6493002176284791, 0, 0, 0.6493002176284789, -30.86663818359375, 541.4110717773436)"/><path class="st6" d="M452.8,205c-0.2,1.3-0.6,4.7-0.8,8.5c-0.3,5.2-0.3,10.9,0.8,12c0.5,0.5,1.2,0.9,2,1.2&#10;&#9;&#9;&#9;c0.7,0.3,1.5,0.4,2.3,0.5c2,0.2,4.2-0.1,5.8-1.2c3-2,4-27-5-26.5c-1.1,0.1-1.9,0.3-2.5,0.7C453.7,201.1,453.2,202.9,452.8,205z" style="fill: rgb(36, 60, 76); opacity: 1;" transform="matrix(0.7440940737724305, 0, 0, 0.7440940737724303, 38.822509765625, 522.8900146484374)"/><path d="M 331.999988 266.5 A 4.7 4.7 0 0 1 327.299988 271.2 A 4.7 4.7 0 0 1 322.599988 266.5 A 4.7 4.7 0 0 1 327.299988 261.8 A 4.7 4.7 0 0 1 331.999988 266.5 Z" class="st4" style="fill: rgb(36, 60, 76); opacity: 1;" transform="matrix(1, 0, 0, 0.9999999999999999, -78.77020263671875, 469.6970214843749)"/><path d="M 414.800006 266.5 A 4.7 4.7 0 0 1 410.100006 271.2 A 4.7 4.7 0 0 1 405.400006 266.5 A 4.7 4.7 0 0 1 410.100006 261.8 A 4.7 4.7 0 0 1 414.800006 266.5 Z" class="st4" style="fill: rgb(36, 60, 76); opacity: 1;" transform="matrix(1, 0, 0, 0.9999999999999999, -78.77020263671875, 469.6970214843749)"/><path class="st5" d="M291,215.1h-49.1c-4.7,0-8.5,3.8-8.5,8.5v2.9v9.3c0,4.7,3.8,8.5,8.5,8.5H291c4.7,0,8.5-3.8,8.5-8.5v-9.3v-2.9&#10;&#9;&#9;&#9;C299.5,218.9,295.7,215.1,291,215.1z" style="fill: rgb(36, 60, 76); opacity: 1;" transform="matrix(0.7645903825759889, 0, 0, 0.7645903825759885, -16.04534912109375, 521.7706298828124)"/></g></g></g><g transform="matrix(0.28987807035446167, 0.11443275213241577, -0.11443275213241577, 0.28987807035446167, 150.7005474876803, -66.59108695216209)"><g transform="matrix(1, 0, 0, 1, -422.2668151855468, -249.18218994140625)"><g transform="matrix(1, 0, 0, 1, 1.1368683772161603e-13, 0)">
	<path class="st1" d="M1153.7,806.8h-39.5c-4.6,0-8.6-1.6-11.6-4.7c-5.5-5.7-5.3-14.5-5.3-15.5l3.6-58.8h65.9l3.6,58.7&#10;&#9;&#9;c0,1.1,0.3,9.8-5.3,15.5C1162.3,805.2,1158.3,806.8,1153.7,806.8z M1111,738.6l-3,48.7c0,1.2,0.3,5.4,2.3,7.5&#10;&#9;&#9;c0.6,0.6,1.6,1.4,3.8,1.4h39.5c2.3,0,3.3-0.8,3.8-1.4c2.1-2.2,2.3-6.5,2.3-7.6l-3-48.6H1111z" style="fill: rgb(36, 60, 76); opacity: 1;"/>
</g><path class="st1" d="M1067.7,674.6c-4.1,18.7,13.7,25.6,13.7,25.6c-8-37.6,18.7-46.3,18.7-46.3&#10;&#9;C1069.9,656.8,1067.7,674.6,1067.7,674.6z" style="fill: rgb(36, 60, 76); opacity: 1;" transform="matrix(1, 0, 0, 1, 1.1368683772161603e-13, 0)"/><g transform="matrix(1, 0, 0, 1, 1.1368683772161603e-13, 0)">
	<path class="st1" d="M1165.4,720.1h-62.9c-19.3-0.2-32.5-3.5-33.1-3.7l-0.4-0.1c-26.5-9.1-26.8-34.1-23.3-46.1l0.3-0.7&#10;&#9;&#9;c18.5-39.5,68.2-42.6,83-42.6c2.5,0,4.2,0.1,4.9,0.1c0.7,0,2.5-0.1,4.9-0.1c14.8,0,64.5,3.1,83,42.6l0.3,0.7&#10;&#9;&#9;c3.6,12,3.3,37-23.3,46.1l-0.4,0.1C1197.9,716.6,1184.7,719.9,1165.4,720.1L1165.4,720.1z M1072.3,706.1c1.7,0.4,13.6,3.1,30.3,3.3&#10;&#9;&#9;h62.8c16.7-0.2,28.6-2.9,30.3-3.3c21.9-7.7,17.4-28.7,16.4-32.5c-15.9-33.4-59.9-36-73.1-36c-2.8,0-4.5,0.1-4.6,0.1l-0.4,0l-0.4,0&#10;&#9;&#9;c-0.1,0-1.8-0.1-4.6-0.1c-13.2,0-57.2,2.6-73.1,36C1054.9,677.3,1050.4,698.4,1072.3,706.1z" style="fill: rgb(36, 60, 76); opacity: 1;"/>
</g></g></g><g transform="matrix(0.12581926584243774, 0, 0, 0.12581926584243774, 342.3055419921875, 75.78980979151757)"><g transform="matrix(1, 0, 0, 1, -422.2668151855468, -249.18218994140625)"><g transform="matrix(1, 0, 0, 1, 1.1368683772161603e-13, 0)">
	<path class="st1" d="M1153.7,806.8h-39.5c-4.6,0-8.6-1.6-11.6-4.7c-5.5-5.7-5.3-14.5-5.3-15.5l3.6-58.8h65.9l3.6,58.7&#10;&#9;&#9;c0,1.1,0.3,9.8-5.3,15.5C1162.3,805.2,1158.3,806.8,1153.7,806.8z M1111,738.6l-3,48.7c0,1.2,0.3,5.4,2.3,7.5&#10;&#9;&#9;c0.6,0.6,1.6,1.4,3.8,1.4h39.5c2.3,0,3.3-0.8,3.8-1.4c2.1-2.2,2.3-6.5,2.3-7.6l-3-48.6H1111z" style="fill: rgb(36, 60, 76); opacity: 1;"/>
</g><path class="st1" d="M1067.7,674.6c-4.1,18.7,13.7,25.6,13.7,25.6c-8-37.6,18.7-46.3,18.7-46.3&#10;&#9;C1069.9,656.8,1067.7,674.6,1067.7,674.6z" style="fill: rgb(36, 60, 76); opacity: 1;" transform="matrix(1, 0, 0, 1, 1.1368683772161603e-13, 0)"/><g transform="matrix(1, 0, 0, 1, 1.1368683772161603e-13, 0)">
	<path class="st1" d="M1165.4,720.1h-62.9c-19.3-0.2-32.5-3.5-33.1-3.7l-0.4-0.1c-26.5-9.1-26.8-34.1-23.3-46.1l0.3-0.7&#10;&#9;&#9;c18.5-39.5,68.2-42.6,83-42.6c2.5,0,4.2,0.1,4.9,0.1c0.7,0,2.5-0.1,4.9-0.1c14.8,0,64.5,3.1,83,42.6l0.3,0.7&#10;&#9;&#9;c3.6,12,3.3,37-23.3,46.1l-0.4,0.1C1197.9,716.6,1184.7,719.9,1165.4,720.1L1165.4,720.1z M1072.3,706.1c1.7,0.4,13.6,3.1,30.3,3.3&#10;&#9;&#9;h62.8c16.7-0.2,28.6-2.9,30.3-3.3c21.9-7.7,17.4-28.7,16.4-32.5c-15.9-33.4-59.9-36-73.1-36c-2.8,0-4.5,0.1-4.6,0.1l-0.4,0l-0.4,0&#10;&#9;&#9;c-0.1,0-1.8-0.1-4.6-0.1c-13.2,0-57.2,2.6-73.1,36C1054.9,677.3,1050.4,698.4,1072.3,706.1z" style="fill: rgb(36, 60, 76); opacity: 1;"/>
</g></g></g><g transform="matrix(0.12305046617984772, 0, 0, 0.12305046617984772, 363.91721405145734, 79.81999119712734)"><g transform="matrix(1, 0, 0, 1, -422.2668151855468, -249.18218994140625)"><g transform="matrix(1, 0, 0, 1, 1.1368683772161603e-13, 0)">
	<path class="st1" d="M1153.7,806.8h-39.5c-4.6,0-8.6-1.6-11.6-4.7c-5.5-5.7-5.3-14.5-5.3-15.5l3.6-58.8h65.9l3.6,58.7&#10;&#9;&#9;c0,1.1,0.3,9.8-5.3,15.5C1162.3,805.2,1158.3,806.8,1153.7,806.8z M1111,738.6l-3,48.7c0,1.2,0.3,5.4,2.3,7.5&#10;&#9;&#9;c0.6,0.6,1.6,1.4,3.8,1.4h39.5c2.3,0,3.3-0.8,3.8-1.4c2.1-2.2,2.3-6.5,2.3-7.6l-3-48.6H1111z" style="fill: rgb(36, 60, 76); opacity: 1;"/>
</g><path class="st1" d="M1067.7,674.6c-4.1,18.7,13.7,25.6,13.7,25.6c-8-37.6,18.7-46.3,18.7-46.3&#10;&#9;C1069.9,656.8,1067.7,674.6,1067.7,674.6z" style="fill: rgb(36, 60, 76); opacity: 1;" transform="matrix(1, 0, 0, 1, 1.1368683772161603e-13, 0)"/><g transform="matrix(1, 0, 0, 1, 1.1368683772161603e-13, 0)">
	<path class="st1" d="M1165.4,720.1h-62.9c-19.3-0.2-32.5-3.5-33.1-3.7l-0.4-0.1c-26.5-9.1-26.8-34.1-23.3-46.1l0.3-0.7&#10;&#9;&#9;c18.5-39.5,68.2-42.6,83-42.6c2.5,0,4.2,0.1,4.9,0.1c0.7,0,2.5-0.1,4.9-0.1c14.8,0,64.5,3.1,83,42.6l0.3,0.7&#10;&#9;&#9;c3.6,12,3.3,37-23.3,46.1l-0.4,0.1C1197.9,716.6,1184.7,719.9,1165.4,720.1L1165.4,720.1z M1072.3,706.1c1.7,0.4,13.6,3.1,30.3,3.3&#10;&#9;&#9;h62.8c16.7-0.2,28.6-2.9,30.3-3.3c21.9-7.7,17.4-28.7,16.4-32.5c-15.9-33.4-59.9-36-73.1-36c-2.8,0-4.5,0.1-4.6,0.1l-0.4,0l-0.4,0&#10;&#9;&#9;c-0.1,0-1.8-0.1-4.6-0.1c-13.2,0-57.2,2.6-73.1,36C1054.9,677.3,1050.4,698.4,1072.3,706.1z" style="fill: rgb(36, 60, 76); opacity: 1;"/>
</g></g></g><g transform="matrix(0.131593719124794, -0.08291690051555635, 0.08291690051555635, 0.131593719124794, 304.37391673716127, 113.55312347412107)"><g transform="matrix(1, 0, 0, 1, -422.2668151855468, -249.18218994140625)"><g transform="matrix(1, 0, 0, 1, 1.1368683772161603e-13, 0)">
	<path class="st1" d="M1153.7,806.8h-39.5c-4.6,0-8.6-1.6-11.6-4.7c-5.5-5.7-5.3-14.5-5.3-15.5l3.6-58.8h65.9l3.6,58.7&#10;&#9;&#9;c0,1.1,0.3,9.8-5.3,15.5C1162.3,805.2,1158.3,806.8,1153.7,806.8z M1111,738.6l-3,48.7c0,1.2,0.3,5.4,2.3,7.5&#10;&#9;&#9;c0.6,0.6,1.6,1.4,3.8,1.4h39.5c2.3,0,3.3-0.8,3.8-1.4c2.1-2.2,2.3-6.5,2.3-7.6l-3-48.6H1111z" style="fill: rgb(36, 60, 76); opacity: 1;"/>
</g><path class="st1" d="M1067.7,674.6c-4.1,18.7,13.7,25.6,13.7,25.6c-8-37.6,18.7-46.3,18.7-46.3&#10;&#9;C1069.9,656.8,1067.7,674.6,1067.7,674.6z" style="fill: rgb(36, 60, 76); opacity: 1;" transform="matrix(1, 0, 0, 1, 1.1368683772161603e-13, 0)"/><g transform="matrix(1, 0, 0, 1, 1.1368683772161603e-13, 0)">
	<path class="st1" d="M1165.4,720.1h-62.9c-19.3-0.2-32.5-3.5-33.1-3.7l-0.4-0.1c-26.5-9.1-26.8-34.1-23.3-46.1l0.3-0.7&#10;&#9;&#9;c18.5-39.5,68.2-42.6,83-42.6c2.5,0,4.2,0.1,4.9,0.1c0.7,0,2.5-0.1,4.9-0.1c14.8,0,64.5,3.1,83,42.6l0.3,0.7&#10;&#9;&#9;c3.6,12,3.3,37-23.3,46.1l-0.4,0.1C1197.9,716.6,1184.7,719.9,1165.4,720.1L1165.4,720.1z M1072.3,706.1c1.7,0.4,13.6,3.1,30.3,3.3&#10;&#9;&#9;h62.8c16.7-0.2,28.6-2.9,30.3-3.3c21.9-7.7,17.4-28.7,16.4-32.5c-15.9-33.4-59.9-36-73.1-36c-2.8,0-4.5,0.1-4.6,0.1l-0.4,0l-0.4,0&#10;&#9;&#9;c-0.1,0-1.8-0.1-4.6-0.1c-13.2,0-57.2,2.6-73.1,36C1054.9,677.3,1050.4,698.4,1072.3,706.1z" style="fill: rgb(36, 60, 76); opacity: 1;"/>
</g></g></g><g transform="matrix(0.15718358755111694, 0.037003319710493095, -0.037003319710493095, 0.15718358755111694, 323.8677982963013, 2.339008013214169)"><g transform="matrix(1, 0, 0, 1, -422.2668151855468, -249.18218994140625)"><g transform="matrix(1, 0, 0, 1, 1.1368683772161603e-13, 0)">
	<path class="st1" d="M1153.7,806.8h-39.5c-4.6,0-8.6-1.6-11.6-4.7c-5.5-5.7-5.3-14.5-5.3-15.5l3.6-58.8h65.9l3.6,58.7&#10;&#9;&#9;c0,1.1,0.3,9.8-5.3,15.5C1162.3,805.2,1158.3,806.8,1153.7,806.8z M1111,738.6l-3,48.7c0,1.2,0.3,5.4,2.3,7.5&#10;&#9;&#9;c0.6,0.6,1.6,1.4,3.8,1.4h39.5c2.3,0,3.3-0.8,3.8-1.4c2.1-2.2,2.3-6.5,2.3-7.6l-3-48.6H1111z" style="fill: rgb(36, 60, 76); opacity: 1;"/>
</g><path class="st1" d="M1067.7,674.6c-4.1,18.7,13.7,25.6,13.7,25.6c-8-37.6,18.7-46.3,18.7-46.3&#10;&#9;C1069.9,656.8,1067.7,674.6,1067.7,674.6z" style="fill: rgb(36, 60, 76); opacity: 1;" transform="matrix(1, 0, 0, 1, 1.1368683772161603e-13, 0)"/><g transform="matrix(1, 0, 0, 1, 1.1368683772161603e-13, 0)">
	<path class="st1" d="M1165.4,720.1h-62.9c-19.3-0.2-32.5-3.5-33.1-3.7l-0.4-0.1c-26.5-9.1-26.8-34.1-23.3-46.1l0.3-0.7&#10;&#9;&#9;c18.5-39.5,68.2-42.6,83-42.6c2.5,0,4.2,0.1,4.9,0.1c0.7,0,2.5-0.1,4.9-0.1c14.8,0,64.5,3.1,83,42.6l0.3,0.7&#10;&#9;&#9;c3.6,12,3.3,37-23.3,46.1l-0.4,0.1C1197.9,716.6,1184.7,719.9,1165.4,720.1L1165.4,720.1z M1072.3,706.1c1.7,0.4,13.6,3.1,30.3,3.3&#10;&#9;&#9;h62.8c16.7-0.2,28.6-2.9,30.3-3.3c21.9-7.7,17.4-28.7,16.4-32.5c-15.9-33.4-59.9-36-73.1-36c-2.8,0-4.5,0.1-4.6,0.1l-0.4,0l-0.4,0&#10;&#9;&#9;c-0.1,0-1.8-0.1-4.6-0.1c-13.2,0-57.2,2.6-73.1,36C1054.9,677.3,1050.4,698.4,1072.3,706.1z" style="fill: rgb(36, 60, 76); opacity: 1;"/>
</g></g></g><g transform="matrix(0.19574546813964847, 0.04374783486127855, -0.04374783486127855, 0.19574546813964847, 362.47557814132847, -0.2413791905346585)"><g transform="matrix(1, 0, 0, 1, -422.2668151855468, -249.18218994140625)"><g transform="matrix(1, 0, 0, 1, 1.1368683772161603e-13, 0)">
	<path class="st1" d="M1153.7,806.8h-39.5c-4.6,0-8.6-1.6-11.6-4.7c-5.5-5.7-5.3-14.5-5.3-15.5l3.6-58.8h65.9l3.6,58.7&#10;&#9;&#9;c0,1.1,0.3,9.8-5.3,15.5C1162.3,805.2,1158.3,806.8,1153.7,806.8z M1111,738.6l-3,48.7c0,1.2,0.3,5.4,2.3,7.5&#10;&#9;&#9;c0.6,0.6,1.6,1.4,3.8,1.4h39.5c2.3,0,3.3-0.8,3.8-1.4c2.1-2.2,2.3-6.5,2.3-7.6l-3-48.6H1111z" style="fill: rgb(36, 60, 76); opacity: 1;"/>
</g><path class="st1" d="M1067.7,674.6c-4.1,18.7,13.7,25.6,13.7,25.6c-8-37.6,18.7-46.3,18.7-46.3&#10;&#9;C1069.9,656.8,1067.7,674.6,1067.7,674.6z" style="fill: rgb(36, 60, 76); opacity: 1;" transform="matrix(1, 0, 0, 1, 1.1368683772161603e-13, 0)"/><g transform="matrix(1, 0, 0, 1, 1.1368683772161603e-13, 0)">
	<path class="st1" d="M1165.4,720.1h-62.9c-19.3-0.2-32.5-3.5-33.1-3.7l-0.4-0.1c-26.5-9.1-26.8-34.1-23.3-46.1l0.3-0.7&#10;&#9;&#9;c18.5-39.5,68.2-42.6,83-42.6c2.5,0,4.2,0.1,4.9,0.1c0.7,0,2.5-0.1,4.9-0.1c14.8,0,64.5,3.1,83,42.6l0.3,0.7&#10;&#9;&#9;c3.6,12,3.3,37-23.3,46.1l-0.4,0.1C1197.9,716.6,1184.7,719.9,1165.4,720.1L1165.4,720.1z M1072.3,706.1c1.7,0.4,13.6,3.1,30.3,3.3&#10;&#9;&#9;h62.8c16.7-0.2,28.6-2.9,30.3-3.3c21.9-7.7,17.4-28.7,16.4-32.5c-15.9-33.4-59.9-36-73.1-36c-2.8,0-4.5,0.1-4.6,0.1l-0.4,0l-0.4,0&#10;&#9;&#9;c-0.1,0-1.8-0.1-4.6-0.1c-13.2,0-57.2,2.6-73.1,36C1054.9,677.3,1050.4,698.4,1072.3,706.1z" style="fill: rgb(36, 60, 76); opacity: 1;"/>
</g></g></g><g transform="matrix(0.16735117137432098, 0, 0, 0.16735117137432098, 337.36251095911416, 30.25482935114593)"><g transform="matrix(1, 0, 0, 1, -422.2668151855468, -249.18218994140625)"><g transform="matrix(1, 0, 0, 1, 1.1368683772161603e-13, 0)">
	<path class="st1" d="M1153.7,806.8h-39.5c-4.6,0-8.6-1.6-11.6-4.7c-5.5-5.7-5.3-14.5-5.3-15.5l3.6-58.8h65.9l3.6,58.7&#10;&#9;&#9;c0,1.1,0.3,9.8-5.3,15.5C1162.3,805.2,1158.3,806.8,1153.7,806.8z M1111,738.6l-3,48.7c0,1.2,0.3,5.4,2.3,7.5&#10;&#9;&#9;c0.6,0.6,1.6,1.4,3.8,1.4h39.5c2.3,0,3.3-0.8,3.8-1.4c2.1-2.2,2.3-6.5,2.3-7.6l-3-48.6H1111z" style="fill: rgb(36, 60, 76); opacity: 1;"/>
</g><path class="st1" d="M1067.7,674.6c-4.1,18.7,13.7,25.6,13.7,25.6c-8-37.6,18.7-46.3,18.7-46.3&#10;&#9;C1069.9,656.8,1067.7,674.6,1067.7,674.6z" style="fill: rgb(36, 60, 76); opacity: 1;" transform="matrix(1, 0, 0, 1, 1.1368683772161603e-13, 0)"/><g transform="matrix(1, 0, 0, 1, 1.1368683772161603e-13, 0)">
	<path class="st1" d="M1165.4,720.1h-62.9c-19.3-0.2-32.5-3.5-33.1-3.7l-0.4-0.1c-26.5-9.1-26.8-34.1-23.3-46.1l0.3-0.7&#10;&#9;&#9;c18.5-39.5,68.2-42.6,83-42.6c2.5,0,4.2,0.1,4.9,0.1c0.7,0,2.5-0.1,4.9-0.1c14.8,0,64.5,3.1,83,42.6l0.3,0.7&#10;&#9;&#9;c3.6,12,3.3,37-23.3,46.1l-0.4,0.1C1197.9,716.6,1184.7,719.9,1165.4,720.1L1165.4,720.1z M1072.3,706.1c1.7,0.4,13.6,3.1,30.3,3.3&#10;&#9;&#9;h62.8c16.7-0.2,28.6-2.9,30.3-3.3c21.9-7.7,17.4-28.7,16.4-32.5c-15.9-33.4-59.9-36-73.1-36c-2.8,0-4.5,0.1-4.6,0.1l-0.4,0l-0.4,0&#10;&#9;&#9;c-0.1,0-1.8-0.1-4.6-0.1c-13.2,0-57.2,2.6-73.1,36C1054.9,677.3,1050.4,698.4,1072.3,706.1z" style="fill: rgb(36, 60, 76); opacity: 1;"/>
</g></g></g><g transform="matrix(-0.0516774207353592, 0.11622295528650287, -0.11622295528650287, -0.0516774207353592, 578.6604400385913, 35.40942056935131)"><g transform="matrix(1, 0, 0, 1, -422.2668151855468, -249.18218994140625)"><g transform="matrix(1, 0, 0, 1, 1.1368683772161603e-13, 0)">
	<path class="st1" d="M1153.7,806.8h-39.5c-4.6,0-8.6-1.6-11.6-4.7c-5.5-5.7-5.3-14.5-5.3-15.5l3.6-58.8h65.9l3.6,58.7&#10;&#9;&#9;c0,1.1,0.3,9.8-5.3,15.5C1162.3,805.2,1158.3,806.8,1153.7,806.8z M1111,738.6l-3,48.7c0,1.2,0.3,5.4,2.3,7.5&#10;&#9;&#9;c0.6,0.6,1.6,1.4,3.8,1.4h39.5c2.3,0,3.3-0.8,3.8-1.4c2.1-2.2,2.3-6.5,2.3-7.6l-3-48.6H1111z" style="fill: rgb(36, 60, 76); opacity: 1;"/>
</g><path class="st1" d="M1067.7,674.6c-4.1,18.7,13.7,25.6,13.7,25.6c-8-37.6,18.7-46.3,18.7-46.3&#10;&#9;C1069.9,656.8,1067.7,674.6,1067.7,674.6z" style="fill: rgb(36, 60, 76); opacity: 1;" transform="matrix(1, 0, 0, 1, 1.1368683772161603e-13, 0)"/><g transform="matrix(1, 0, 0, 1, 1.1368683772161603e-13, 0)">
	<path class="st1" d="M1165.4,720.1h-62.9c-19.3-0.2-32.5-3.5-33.1-3.7l-0.4-0.1c-26.5-9.1-26.8-34.1-23.3-46.1l0.3-0.7&#10;&#9;&#9;c18.5-39.5,68.2-42.6,83-42.6c2.5,0,4.2,0.1,4.9,0.1c0.7,0,2.5-0.1,4.9-0.1c14.8,0,64.5,3.1,83,42.6l0.3,0.7&#10;&#9;&#9;c3.6,12,3.3,37-23.3,46.1l-0.4,0.1C1197.9,716.6,1184.7,719.9,1165.4,720.1L1165.4,720.1z M1072.3,706.1c1.7,0.4,13.6,3.1,30.3,3.3&#10;&#9;&#9;h62.8c16.7-0.2,28.6-2.9,30.3-3.3c21.9-7.7,17.4-28.7,16.4-32.5c-15.9-33.4-59.9-36-73.1-36c-2.8,0-4.5,0.1-4.6,0.1l-0.4,0l-0.4,0&#10;&#9;&#9;c-0.1,0-1.8-0.1-4.6-0.1c-13.2,0-57.2,2.6-73.1,36C1054.9,677.3,1050.4,698.4,1072.3,706.1z" style="fill: rgb(36, 60, 76); opacity: 1;"/>
</g></g></g><g transform="matrix(0.12108359485864639, -0.07519295066595078, 0.07519295066595078, 0.12108359485864639, 348.3099788398368, 86.75089204881961)"><g transform="matrix(1, 0, 0, 1, -422.2668151855468, -249.18218994140625)"><g transform="matrix(1, 0, 0, 1, 1.1368683772161603e-13, 0)">
	<path class="st1" d="M1153.7,806.8h-39.5c-4.6,0-8.6-1.6-11.6-4.7c-5.5-5.7-5.3-14.5-5.3-15.5l3.6-58.8h65.9l3.6,58.7&#10;&#9;&#9;c0,1.1,0.3,9.8-5.3,15.5C1162.3,805.2,1158.3,806.8,1153.7,806.8z M1111,738.6l-3,48.7c0,1.2,0.3,5.4,2.3,7.5&#10;&#9;&#9;c0.6,0.6,1.6,1.4,3.8,1.4h39.5c2.3,0,3.3-0.8,3.8-1.4c2.1-2.2,2.3-6.5,2.3-7.6l-3-48.6H1111z" style="fill: rgb(36, 60, 76); opacity: 1;"/>
</g><path class="st1" d="M1067.7,674.6c-4.1,18.7,13.7,25.6,13.7,25.6c-8-37.6,18.7-46.3,18.7-46.3&#10;&#9;C1069.9,656.8,1067.7,674.6,1067.7,674.6z" style="fill: rgb(36, 60, 76); opacity: 1;" transform="matrix(1, 0, 0, 1, 1.1368683772161603e-13, 0)"/><g transform="matrix(1, 0, 0, 1, 1.1368683772161603e-13, 0)">
	<path class="st1" d="M1165.4,720.1h-62.9c-19.3-0.2-32.5-3.5-33.1-3.7l-0.4-0.1c-26.5-9.1-26.8-34.1-23.3-46.1l0.3-0.7&#10;&#9;&#9;c18.5-39.5,68.2-42.6,83-42.6c2.5,0,4.2,0.1,4.9,0.1c0.7,0,2.5-0.1,4.9-0.1c14.8,0,64.5,3.1,83,42.6l0.3,0.7&#10;&#9;&#9;c3.6,12,3.3,37-23.3,46.1l-0.4,0.1C1197.9,716.6,1184.7,719.9,1165.4,720.1L1165.4,720.1z M1072.3,706.1c1.7,0.4,13.6,3.1,30.3,3.3&#10;&#9;&#9;h62.8c16.7-0.2,28.6-2.9,30.3-3.3c21.9-7.7,17.4-28.7,16.4-32.5c-15.9-33.4-59.9-36-73.1-36c-2.8,0-4.5,0.1-4.6,0.1l-0.4,0l-0.4,0&#10;&#9;&#9;c-0.1,0-1.8-0.1-4.6-0.1c-13.2,0-57.2,2.6-73.1,36C1054.9,677.3,1050.4,698.4,1072.3,706.1z" style="fill: rgb(36, 60, 76); opacity: 1;"/>
</g></g></g><g transform="matrix(0.11539658159017563, 0.06820367276668549, -0.06820367276668549, 0.11539658159017563, 393.6937986422845, -16.103920885629485)"><g transform="matrix(1, 0, 0, 1, -422.2668151855468, -249.18218994140625)"><g transform="matrix(1, 0, 0, 1, 1.1368683772161603e-13, 0)">
	<path class="st1" d="M1153.7,806.8h-39.5c-4.6,0-8.6-1.6-11.6-4.7c-5.5-5.7-5.3-14.5-5.3-15.5l3.6-58.8h65.9l3.6,58.7&#10;&#9;&#9;c0,1.1,0.3,9.8-5.3,15.5C1162.3,805.2,1158.3,806.8,1153.7,806.8z M1111,738.6l-3,48.7c0,1.2,0.3,5.4,2.3,7.5&#10;&#9;&#9;c0.6,0.6,1.6,1.4,3.8,1.4h39.5c2.3,0,3.3-0.8,3.8-1.4c2.1-2.2,2.3-6.5,2.3-7.6l-3-48.6H1111z" style="fill: rgb(36, 60, 76); opacity: 1;"/>
</g><path class="st1" d="M1067.7,674.6c-4.1,18.7,13.7,25.6,13.7,25.6c-8-37.6,18.7-46.3,18.7-46.3&#10;&#9;C1069.9,656.8,1067.7,674.6,1067.7,674.6z" style="fill: rgb(36, 60, 76); opacity: 1;" transform="matrix(1, 0, 0, 1, 1.1368683772161603e-13, 0)"/><g transform="matrix(1, 0, 0, 1, 1.1368683772161603e-13, 0)">
	<path class="st1" d="M1165.4,720.1h-62.9c-19.3-0.2-32.5-3.5-33.1-3.7l-0.4-0.1c-26.5-9.1-26.8-34.1-23.3-46.1l0.3-0.7&#10;&#9;&#9;c18.5-39.5,68.2-42.6,83-42.6c2.5,0,4.2,0.1,4.9,0.1c0.7,0,2.5-0.1,4.9-0.1c14.8,0,64.5,3.1,83,42.6l0.3,0.7&#10;&#9;&#9;c3.6,12,3.3,37-23.3,46.1l-0.4,0.1C1197.9,716.6,1184.7,719.9,1165.4,720.1L1165.4,720.1z M1072.3,706.1c1.7,0.4,13.6,3.1,30.3,3.3&#10;&#9;&#9;h62.8c16.7-0.2,28.6-2.9,30.3-3.3c21.9-7.7,17.4-28.7,16.4-32.5c-15.9-33.4-59.9-36-73.1-36c-2.8,0-4.5,0.1-4.6,0.1l-0.4,0l-0.4,0&#10;&#9;&#9;c-0.1,0-1.8-0.1-4.6-0.1c-13.2,0-57.2,2.6-73.1,36C1054.9,677.3,1050.4,698.4,1072.3,706.1z" style="fill: rgb(36, 60, 76); opacity: 1;"/>
</g></g></g><g transform="matrix(0.09453599900007248, -0.0709928348660469, 0.0709928348660469, 0.09453599900007248, 327.66608445632795, 88.39320373535162)"><g transform="matrix(1, 0, 0, 1, -422.2668151855468, -249.18218994140625)"><g transform="matrix(1, 0, 0, 1, 1.1368683772161603e-13, 0)">
	<path class="st1" d="M1153.7,806.8h-39.5c-4.6,0-8.6-1.6-11.6-4.7c-5.5-5.7-5.3-14.5-5.3-15.5l3.6-58.8h65.9l3.6,58.7&#10;&#9;&#9;c0,1.1,0.3,9.8-5.3,15.5C1162.3,805.2,1158.3,806.8,1153.7,806.8z M1111,738.6l-3,48.7c0,1.2,0.3,5.4,2.3,7.5&#10;&#9;&#9;c0.6,0.6,1.6,1.4,3.8,1.4h39.5c2.3,0,3.3-0.8,3.8-1.4c2.1-2.2,2.3-6.5,2.3-7.6l-3-48.6H1111z" style="fill: rgb(36, 60, 76); opacity: 1;"/>
</g><path class="st1" d="M1067.7,674.6c-4.1,18.7,13.7,25.6,13.7,25.6c-8-37.6,18.7-46.3,18.7-46.3&#10;&#9;C1069.9,656.8,1067.7,674.6,1067.7,674.6z" style="fill: rgb(36, 60, 76); opacity: 1;" transform="matrix(1, 0, 0, 1, 1.1368683772161603e-13, 0)"/><g transform="matrix(1, 0, 0, 1, 1.1368683772161603e-13, 0)">
	<path class="st1" d="M1165.4,720.1h-62.9c-19.3-0.2-32.5-3.5-33.1-3.7l-0.4-0.1c-26.5-9.1-26.8-34.1-23.3-46.1l0.3-0.7&#10;&#9;&#9;c18.5-39.5,68.2-42.6,83-42.6c2.5,0,4.2,0.1,4.9,0.1c0.7,0,2.5-0.1,4.9-0.1c14.8,0,64.5,3.1,83,42.6l0.3,0.7&#10;&#9;&#9;c3.6,12,3.3,37-23.3,46.1l-0.4,0.1C1197.9,716.6,1184.7,719.9,1165.4,720.1L1165.4,720.1z M1072.3,706.1c1.7,0.4,13.6,3.1,30.3,3.3&#10;&#9;&#9;h62.8c16.7-0.2,28.6-2.9,30.3-3.3c21.9-7.7,17.4-28.7,16.4-32.5c-15.9-33.4-59.9-36-73.1-36c-2.8,0-4.5,0.1-4.6,0.1l-0.4,0l-0.4,0&#10;&#9;&#9;c-0.1,0-1.8-0.1-4.6-0.1c-13.2,0-57.2,2.6-73.1,36C1054.9,677.3,1050.4,698.4,1072.3,706.1z" style="fill: rgb(36, 60, 76); opacity: 1;"/>
</g></g></g></svg>