<?xml version="1.0" encoding="utf-8"?>
<svg id="master-artboard" viewBox="0 0 507.328857421875 253.0179443359375" version="1.1" xmlns="http://www.w3.org/2000/svg" x="0px" y="0px" style="enable-background:new 0 0 336 235.2;" width="507.328857421875px" height="253.0179443359375px"><rect id="ee-background" x="0" y="0" width="507.328857421875" height="253.0179443359375" style="fill: white; fill-opacity: 0; pointer-events: none;"/><g transform="matrix(0.532770037651062, 0, 0, 0.532770037651062, -167.67286491394043, -755.1776733398438)"><g transform="matrix(1, 0, 0, 1, 0, 0)">
			<path d="M 871.500012 1610.800049 A 3.3 3.3 0 0 1 868.200012 1614.100049 A 3.3 3.3 0 0 1 864.900012 1610.800049 A 3.3 3.3 0 0 1 868.200012 1607.500049 A 3.3 3.3 0 0 1 871.500012 1610.800049 Z" fill="#CCCCCC" style="fill: rgb(36, 60, 76); stroke: rgb(235, 235, 235);"/>
			<path d="M 854.3 1631.599976 A 3.3 3.3 0 0 1 851 1634.899976 A 3.3 3.3 0 0 1 847.7 1631.599976 A 3.3 3.3 0 0 1 851 1628.299976 A 3.3 3.3 0 0 1 854.3 1631.599976 Z" fill="#CCCCCC" style="fill: rgb(36, 60, 76); stroke: rgb(235, 235, 235);"/>
			<path d="M 847.499988 1615.599976 A 2.2 2.2 0 0 1 845.299988 1617.799976 A 2.2 2.2 0 0 1 843.099988 1615.599976 A 2.2 2.2 0 0 1 845.299988 1613.399976 A 2.2 2.2 0 0 1 847.499988 1615.599976 Z" fill="#CCCCCC" style="fill: rgb(36, 60, 76); stroke: rgb(235, 235, 235);"/>
			<path d="M 894.2 1615.599976 A 2.2 2.2 0 0 1 892 1617.799976 A 2.2 2.2 0 0 1 889.8 1615.599976 A 2.2 2.2 0 0 1 892 1613.399976 A 2.2 2.2 0 0 1 894.2 1615.599976 Z" fill="#CCCCCC" style="fill: rgb(36, 60, 76); stroke: rgb(235, 235, 235);"/>
			<path d="M 831.599988 1631.599976 A 3.3 3.3 0 0 1 828.299988 1634.899976 A 3.3 3.3 0 0 1 824.999988 1631.599976 A 3.3 3.3 0 0 1 828.299988 1628.299976 A 3.3 3.3 0 0 1 831.599988 1631.599976 Z" fill="#CCCCCC" style="fill: rgb(36, 60, 76); stroke: rgb(235, 235, 235);"/>
			<path d="M 888.700024 1631.599976 A 3.3 3.3 0 0 1 885.400024 1634.899976 A 3.3 3.3 0 0 1 882.100024 1631.599976 A 3.3 3.3 0 0 1 885.400024 1628.299976 A 3.3 3.3 0 0 1 888.700024 1631.599976 Z" fill="#CCCCCC" style="fill: rgb(36, 60, 76); stroke: rgb(235, 235, 235);"/>
			<path d="M 911.399976 1631.599976 A 3.3 3.3 0 0 1 908.099976 1634.899976 A 3.3 3.3 0 0 1 904.799976 1631.599976 A 3.3 3.3 0 0 1 908.099976 1628.299976 A 3.3 3.3 0 0 1 911.399976 1631.599976 Z" fill="#CCCCCC" style="fill: rgb(36, 60, 76); stroke: rgb(235, 235, 235);"/>
			<path fill="#CCCCCC" d="M938.9,1673.6c0-6.3-4.2-11.6-10.1-13.1v-4.8h7c1.7,0,3-1.4,3-3c0-38.4-31.3-69.7-69.7-69.7&#10;&#9;&#9;&#9;&#9;c-38.4,0-69.7,31.3-69.7,69.7c0,1.7,1.4,3,3,3h5.2v4.7c-2.3,0.6-4.5,1.8-6.2,3.5c-2.6,2.6-4,6-4,9.6c0,6.5,4.5,11.9,10.6,13.2&#10;&#9;&#9;&#9;&#9;v0.7v1.9v8c0,0.6,0.2,1.2,0.5,1.7h-6c-1.7,0-3,1.4-3,3c0,8.7,3.4,21.3,9.6,27.6c0.6,0.6,1.3,0.9,2.2,0.9h115.3&#10;&#9;&#9;&#9;&#9;c0.7,0,1.3-0.2,1.8-0.6c9.5-7.3,10.6-21.9,10.6-27.9c0-0.8-0.3-1.6-0.9-2.1c-0.6-0.6-1.3-0.9-2.1-0.9h-3c0.3-0.5,0.5-1.1,0.5-1.7&#10;&#9;&#9;&#9;&#9;v-12.3c0-0.2,0-0.4-0.1-0.6C936.8,1682,938.9,1678,938.9,1673.6z M925.4,1724.6H812.6c-3.8-4.5-6.3-12.7-6.9-19.4h127.1&#10;&#9;&#9;&#9;&#9;C932.4,1710.5,931,1719.6,925.4,1724.6z M932.8,1649.7h-7H810.8h-5.1c1.6-33.7,29.5-60.6,63.6-60.6&#10;&#9;&#9;&#9;&#9;C903.3,1589,931.2,1616,932.8,1649.7z M922.8,1655.7v3.7h-109v-3.7H922.8z M825.4,1666.1h35.2l-17.6,7.6L825.4,1666.1z&#10;&#9;&#9;&#9;&#9; M876.1,1666.1h35.2l-17.6,7.6L876.1,1666.1z M810.3,1666.1l31.5,13.6c0.8,0.3,1.6,0.3,2.4,0l24.2-10.5l24.2,10.5&#10;&#9;&#9;&#9;&#9;c0.6,0.2,1.2,0.3,1.8,0.2c0.2,0,0.4-0.1,0.6-0.2l31.5-13.6c3.7,0.5,6.5,3.7,6.5,7.5c0,4.1-3.4,7.5-7.4,7.5h-48.8&#10;&#9;&#9;&#9;&#9;c-0.1,0-0.1,0-0.2,0h-16.3h-49.2c-4.1,0-7.5-3.4-7.5-7.5c0-2,0.8-3.9,2.2-5.3C807,1667,808.6,1666.3,810.3,1666.1z M814.1,1688.2&#10;&#9;&#9;&#9;&#9;h113.3v6.2H814.1V1688.2z" style="fill: rgb(36, 60, 76); stroke: rgb(235, 235, 235);"/>
		</g></g><g transform="matrix(1.4567625522613525, 0, 0, 1.4567625522613525, -165.1030559539795, -466.46665954589844)"><g transform="matrix(1, 0, 0, 1, 5.684341886080802e-14, 0)"><g transform="matrix(1, 0, 0, 1, 1.2051649093628498, 9.64132022857666)">
			<path class="st0" d="M203.7,320.5c-1.6,0-3.3,0-5,0.1c-49.1,1.6-78.4,24.6-82,46.5c-2.4,14.4,5.9,26.6,22,32.6&#10;&#9;&#9;&#9;&#9;c6.9,2.6,15.8,4.8,25.4,6.5c0.4,4.5,1,22-10,40.1c-5.3,8.8-4.2,17.9,3,24.6c5.9,5.5,15.7,8.7,26.5,8.7c10.2,0,21.3-3,30.7-9.8&#10;&#9;&#9;&#9;&#9;c23.6-17.2,12.7-48.8,7.1-61.4c11.9-1.4,23.8-4.6,31.6-11c11.1-9.1,19-27.7,12.6-45.7C261.4,340.1,247.8,320.5,203.7,320.5z&#10;&#9;&#9;&#9;&#9; M209.1,462.7c-16.6,12-38,9.1-46,1.7c-4.1-3.8-4.6-8.3-1.4-13.5c11.1-18.2,11.7-35.9,11.3-43.3c9.7,1.3,19.7,2,29.3,2&#10;&#9;&#9;&#9;&#9;c3.1,0,6.4-0.1,9.8-0.3C215.9,417.2,229.2,448.1,209.1,462.7z M247.4,390.6c-8,6.5-24.1,10.1-45.2,10.1c-21.1,0-46-3.8-60.5-9.2&#10;&#9;&#9;&#9;&#9;c-12.1-4.5-18.1-12.9-16.4-23c3-18.4,29.3-37.8,73.7-39.2c1.6-0.1,3.2-0.1,4.7-0.1c28.8,0,47.8,9,53.6,25.3&#10;&#9;&#9;&#9;&#9;C262.3,368.7,255.9,383.7,247.4,390.6z" style="fill: rgb(36, 60, 76); opacity: 1; stroke: rgb(235, 235, 235); stroke-width: 0; stroke-opacity: 1; fill-opacity: 1;"/>
		</g></g></g><g transform="matrix(0.495056688785553, 0, 0, 0.495056688785553, -221.61173820495605, -336.5069046020508)"><g transform="matrix(1, 0, 0, 1, 0, 0)"><g transform="matrix(1, 0, 0, 1, 0, 0)">
	<path class="st1" d="M628.4,795.5c3.5-4.5,8.1-2.2,10.9,1.4c2.5,3.2,8,2.6,10.6,0c3.2-3.2,2.5-7.4,0-10.6&#10;&#9;&#9;c-4.2-5.4-10.4-8.4-17.2-8.3c-7.3,0-13,4.5-17.3,10c-2.5,3.2-0.5,8.4,2.7,10.3C622,800.5,625.9,798.8,628.4,795.5L628.4,795.5z" style="fill: rgb(36, 60, 76); opacity: 1; stroke: rgb(235, 235, 235);"/>
</g><g transform="matrix(1, 0, 0, 1, 0, 0)">
	<path class="st1" d="M754.8,795.5c3.5-4.5,8.1-2.2,10.9,1.4c2.5,3.2,8,2.6,10.6,0c3.2-3.2,2.5-7.4,0-10.6&#10;&#9;&#9;c-4.2-5.4-10.4-8.4-17.2-8.3c-7.3,0-13,4.5-17.3,10c-2.5,3.2-0.5,8.4,2.7,10.3C748.4,800.5,752.3,798.8,754.8,795.5L754.8,795.5z" style="fill: rgb(36, 60, 76); opacity: 1; stroke: rgb(235, 235, 235);"/>
</g><g transform="matrix(1, 0, 0, 1, 0, 0)">
	<path class="st3" d="M661.2,826.4c0.6,27.8,36.5,35.4,55.6,20.5c10.9-8.6,11.5-26.5,4.2-37.5c-6.7-10.2-19.9-12.3-20.2-25.7&#10;&#9;&#9;c-0.2-9.7-15.2-9.7-15,0c0.3,13,6.6,20.8,16.5,28.1c2.9,2.1,6.2,4.8,7.5,8.6c1.6,4.6,1.2,9.4-0.7,12.6c-6.7,11.7-32.6,7.7-32.9-6.6&#10;&#9;&#9;C676,816.8,661,816.8,661.2,826.4L661.2,826.4z" style="fill: rgb(36, 60, 76); opacity: 1; stroke: rgb(235, 235, 235);"/>
</g><g transform="matrix(1, 0, 0, 1, 0, 0)">
	<path class="st2" d="M699.3,886.4c-0.4,7.5-11.3,7.5-11.7,0C687.2,878.9,698.9,878.9,699.3,886.4c0.5,9.6,15.5,9.7,15,0&#10;&#9;&#9;c-0.6-11.7-9.1-20.2-20.8-20.8c-11.7-0.6-20.3,10-20.8,20.8c-0.6,11.7,10,20.3,20.8,20.8c11.7,0.6,20.3-10,20.8-20.8&#10;&#9;&#9;C714.8,876.7,699.8,876.8,699.3,886.4z" style="fill: rgb(36, 60, 76); opacity: 1; stroke: rgb(235, 235, 235);"/>
</g></g></g><g transform="matrix(0.2774839997291565, 0, 0, 0.2774839997291565, 10.988794326782227, -142.91551971435547)"><g transform="matrix(3.0627939701080322, 0, 0, 3.0627939701080322, -392.763458251953, -1297.9407958984375)">
	<g transform="matrix(0.41986000537872314, 0, 0, 0.41986000537872314, 169.9713914366847, 332.79365342951286)"><g transform="matrix(0.9999999999999999, 0, 0, 0.9999999999999999, -1.4210854715202004e-14, 1.1368683772161603e-13)"><g transform="matrix(0.9999999999999999, 0, 0, 0.9999999999999999, -1.4210854715202004e-14, 1.1368683772161603e-13)"><g transform="matrix(0.9999999999999999, 0, 0, 0.9999999999999999, -1.4210854715202004e-14, 1.1368683772161603e-13)">
		<g>
			<path d="M 545.9000244140625 1306.5999755859375 L 534.7000122070312 1178.199951171875 L 514.7999877929688 1179.9000244140625 L 525.9000244140625 1306.5999755859375 Z" class="st0" style="fill: rgb(36, 60, 76); opacity: 1; stroke: rgb(235, 235, 235);"/>
			<path d="M 422.299988 1169.900024 H 552.299988 V 1189.900024 H 422.299988 V 1169.900024 Z" class="st1" style="fill: rgb(36, 60, 76); opacity: 1; stroke: rgb(235, 235, 235);"/>
			<path d="M 412.20001220703125 1030.5 L 392.29998779296875 1032.199951171875 L 405.20001220703125 1179.9000244140625 L 394.1000061035156 1306.5999755859375 L 414.20001220703125 1306.5999755859375 L 425.29998779296875 1179.9000244140625 Z" class="st0" style="fill: rgb(36, 60, 76); opacity: 1; stroke: rgb(235, 235, 235);"/>
			<path d="M 419.200012 1180.099976 A 4 4 0 0 1 415.200012 1184.099976 A 4 4 0 0 1 411.200012 1180.099976 A 4 4 0 0 1 415.200012 1176.099976 A 4 4 0 0 1 419.200012 1180.099976 Z" class="st2" style="fill: rgb(36, 60, 76); opacity: 1; stroke: rgb(235, 235, 235);"/>
			<path d="M 528.200012 1180.099976 A 4 4 0 0 1 524.200012 1184.099976 A 4 4 0 0 1 520.200012 1180.099976 A 4 4 0 0 1 524.200012 1176.099976 A 4 4 0 0 1 528.200012 1180.099976 Z" class="st2" style="fill: rgb(36, 60, 76); opacity: 1; stroke: rgb(235, 235, 235);"/>
		</g>
		<g>
			<path d="M 846 1306.5999755859375 L 857.2000122070312 1178.199951171875 L 877.2000122070312 1179.9000244140625 L 866.0999755859375 1306.5999755859375 Z" class="st0" style="fill: rgb(36, 60, 76); opacity: 1; stroke: rgb(235, 235, 235);"/>
			<path d="M 839.700012 1169.900024 H 969.700012 V 1189.900024 H 839.700012 V 1169.900024 Z" class="st1" style="fill: rgb(36, 60, 76); opacity: 1; stroke: rgb(235, 235, 235);"/>
			<path d="M 979.7000122070312 1030.5 L 999.7000122070312 1032.199951171875 L 986.7000122070312 1179.9000244140625 L 997.7999877929688 1306.5999755859375 L 977.7000122070312 1306.5999755859375 L 966.7000122070312 1179.9000244140625 Z" class="st0" style="fill: rgb(36, 60, 76); opacity: 1; stroke: rgb(235, 235, 235);"/>
			<path d="M 980.700012 1180.099976 A 4 4 0 0 1 976.700012 1184.099976 A 4 4 0 0 1 972.700012 1180.099976 A 4 4 0 0 1 976.700012 1176.099976 A 4 4 0 0 1 980.700012 1180.099976 Z" class="st2" style="fill: rgb(36, 60, 76); opacity: 1; stroke: rgb(235, 235, 235);"/>
			<path d="M 871.799988 1180.099976 A 4 4 0 0 1 867.799988 1184.099976 A 4 4 0 0 1 863.799988 1180.099976 A 4 4 0 0 1 867.799988 1176.099976 A 4 4 0 0 1 871.799988 1180.099976 Z" class="st2" style="fill: rgb(36, 60, 76); opacity: 1; stroke: rgb(235, 235, 235);"/>
		</g>
	</g></g></g><g transform="matrix(0.9999999999999999, 0, 0, 0.9999999999999999, -1.4210854715202004e-14, 1.1368683772161603e-13)">
		<g><g transform="matrix(0.9999999999999999, 0, 0, 0.9999999999999999, -1.4210854715202004e-14, 1.1368683772161603e-13)"><g transform="matrix(0.9999999999999999, 0, 0, 0.9999999999999999, -1.4210854715202004e-14, 1.1368683772161603e-13)">
			<path d="M 557.299988 1080.699951 H 834.599976 V 1101.99995 H 557.299988 V 1080.699951 Z" class="st1" style="fill: rgb(36, 60, 76); opacity: 1; stroke: rgb(235, 235, 235);"/>
			<path d="M 594.200012 1091.699951 A 4 4 0 0 1 590.200012 1095.699951 A 4 4 0 0 1 586.200012 1091.699951 A 4 4 0 0 1 590.200012 1087.699951 A 4 4 0 0 1 594.200012 1091.699951 Z" class="st2" style="fill: rgb(36, 60, 76); opacity: 1; stroke: rgb(235, 235, 235);"/>
			<path d="M 581.299988 1102 H 599.099987 V 1306.600006 H 581.299988 V 1102 Z" class="st0" style="fill: rgb(36, 60, 76); opacity: 1; stroke: rgb(235, 235, 235);"/>
			<path d="M 805.700012 1091.699951 A 4 4 0 0 1 801.700012 1095.699951 A 4 4 0 0 1 797.700012 1091.699951 A 4 4 0 0 1 801.700012 1087.699951 A 4 4 0 0 1 805.700012 1091.699951 Z" class="st2" style="fill: rgb(36, 60, 76); opacity: 1; stroke: rgb(235, 235, 235);"/>
			<path d="M 792.799988 1102 H 810.599987 V 1306.600006 H 792.799988 V 1102 Z" class="st0" style="fill: rgb(36, 60, 76); opacity: 1; stroke: rgb(235, 235, 235);"/>
		</g></g></g>
		
		
	</g></g>
	
	
</g></g><g transform="matrix(1.5921862125396729, 0, 0, 1.5921862125396729, 73.65674018859863, -24.11590576171875)"><g transform="matrix(0.44474959373474127, 0, 0, 0.44474959373474127, -16.88328742980957, -5.115662097930908)"><g transform="matrix(1, 0, 0, 1, 0, 0)"><path d="M473.3,189c6.8,5.4,14.2,8.1,21.9,8.1c0,0,0,0,0,0c8.9,0,16.5-3.5,21.8-6.9l-6.8,80.1c-0.1,1.1,0.3,2.2,1,3&#10;&#9;&#9;&#9;c0.6,0.6,1.3,1,2.1,1.2l4,111.4c0.1,2.2,1.8,3.9,4,3.9H539c2.1,0,3.8-1.6,4-3.6l9.6-100.9l3.6,100.7c0.1,2.2,1.8,3.9,4,3.9h17.5&#10;&#9;&#9;&#9;c2.1,0,3.8-1.6,4-3.6l10.6-111.6c1.9-0.3,3.4-1.9,3.4-3.9c0-0.2,0-0.4,0-0.6l-1.8-31.8c9.1-2.4,32.5-9.5,38.8-22&#10;&#9;&#9;&#9;c2.1-4.2,2.2-8.6,0.2-13c-9-19.9-43.7-55.2-45.1-56.7c0,0,0,0-0.1-0.1c-0.1-0.1-0.2-0.2-0.3-0.2c-0.1,0-0.1-0.1-0.2-0.1&#10;&#9;&#9;&#9;c-0.1-0.1-0.2-0.1-0.3-0.2c-0.1,0-0.1-0.1-0.2-0.1c0,0,0,0,0,0c-0.1-0.1-0.2-0.1-0.3-0.1c0,0-0.1,0-0.1-0.1&#10;&#9;&#9;&#9;c-0.2-0.1-0.3-0.1-0.5-0.1c-0.1,0-0.1,0-0.2,0c-0.1,0-0.2,0-0.3,0c-0.1,0-0.2,0-0.2,0c-0.1,0-0.2,0-0.3,0c-0.1,0-0.2,0-0.3,0&#10;&#9;&#9;&#9;c-0.1,0-0.2,0-0.3,0c-0.1,0-0.2,0-0.2,0.1c-0.1,0-0.2,0.1-0.3,0.1c0,0-0.1,0-0.1,0c0,0-0.1,0-0.1,0c-0.1,0-0.2,0.1-0.3,0.2&#10;&#9;&#9;&#9;c-0.1,0-0.1,0.1-0.2,0.1c0,0,0,0,0,0c-10,6.3-19.9,9.6-29.5,9.6c-16,0-25.9-9-26-9.1c-0.2-0.1-0.3-0.3-0.5-0.4&#10;&#9;&#9;&#9;c-0.1,0-0.1-0.1-0.2-0.1c-0.1-0.1-0.3-0.2-0.4-0.2c-0.1,0-0.1-0.1-0.2-0.1c-0.2-0.1-0.3-0.1-0.5-0.2c0,0-0.1,0-0.1,0c0,0,0,0,0,0&#10;&#9;&#9;&#9;c-0.2,0-0.4-0.1-0.7-0.1c-0.1,0-0.1,0-0.2,0c-0.2,0-0.3,0-0.5,0c-0.1,0-0.1,0-0.2,0c-0.1,0-0.3,0.1-0.4,0.1c-0.1,0-0.1,0-0.2,0.1&#10;&#9;&#9;&#9;c0,0-0.1,0-0.1,0c-0.1,0.1-0.3,0.1-0.4,0.2c0,0-0.1,0-0.1,0c-0.2,0.1-0.4,0.2-0.5,0.4c0,0-0.1,0.1-0.1,0.1&#10;&#9;&#9;&#9;c-0.1,0.1-0.2,0.2-0.3,0.3c-0.1,0.1-0.1,0.1-0.2,0.2c-0.1,0.1-0.2,0.2-0.3,0.4c0,0.1-0.1,0.1-0.1,0.2c-0.1,0.2-0.2,0.4-0.3,0.6&#10;&#9;&#9;&#9;c0,0,0,0,0,0c-0.1,0.2-7.1,18.7-21.9,18.7c-2.1,0-4.3-0.4-6.6-1.1c-5-2.3-8-5.5-9.8-8.8h27.9c2.2,0,4-1.8,4-4v-15.6&#10;&#9;&#9;&#9;c0-2.2-1.8-4-4-4h-4.7c-0.5-6-2.6-17.4-10.8-25.9c-4.3-4.5-9.7-7.5-16-9.1V87.3c0-2.2-1.8-4-4-4h-14.6c-2.2,0-4,1.8-4,4v10.8&#10;&#9;&#9;&#9;c-6.8,1.6-12.5,4.8-16.9,9.5c-7.9,8.4-9.7,19.5-10.1,25.5h-4.6c-2.2,0-4,1.8-4,4v15.6c0,2.2,1.8,4,4,4h29.3&#10;&#9;&#9;&#9;C455.5,166.3,460.3,178.7,473.3,189z M467.5,104.9c9.2,0,16.4,2.7,21.5,7.9c6.2,6.4,8,15.3,8.6,20.4h-60.4&#10;&#9;&#9;&#9;c0.4-4.9,1.9-13.6,7.9-20C450.3,107.6,457.8,104.9,467.5,104.9z M470.8,91.3V97c-1.1-0.1-2.2-0.1-3.3-0.1c-1.1,0-2.2,0-3.3,0.1&#10;&#9;&#9;&#9;v-5.7H470.8z M428.6,141.1h4.5h68.7h4.6v7.6h-77.8V141.1z M489.6,173.1c3.2,1.1,6.3,1.6,9.3,1.6h0c8.9,0,15.5-4.4,20.3-9.4&#10;&#9;&#9;&#9;l-1.2,14.3c-2.9,2.6-11.9,9.5-22.7,9.5c-5.9,0-11.7-2.1-17-6.4c-10.5-8.3-14.7-18.1-16.2-26h11.8c2.3,6.2,6.9,12.4,15.5,16.2&#10;&#9;&#9;&#9;C489.4,173,489.5,173,489.6,173.1z M593.5,230l-0.7-12.2c4.1-0.3,7.2-1.8,9.2-4.5c2.5-3.4,2.8-8.3,0.9-14.5&#10;&#9;&#9;&#9;c-3.7-11.7-9-18.6-12.4-22.1l-0.9-16.7c10.8,11.6,30.1,33.3,36.1,46.6c1,2.1,0.9,4.1-0.1,6.1C621.5,220.8,603.9,227.1,593.5,230z&#10;&#9;&#9;&#9; M564.1,381.8l-3.9-107.2h24.1l-10.2,107.2H564.1z M525.4,381.8l-3.9-107.2h24.1l-10.2,107.2H525.4z M591.3,191.6&#10;&#9;&#9;&#9;c1.4,2.6,2.7,5.8,3.9,9.6c1.1,3.5,1.2,6.2,0.3,7.4c-0.7,0.9-2.1,1.2-3.2,1.3L591.3,191.6z M581.3,156l6.2,110.6h-31.5H550h-31.3&#10;&#9;&#9;&#9;l9.3-110c5.4,3.2,14,6.9,25.3,6.9C562.5,163.5,571.9,161,581.3,156z" transform="matrix(1, 0, 0, 1, 3.637978807091713e-12, 9.094947017729282e-13)" style="fill: rgb(36, 60, 76); stroke: rgb(235, 235, 235);"/></g><path d="M553.5,153.3c20.5,0,37.1-16.7,37.1-37.1S574,79,553.5,79c-20.5,0-37.1,16.7-37.1,37.1S533,153.3,553.5,153.3z M553.5,87&#10;&#9;&#9;&#9;c16.1,0,29.1,13.1,29.1,29.1c0,16.1-13.1,29.1-29.1,29.1c-16.1,0-29.1-13.1-29.1-29.1C524.4,100.1,537.5,87,553.5,87z" transform="matrix(1, 0, 0, 1, 3.637978807091713e-12, 9.094947017729282e-13)" style="fill: rgb(36, 60, 76); stroke: rgb(235, 235, 235);"/><path d="M550.4,166.6c-1.4,0-2.6,0.3-3.8,0.8l-9.2-3.8c-0.5-0.2-1.1-0.3-1.7-0.3c-2.5,0-4.5,2-4.5,4.5v14.9c0,2.5,2,4.5,4.5,4.5&#10;&#9;&#9;&#9;c0.6,0,1.3-0.1,1.9-0.4l8.1-3.6c1.4,0.9,3,1.4,4.8,1.4c1.6,0,3.2-0.4,4.5-1.2l7.6,3.4c0.6,0.3,1.2,0.4,1.9,0.4&#10;&#9;&#9;&#9;c2.5,0,4.5-2,4.5-4.5v-14.9c0-2.5-2-4.5-4.5-4.5c-0.6,0-1.2,0.1-1.7,0.3l-8.8,3.6C552.7,166.8,551.6,166.6,550.4,166.6z&#10;&#9;&#9;&#9; M563.8,181.9l-5.4-2.4c0.6-1.2,0.9-2.5,0.9-3.9c0-1.7-0.5-3.3-1.3-4.7l5.8-2.3V181.9z M536.1,168.6l6.4,2.6&#10;&#9;&#9;&#9;c-0.7,1.3-1.2,2.8-1.2,4.4c0,1.3,0.3,2.5,0.8,3.7l-6,2.7V168.6z M554.4,175.6c0,2.2-1.8,4-4,4s-4-1.8-4-4c0-2.2,1.8-4,4-4&#10;&#9;&#9;&#9;S554.4,173.4,554.4,175.6z" transform="matrix(1, 0, 0, 1, 3.637978807091713e-12, 9.094947017729282e-13)" style="fill: rgb(36, 60, 76); stroke: rgb(235, 235, 235);"/></g></g><g transform="matrix(0.1836819350719452, 0, 0, 0.1836819350719452, 371.99165534973145, 19.376007080078125)"><g transform="matrix(1, 0, 0, 1, 0, 0)"><g transform="matrix(1, 0, 0, 1, 0, 0)">
	<path class="st1" d="M278.2,152.4c0.1-6.5,2-11.7,6.2-15.8c3.7-3.6,9.1-5.2,14.1-5.3c4.8-0.1,10,1.6,13.5,4.6&#10;&#9;&#9;c4.8,4.1,6.7,9.9,6.8,16.6c0.1,9.7,15.1,9.7,15,0c-0.3-20.2-14.7-36.1-35.3-36.3c-20.4-0.2-35,16.4-35.3,36.2&#10;&#9;&#9;C263.1,162.1,278.1,162,278.2,152.4L278.2,152.4z" style="fill: rgb(36, 60, 76); opacity: 1; stroke: rgb(235, 235, 235);"/>
</g><g transform="matrix(1, 0, 0, 1, 0, 0)">
	<path class="st1" d="M407.1,152.4c0.1-6.5,2-11.7,6.2-15.8c3.7-3.6,9.1-5.2,14.1-5.3c4.8-0.1,10,1.6,13.5,4.6&#10;&#9;&#9;c4.8,4.1,6.7,9.9,6.8,16.6c0.1,9.7,15.1,9.7,15,0c-0.3-20.2-14.7-36.1-35.3-36.3c-20.4-0.2-35,16.4-35.3,36.2&#10;&#9;&#9;C391.9,162.1,406.9,162,407.1,152.4L407.1,152.4z" style="fill: rgb(36, 60, 76); opacity: 1; stroke: rgb(235, 235, 235);"/>
</g><g transform="matrix(1, 0, 0, 1, 0, 0)">
	<path class="st2" d="M384.8,232.2c-7.7,16.7-34.7,17.7-42.9,0.9c-4.3-8.7-17.2-1.1-13,7.6c12.9,26.4,56.6,25.8,68.9-0.9&#10;&#9;&#9;C401.7,231,388.8,223.4,384.8,232.2L384.8,232.2z" style="fill: rgb(36, 60, 76); opacity: 1; stroke: rgb(235, 235, 235);"/>
</g><g transform="matrix(1, 0, 0, 1, 0, 0)">
	<path class="st3" d="M330.6,184.6c0.6,27.8,36.5,35.4,55.6,20.5c10.9-8.6,11.5-26.5,4.2-37.5c-6.7-10.2-19.9-12.3-20.2-25.7&#10;&#9;&#9;c-0.2-9.7-15.2-9.7-15,0c0.3,13,6.6,20.8,16.5,28.1c2.9,2.1,6.2,4.8,7.5,8.6c1.6,4.6,1.2,9.4-0.7,12.6c-6.7,11.7-32.6,7.7-32.9-6.6&#10;&#9;&#9;C345.4,175,330.4,175,330.6,184.6L330.6,184.6z" style="fill: rgb(36, 60, 76); opacity: 1; stroke: rgb(235, 235, 235);"/>
</g></g></g></svg>